<mxfile host="app.diagrams.net" modified="2023-11-11T11:12:08.972Z" agent="Mozilla/5.0 (Macintosh; Intel Mac OS X 10_15_7) AppleWebKit/537.36 (KHTML, like Gecko) Chrome/118.0.0.0 Safari/537.36" etag="_sYr9XJdXhLOXO1K1_Yy" version="22.1.0" type="github">
  <diagram name="第 1 页" id="56kX1IBeYEENq4kwLYtK">
    <mxGraphModel dx="2400" dy="1036" grid="1" gridSize="10" guides="1" tooltips="1" connect="1" arrows="1" fold="1" page="1" pageScale="1" pageWidth="827" pageHeight="1169" math="0" shadow="0">
      <root>
        <mxCell id="0" />
        <mxCell id="1" parent="0" />
        <mxCell id="AtaMCeHDhwVp71-YsUhz-1" value="4" style="ellipse;whiteSpace=wrap;html=1;aspect=fixed;fillColor=#d5e8d4;strokeColor=#82b366;" vertex="1" parent="1">
          <mxGeometry x="120" y="200" width="40" height="40" as="geometry" />
        </mxCell>
        <mxCell id="AtaMCeHDhwVp71-YsUhz-3" value="3" style="ellipse;whiteSpace=wrap;html=1;aspect=fixed;" vertex="1" parent="1">
          <mxGeometry x="60" y="260" width="40" height="40" as="geometry" />
        </mxCell>
        <mxCell id="AtaMCeHDhwVp71-YsUhz-4" value="12" style="ellipse;whiteSpace=wrap;html=1;aspect=fixed;" vertex="1" parent="1">
          <mxGeometry x="170" y="260" width="40" height="40" as="geometry" />
        </mxCell>
        <mxCell id="AtaMCeHDhwVp71-YsUhz-5" value="1" style="ellipse;whiteSpace=wrap;html=1;aspect=fixed;" vertex="1" parent="1">
          <mxGeometry x="20" y="340" width="40" height="40" as="geometry" />
        </mxCell>
        <mxCell id="AtaMCeHDhwVp71-YsUhz-8" value="" style="endArrow=classic;html=1;rounded=0;exitX=0.5;exitY=1;exitDx=0;exitDy=0;entryX=0;entryY=0;entryDx=0;entryDy=0;" edge="1" parent="1" source="AtaMCeHDhwVp71-YsUhz-1" target="AtaMCeHDhwVp71-YsUhz-4">
          <mxGeometry width="50" height="50" relative="1" as="geometry">
            <mxPoint x="390" y="450" as="sourcePoint" />
            <mxPoint x="440" y="400" as="targetPoint" />
          </mxGeometry>
        </mxCell>
        <mxCell id="AtaMCeHDhwVp71-YsUhz-9" value="" style="endArrow=classic;html=1;rounded=0;exitX=0.5;exitY=1;exitDx=0;exitDy=0;entryX=1;entryY=0;entryDx=0;entryDy=0;" edge="1" parent="1" source="AtaMCeHDhwVp71-YsUhz-1" target="AtaMCeHDhwVp71-YsUhz-3">
          <mxGeometry width="50" height="50" relative="1" as="geometry">
            <mxPoint x="150" y="250" as="sourcePoint" />
            <mxPoint x="186" y="276" as="targetPoint" />
          </mxGeometry>
        </mxCell>
        <mxCell id="AtaMCeHDhwVp71-YsUhz-10" value="" style="endArrow=classic;html=1;rounded=0;exitX=0.5;exitY=1;exitDx=0;exitDy=0;" edge="1" parent="1" source="AtaMCeHDhwVp71-YsUhz-3" target="AtaMCeHDhwVp71-YsUhz-5">
          <mxGeometry width="50" height="50" relative="1" as="geometry">
            <mxPoint x="160" y="260" as="sourcePoint" />
            <mxPoint x="196" y="286" as="targetPoint" />
          </mxGeometry>
        </mxCell>
        <mxCell id="AtaMCeHDhwVp71-YsUhz-11" value="5" style="ellipse;whiteSpace=wrap;html=1;aspect=fixed;" vertex="1" parent="1">
          <mxGeometry x="100" y="340" width="40" height="40" as="geometry" />
        </mxCell>
        <mxCell id="AtaMCeHDhwVp71-YsUhz-13" value="" style="endArrow=classic;html=1;rounded=0;exitX=0.5;exitY=1;exitDx=0;exitDy=0;entryX=0;entryY=0;entryDx=0;entryDy=0;" edge="1" parent="1" source="AtaMCeHDhwVp71-YsUhz-3" target="AtaMCeHDhwVp71-YsUhz-11">
          <mxGeometry width="50" height="50" relative="1" as="geometry">
            <mxPoint x="390" y="440" as="sourcePoint" />
            <mxPoint x="440" y="390" as="targetPoint" />
          </mxGeometry>
        </mxCell>
        <mxCell id="AtaMCeHDhwVp71-YsUhz-14" value="13" style="ellipse;whiteSpace=wrap;html=1;aspect=fixed;" vertex="1" parent="1">
          <mxGeometry x="140" y="340" width="40" height="40" as="geometry" />
        </mxCell>
        <mxCell id="AtaMCeHDhwVp71-YsUhz-15" value="43" style="ellipse;whiteSpace=wrap;html=1;aspect=fixed;" vertex="1" parent="1">
          <mxGeometry x="210" y="340" width="40" height="40" as="geometry" />
        </mxCell>
        <mxCell id="AtaMCeHDhwVp71-YsUhz-16" value="" style="endArrow=classic;html=1;rounded=0;exitX=0.5;exitY=1;exitDx=0;exitDy=0;entryX=1;entryY=0;entryDx=0;entryDy=0;" edge="1" parent="1" source="AtaMCeHDhwVp71-YsUhz-4" target="AtaMCeHDhwVp71-YsUhz-14">
          <mxGeometry width="50" height="50" relative="1" as="geometry">
            <mxPoint x="390" y="450" as="sourcePoint" />
            <mxPoint x="440" y="400" as="targetPoint" />
          </mxGeometry>
        </mxCell>
        <mxCell id="AtaMCeHDhwVp71-YsUhz-18" value="" style="endArrow=classic;html=1;rounded=0;entryX=0;entryY=0;entryDx=0;entryDy=0;" edge="1" parent="1" target="AtaMCeHDhwVp71-YsUhz-15">
          <mxGeometry width="50" height="50" relative="1" as="geometry">
            <mxPoint x="190" y="300" as="sourcePoint" />
            <mxPoint x="184" y="356" as="targetPoint" />
          </mxGeometry>
        </mxCell>
        <mxCell id="AtaMCeHDhwVp71-YsUhz-19" value="3" style="ellipse;whiteSpace=wrap;html=1;aspect=fixed;" vertex="1" parent="1">
          <mxGeometry x="-20" y="410" width="40" height="40" as="geometry" />
        </mxCell>
        <mxCell id="AtaMCeHDhwVp71-YsUhz-20" value="" style="endArrow=classic;html=1;rounded=0;exitX=0.5;exitY=1;exitDx=0;exitDy=0;entryX=1;entryY=0;entryDx=0;entryDy=0;" edge="1" parent="1" source="AtaMCeHDhwVp71-YsUhz-5" target="AtaMCeHDhwVp71-YsUhz-19">
          <mxGeometry width="50" height="50" relative="1" as="geometry">
            <mxPoint x="390" y="460" as="sourcePoint" />
            <mxPoint x="440" y="410" as="targetPoint" />
          </mxGeometry>
        </mxCell>
        <mxCell id="AtaMCeHDhwVp71-YsUhz-21" value="1" style="ellipse;whiteSpace=wrap;html=1;aspect=fixed;" vertex="1" parent="1">
          <mxGeometry x="60" y="410" width="40" height="40" as="geometry" />
        </mxCell>
        <mxCell id="AtaMCeHDhwVp71-YsUhz-22" value="" style="endArrow=classic;html=1;rounded=0;exitX=0.5;exitY=1;exitDx=0;exitDy=0;entryX=0;entryY=0;entryDx=0;entryDy=0;" edge="1" parent="1" source="AtaMCeHDhwVp71-YsUhz-5" target="AtaMCeHDhwVp71-YsUhz-21">
          <mxGeometry width="50" height="50" relative="1" as="geometry">
            <mxPoint x="390" y="460" as="sourcePoint" />
            <mxPoint x="440" y="410" as="targetPoint" />
          </mxGeometry>
        </mxCell>
        <mxCell id="AtaMCeHDhwVp71-YsUhz-23" value="4" style="ellipse;whiteSpace=wrap;html=1;aspect=fixed;fillColor=#d5e8d4;strokeColor=#82b366;" vertex="1" parent="1">
          <mxGeometry x="440" y="200" width="40" height="40" as="geometry" />
        </mxCell>
        <mxCell id="AtaMCeHDhwVp71-YsUhz-24" value="3" style="ellipse;whiteSpace=wrap;html=1;aspect=fixed;fillColor=#d5e8d4;strokeColor=#82b366;" vertex="1" parent="1">
          <mxGeometry x="380" y="260" width="40" height="40" as="geometry" />
        </mxCell>
        <mxCell id="AtaMCeHDhwVp71-YsUhz-25" value="12" style="ellipse;whiteSpace=wrap;html=1;aspect=fixed;" vertex="1" parent="1">
          <mxGeometry x="490" y="260" width="40" height="40" as="geometry" />
        </mxCell>
        <mxCell id="AtaMCeHDhwVp71-YsUhz-26" value="1" style="ellipse;whiteSpace=wrap;html=1;aspect=fixed;" vertex="1" parent="1">
          <mxGeometry x="340" y="340" width="40" height="40" as="geometry" />
        </mxCell>
        <mxCell id="AtaMCeHDhwVp71-YsUhz-27" value="" style="endArrow=classic;html=1;rounded=0;exitX=0.5;exitY=1;exitDx=0;exitDy=0;entryX=0;entryY=0;entryDx=0;entryDy=0;" edge="1" parent="1" source="AtaMCeHDhwVp71-YsUhz-23" target="AtaMCeHDhwVp71-YsUhz-25">
          <mxGeometry width="50" height="50" relative="1" as="geometry">
            <mxPoint x="710" y="450" as="sourcePoint" />
            <mxPoint x="760" y="400" as="targetPoint" />
          </mxGeometry>
        </mxCell>
        <mxCell id="AtaMCeHDhwVp71-YsUhz-28" value="" style="endArrow=classic;html=1;rounded=0;exitX=0.5;exitY=1;exitDx=0;exitDy=0;entryX=1;entryY=0;entryDx=0;entryDy=0;" edge="1" parent="1" source="AtaMCeHDhwVp71-YsUhz-23" target="AtaMCeHDhwVp71-YsUhz-24">
          <mxGeometry width="50" height="50" relative="1" as="geometry">
            <mxPoint x="470" y="250" as="sourcePoint" />
            <mxPoint x="506" y="276" as="targetPoint" />
          </mxGeometry>
        </mxCell>
        <mxCell id="AtaMCeHDhwVp71-YsUhz-29" value="" style="endArrow=classic;html=1;rounded=0;exitX=0.5;exitY=1;exitDx=0;exitDy=0;" edge="1" parent="1" source="AtaMCeHDhwVp71-YsUhz-24" target="AtaMCeHDhwVp71-YsUhz-26">
          <mxGeometry width="50" height="50" relative="1" as="geometry">
            <mxPoint x="480" y="260" as="sourcePoint" />
            <mxPoint x="516" y="286" as="targetPoint" />
          </mxGeometry>
        </mxCell>
        <mxCell id="AtaMCeHDhwVp71-YsUhz-30" value="5" style="ellipse;whiteSpace=wrap;html=1;aspect=fixed;" vertex="1" parent="1">
          <mxGeometry x="420" y="340" width="40" height="40" as="geometry" />
        </mxCell>
        <mxCell id="AtaMCeHDhwVp71-YsUhz-31" value="" style="endArrow=classic;html=1;rounded=0;exitX=0.5;exitY=1;exitDx=0;exitDy=0;entryX=0;entryY=0;entryDx=0;entryDy=0;" edge="1" parent="1" source="AtaMCeHDhwVp71-YsUhz-24" target="AtaMCeHDhwVp71-YsUhz-30">
          <mxGeometry width="50" height="50" relative="1" as="geometry">
            <mxPoint x="710" y="440" as="sourcePoint" />
            <mxPoint x="760" y="390" as="targetPoint" />
          </mxGeometry>
        </mxCell>
        <mxCell id="AtaMCeHDhwVp71-YsUhz-32" value="13" style="ellipse;whiteSpace=wrap;html=1;aspect=fixed;" vertex="1" parent="1">
          <mxGeometry x="460" y="340" width="40" height="40" as="geometry" />
        </mxCell>
        <mxCell id="AtaMCeHDhwVp71-YsUhz-33" value="43" style="ellipse;whiteSpace=wrap;html=1;aspect=fixed;" vertex="1" parent="1">
          <mxGeometry x="530" y="340" width="40" height="40" as="geometry" />
        </mxCell>
        <mxCell id="AtaMCeHDhwVp71-YsUhz-34" value="" style="endArrow=classic;html=1;rounded=0;exitX=0.5;exitY=1;exitDx=0;exitDy=0;entryX=1;entryY=0;entryDx=0;entryDy=0;" edge="1" parent="1" source="AtaMCeHDhwVp71-YsUhz-25" target="AtaMCeHDhwVp71-YsUhz-32">
          <mxGeometry width="50" height="50" relative="1" as="geometry">
            <mxPoint x="710" y="450" as="sourcePoint" />
            <mxPoint x="760" y="400" as="targetPoint" />
          </mxGeometry>
        </mxCell>
        <mxCell id="AtaMCeHDhwVp71-YsUhz-35" value="" style="endArrow=classic;html=1;rounded=0;entryX=0;entryY=0;entryDx=0;entryDy=0;" edge="1" parent="1" target="AtaMCeHDhwVp71-YsUhz-33">
          <mxGeometry width="50" height="50" relative="1" as="geometry">
            <mxPoint x="510" y="300" as="sourcePoint" />
            <mxPoint x="504" y="356" as="targetPoint" />
          </mxGeometry>
        </mxCell>
        <mxCell id="AtaMCeHDhwVp71-YsUhz-36" value="3" style="ellipse;whiteSpace=wrap;html=1;aspect=fixed;" vertex="1" parent="1">
          <mxGeometry x="300" y="410" width="40" height="40" as="geometry" />
        </mxCell>
        <mxCell id="AtaMCeHDhwVp71-YsUhz-37" value="" style="endArrow=classic;html=1;rounded=0;exitX=0.5;exitY=1;exitDx=0;exitDy=0;entryX=1;entryY=0;entryDx=0;entryDy=0;" edge="1" parent="1" source="AtaMCeHDhwVp71-YsUhz-26" target="AtaMCeHDhwVp71-YsUhz-36">
          <mxGeometry width="50" height="50" relative="1" as="geometry">
            <mxPoint x="710" y="460" as="sourcePoint" />
            <mxPoint x="760" y="410" as="targetPoint" />
          </mxGeometry>
        </mxCell>
        <mxCell id="AtaMCeHDhwVp71-YsUhz-38" value="1" style="ellipse;whiteSpace=wrap;html=1;aspect=fixed;" vertex="1" parent="1">
          <mxGeometry x="380" y="410" width="40" height="40" as="geometry" />
        </mxCell>
        <mxCell id="AtaMCeHDhwVp71-YsUhz-39" value="" style="endArrow=classic;html=1;rounded=0;exitX=0.5;exitY=1;exitDx=0;exitDy=0;entryX=0;entryY=0;entryDx=0;entryDy=0;" edge="1" parent="1" source="AtaMCeHDhwVp71-YsUhz-26" target="AtaMCeHDhwVp71-YsUhz-38">
          <mxGeometry width="50" height="50" relative="1" as="geometry">
            <mxPoint x="710" y="460" as="sourcePoint" />
            <mxPoint x="760" y="410" as="targetPoint" />
          </mxGeometry>
        </mxCell>
        <mxCell id="AtaMCeHDhwVp71-YsUhz-40" value="4" style="ellipse;whiteSpace=wrap;html=1;aspect=fixed;fillColor=#d5e8d4;strokeColor=#82b366;" vertex="1" parent="1">
          <mxGeometry x="780" y="200" width="40" height="40" as="geometry" />
        </mxCell>
        <mxCell id="AtaMCeHDhwVp71-YsUhz-41" value="3" style="ellipse;whiteSpace=wrap;html=1;aspect=fixed;fillColor=#d5e8d4;strokeColor=#82b366;" vertex="1" parent="1">
          <mxGeometry x="720" y="260" width="40" height="40" as="geometry" />
        </mxCell>
        <mxCell id="AtaMCeHDhwVp71-YsUhz-42" value="12" style="ellipse;whiteSpace=wrap;html=1;aspect=fixed;" vertex="1" parent="1">
          <mxGeometry x="830" y="260" width="40" height="40" as="geometry" />
        </mxCell>
        <mxCell id="AtaMCeHDhwVp71-YsUhz-43" value="1" style="ellipse;whiteSpace=wrap;html=1;aspect=fixed;fillColor=#d5e8d4;strokeColor=#82b366;" vertex="1" parent="1">
          <mxGeometry x="680" y="340" width="40" height="40" as="geometry" />
        </mxCell>
        <mxCell id="AtaMCeHDhwVp71-YsUhz-44" value="" style="endArrow=classic;html=1;rounded=0;exitX=0.5;exitY=1;exitDx=0;exitDy=0;entryX=0;entryY=0;entryDx=0;entryDy=0;" edge="1" parent="1" source="AtaMCeHDhwVp71-YsUhz-40" target="AtaMCeHDhwVp71-YsUhz-42">
          <mxGeometry width="50" height="50" relative="1" as="geometry">
            <mxPoint x="1050" y="450" as="sourcePoint" />
            <mxPoint x="1100" y="400" as="targetPoint" />
          </mxGeometry>
        </mxCell>
        <mxCell id="AtaMCeHDhwVp71-YsUhz-45" value="" style="endArrow=classic;html=1;rounded=0;exitX=0.5;exitY=1;exitDx=0;exitDy=0;entryX=1;entryY=0;entryDx=0;entryDy=0;" edge="1" parent="1" source="AtaMCeHDhwVp71-YsUhz-40" target="AtaMCeHDhwVp71-YsUhz-41">
          <mxGeometry width="50" height="50" relative="1" as="geometry">
            <mxPoint x="810" y="250" as="sourcePoint" />
            <mxPoint x="846" y="276" as="targetPoint" />
          </mxGeometry>
        </mxCell>
        <mxCell id="AtaMCeHDhwVp71-YsUhz-46" value="" style="endArrow=classic;html=1;rounded=0;exitX=0.5;exitY=1;exitDx=0;exitDy=0;" edge="1" parent="1" source="AtaMCeHDhwVp71-YsUhz-41" target="AtaMCeHDhwVp71-YsUhz-43">
          <mxGeometry width="50" height="50" relative="1" as="geometry">
            <mxPoint x="820" y="260" as="sourcePoint" />
            <mxPoint x="856" y="286" as="targetPoint" />
          </mxGeometry>
        </mxCell>
        <mxCell id="AtaMCeHDhwVp71-YsUhz-47" value="5" style="ellipse;whiteSpace=wrap;html=1;aspect=fixed;" vertex="1" parent="1">
          <mxGeometry x="760" y="340" width="40" height="40" as="geometry" />
        </mxCell>
        <mxCell id="AtaMCeHDhwVp71-YsUhz-48" value="" style="endArrow=classic;html=1;rounded=0;exitX=0.5;exitY=1;exitDx=0;exitDy=0;entryX=0;entryY=0;entryDx=0;entryDy=0;" edge="1" parent="1" source="AtaMCeHDhwVp71-YsUhz-41" target="AtaMCeHDhwVp71-YsUhz-47">
          <mxGeometry width="50" height="50" relative="1" as="geometry">
            <mxPoint x="1050" y="440" as="sourcePoint" />
            <mxPoint x="1100" y="390" as="targetPoint" />
          </mxGeometry>
        </mxCell>
        <mxCell id="AtaMCeHDhwVp71-YsUhz-49" value="13" style="ellipse;whiteSpace=wrap;html=1;aspect=fixed;" vertex="1" parent="1">
          <mxGeometry x="800" y="340" width="40" height="40" as="geometry" />
        </mxCell>
        <mxCell id="AtaMCeHDhwVp71-YsUhz-50" value="43" style="ellipse;whiteSpace=wrap;html=1;aspect=fixed;" vertex="1" parent="1">
          <mxGeometry x="870" y="340" width="40" height="40" as="geometry" />
        </mxCell>
        <mxCell id="AtaMCeHDhwVp71-YsUhz-51" value="" style="endArrow=classic;html=1;rounded=0;exitX=0.5;exitY=1;exitDx=0;exitDy=0;entryX=1;entryY=0;entryDx=0;entryDy=0;" edge="1" parent="1" source="AtaMCeHDhwVp71-YsUhz-42" target="AtaMCeHDhwVp71-YsUhz-49">
          <mxGeometry width="50" height="50" relative="1" as="geometry">
            <mxPoint x="1050" y="450" as="sourcePoint" />
            <mxPoint x="1100" y="400" as="targetPoint" />
          </mxGeometry>
        </mxCell>
        <mxCell id="AtaMCeHDhwVp71-YsUhz-52" value="" style="endArrow=classic;html=1;rounded=0;entryX=0;entryY=0;entryDx=0;entryDy=0;" edge="1" parent="1" target="AtaMCeHDhwVp71-YsUhz-50">
          <mxGeometry width="50" height="50" relative="1" as="geometry">
            <mxPoint x="850" y="300" as="sourcePoint" />
            <mxPoint x="844" y="356" as="targetPoint" />
          </mxGeometry>
        </mxCell>
        <mxCell id="AtaMCeHDhwVp71-YsUhz-53" value="3" style="ellipse;whiteSpace=wrap;html=1;aspect=fixed;" vertex="1" parent="1">
          <mxGeometry x="640" y="410" width="40" height="40" as="geometry" />
        </mxCell>
        <mxCell id="AtaMCeHDhwVp71-YsUhz-54" value="" style="endArrow=classic;html=1;rounded=0;exitX=0.5;exitY=1;exitDx=0;exitDy=0;entryX=1;entryY=0;entryDx=0;entryDy=0;" edge="1" parent="1" source="AtaMCeHDhwVp71-YsUhz-43" target="AtaMCeHDhwVp71-YsUhz-53">
          <mxGeometry width="50" height="50" relative="1" as="geometry">
            <mxPoint x="1050" y="460" as="sourcePoint" />
            <mxPoint x="1100" y="410" as="targetPoint" />
          </mxGeometry>
        </mxCell>
        <mxCell id="AtaMCeHDhwVp71-YsUhz-55" value="1" style="ellipse;whiteSpace=wrap;html=1;aspect=fixed;" vertex="1" parent="1">
          <mxGeometry x="720" y="410" width="40" height="40" as="geometry" />
        </mxCell>
        <mxCell id="AtaMCeHDhwVp71-YsUhz-56" value="" style="endArrow=classic;html=1;rounded=0;exitX=0.5;exitY=1;exitDx=0;exitDy=0;entryX=0;entryY=0;entryDx=0;entryDy=0;" edge="1" parent="1" source="AtaMCeHDhwVp71-YsUhz-43" target="AtaMCeHDhwVp71-YsUhz-55">
          <mxGeometry width="50" height="50" relative="1" as="geometry">
            <mxPoint x="1050" y="460" as="sourcePoint" />
            <mxPoint x="1100" y="410" as="targetPoint" />
          </mxGeometry>
        </mxCell>
        <mxCell id="AtaMCeHDhwVp71-YsUhz-57" value="4" style="ellipse;whiteSpace=wrap;html=1;aspect=fixed;fillColor=#d5e8d4;strokeColor=#82b366;" vertex="1" parent="1">
          <mxGeometry x="120" y="500" width="40" height="40" as="geometry" />
        </mxCell>
        <mxCell id="AtaMCeHDhwVp71-YsUhz-58" value="3" style="ellipse;whiteSpace=wrap;html=1;aspect=fixed;fillColor=#d5e8d4;strokeColor=#82b366;" vertex="1" parent="1">
          <mxGeometry x="60" y="560" width="40" height="40" as="geometry" />
        </mxCell>
        <mxCell id="AtaMCeHDhwVp71-YsUhz-59" value="12" style="ellipse;whiteSpace=wrap;html=1;aspect=fixed;" vertex="1" parent="1">
          <mxGeometry x="170" y="560" width="40" height="40" as="geometry" />
        </mxCell>
        <mxCell id="AtaMCeHDhwVp71-YsUhz-60" value="1" style="ellipse;whiteSpace=wrap;html=1;aspect=fixed;fillColor=#d5e8d4;strokeColor=#82b366;" vertex="1" parent="1">
          <mxGeometry x="20" y="640" width="40" height="40" as="geometry" />
        </mxCell>
        <mxCell id="AtaMCeHDhwVp71-YsUhz-61" value="" style="endArrow=classic;html=1;rounded=0;exitX=0.5;exitY=1;exitDx=0;exitDy=0;entryX=0;entryY=0;entryDx=0;entryDy=0;" edge="1" parent="1" source="AtaMCeHDhwVp71-YsUhz-57" target="AtaMCeHDhwVp71-YsUhz-59">
          <mxGeometry width="50" height="50" relative="1" as="geometry">
            <mxPoint x="390" y="750" as="sourcePoint" />
            <mxPoint x="440" y="700" as="targetPoint" />
          </mxGeometry>
        </mxCell>
        <mxCell id="AtaMCeHDhwVp71-YsUhz-62" value="" style="endArrow=classic;html=1;rounded=0;exitX=0.5;exitY=1;exitDx=0;exitDy=0;entryX=1;entryY=0;entryDx=0;entryDy=0;" edge="1" parent="1" source="AtaMCeHDhwVp71-YsUhz-57" target="AtaMCeHDhwVp71-YsUhz-58">
          <mxGeometry width="50" height="50" relative="1" as="geometry">
            <mxPoint x="150" y="550" as="sourcePoint" />
            <mxPoint x="186" y="576" as="targetPoint" />
          </mxGeometry>
        </mxCell>
        <mxCell id="AtaMCeHDhwVp71-YsUhz-63" value="" style="endArrow=classic;html=1;rounded=0;exitX=0.5;exitY=1;exitDx=0;exitDy=0;" edge="1" parent="1" source="AtaMCeHDhwVp71-YsUhz-58" target="AtaMCeHDhwVp71-YsUhz-60">
          <mxGeometry width="50" height="50" relative="1" as="geometry">
            <mxPoint x="160" y="560" as="sourcePoint" />
            <mxPoint x="196" y="586" as="targetPoint" />
          </mxGeometry>
        </mxCell>
        <mxCell id="AtaMCeHDhwVp71-YsUhz-64" value="5" style="ellipse;whiteSpace=wrap;html=1;aspect=fixed;" vertex="1" parent="1">
          <mxGeometry x="100" y="640" width="40" height="40" as="geometry" />
        </mxCell>
        <mxCell id="AtaMCeHDhwVp71-YsUhz-65" value="" style="endArrow=classic;html=1;rounded=0;exitX=0.5;exitY=1;exitDx=0;exitDy=0;entryX=0;entryY=0;entryDx=0;entryDy=0;" edge="1" parent="1" source="AtaMCeHDhwVp71-YsUhz-58" target="AtaMCeHDhwVp71-YsUhz-64">
          <mxGeometry width="50" height="50" relative="1" as="geometry">
            <mxPoint x="390" y="740" as="sourcePoint" />
            <mxPoint x="440" y="690" as="targetPoint" />
          </mxGeometry>
        </mxCell>
        <mxCell id="AtaMCeHDhwVp71-YsUhz-66" value="13" style="ellipse;whiteSpace=wrap;html=1;aspect=fixed;" vertex="1" parent="1">
          <mxGeometry x="140" y="640" width="40" height="40" as="geometry" />
        </mxCell>
        <mxCell id="AtaMCeHDhwVp71-YsUhz-67" value="43" style="ellipse;whiteSpace=wrap;html=1;aspect=fixed;" vertex="1" parent="1">
          <mxGeometry x="210" y="640" width="40" height="40" as="geometry" />
        </mxCell>
        <mxCell id="AtaMCeHDhwVp71-YsUhz-68" value="" style="endArrow=classic;html=1;rounded=0;exitX=0.5;exitY=1;exitDx=0;exitDy=0;entryX=1;entryY=0;entryDx=0;entryDy=0;" edge="1" parent="1" source="AtaMCeHDhwVp71-YsUhz-59" target="AtaMCeHDhwVp71-YsUhz-66">
          <mxGeometry width="50" height="50" relative="1" as="geometry">
            <mxPoint x="390" y="750" as="sourcePoint" />
            <mxPoint x="440" y="700" as="targetPoint" />
          </mxGeometry>
        </mxCell>
        <mxCell id="AtaMCeHDhwVp71-YsUhz-69" value="" style="endArrow=classic;html=1;rounded=0;entryX=0;entryY=0;entryDx=0;entryDy=0;" edge="1" parent="1" target="AtaMCeHDhwVp71-YsUhz-67">
          <mxGeometry width="50" height="50" relative="1" as="geometry">
            <mxPoint x="190" y="600" as="sourcePoint" />
            <mxPoint x="184" y="656" as="targetPoint" />
          </mxGeometry>
        </mxCell>
        <mxCell id="AtaMCeHDhwVp71-YsUhz-70" value="3" style="ellipse;whiteSpace=wrap;html=1;aspect=fixed;fillColor=#d5e8d4;strokeColor=#82b366;" vertex="1" parent="1">
          <mxGeometry x="-20" y="710" width="40" height="40" as="geometry" />
        </mxCell>
        <mxCell id="AtaMCeHDhwVp71-YsUhz-71" value="" style="endArrow=classic;html=1;rounded=0;exitX=0.5;exitY=1;exitDx=0;exitDy=0;entryX=1;entryY=0;entryDx=0;entryDy=0;" edge="1" parent="1" source="AtaMCeHDhwVp71-YsUhz-60" target="AtaMCeHDhwVp71-YsUhz-70">
          <mxGeometry width="50" height="50" relative="1" as="geometry">
            <mxPoint x="390" y="760" as="sourcePoint" />
            <mxPoint x="440" y="710" as="targetPoint" />
          </mxGeometry>
        </mxCell>
        <mxCell id="AtaMCeHDhwVp71-YsUhz-72" value="1" style="ellipse;whiteSpace=wrap;html=1;aspect=fixed;" vertex="1" parent="1">
          <mxGeometry x="60" y="710" width="40" height="40" as="geometry" />
        </mxCell>
        <mxCell id="AtaMCeHDhwVp71-YsUhz-73" value="" style="endArrow=classic;html=1;rounded=0;exitX=0.5;exitY=1;exitDx=0;exitDy=0;entryX=0;entryY=0;entryDx=0;entryDy=0;" edge="1" parent="1" source="AtaMCeHDhwVp71-YsUhz-60" target="AtaMCeHDhwVp71-YsUhz-72">
          <mxGeometry width="50" height="50" relative="1" as="geometry">
            <mxPoint x="390" y="760" as="sourcePoint" />
            <mxPoint x="440" y="710" as="targetPoint" />
          </mxGeometry>
        </mxCell>
        <mxCell id="AtaMCeHDhwVp71-YsUhz-74" value="4" style="ellipse;whiteSpace=wrap;html=1;aspect=fixed;fillColor=#d5e8d4;strokeColor=#82b366;" vertex="1" parent="1">
          <mxGeometry x="460" y="500" width="40" height="40" as="geometry" />
        </mxCell>
        <mxCell id="AtaMCeHDhwVp71-YsUhz-75" value="3" style="ellipse;whiteSpace=wrap;html=1;aspect=fixed;fillColor=#d5e8d4;strokeColor=#82b366;" vertex="1" parent="1">
          <mxGeometry x="400" y="560" width="40" height="40" as="geometry" />
        </mxCell>
        <mxCell id="AtaMCeHDhwVp71-YsUhz-76" value="12" style="ellipse;whiteSpace=wrap;html=1;aspect=fixed;" vertex="1" parent="1">
          <mxGeometry x="510" y="560" width="40" height="40" as="geometry" />
        </mxCell>
        <mxCell id="AtaMCeHDhwVp71-YsUhz-77" value="1" style="ellipse;whiteSpace=wrap;html=1;aspect=fixed;fillColor=#d5e8d4;strokeColor=#82b366;" vertex="1" parent="1">
          <mxGeometry x="360" y="640" width="40" height="40" as="geometry" />
        </mxCell>
        <mxCell id="AtaMCeHDhwVp71-YsUhz-78" value="" style="endArrow=classic;html=1;rounded=0;exitX=0.5;exitY=1;exitDx=0;exitDy=0;entryX=0;entryY=0;entryDx=0;entryDy=0;" edge="1" parent="1" source="AtaMCeHDhwVp71-YsUhz-74" target="AtaMCeHDhwVp71-YsUhz-76">
          <mxGeometry width="50" height="50" relative="1" as="geometry">
            <mxPoint x="730" y="750" as="sourcePoint" />
            <mxPoint x="780" y="700" as="targetPoint" />
          </mxGeometry>
        </mxCell>
        <mxCell id="AtaMCeHDhwVp71-YsUhz-79" value="" style="endArrow=classic;html=1;rounded=0;exitX=0.5;exitY=1;exitDx=0;exitDy=0;entryX=1;entryY=0;entryDx=0;entryDy=0;" edge="1" parent="1" source="AtaMCeHDhwVp71-YsUhz-74" target="AtaMCeHDhwVp71-YsUhz-75">
          <mxGeometry width="50" height="50" relative="1" as="geometry">
            <mxPoint x="490" y="550" as="sourcePoint" />
            <mxPoint x="526" y="576" as="targetPoint" />
          </mxGeometry>
        </mxCell>
        <mxCell id="AtaMCeHDhwVp71-YsUhz-80" value="" style="endArrow=classic;html=1;rounded=0;exitX=0.5;exitY=1;exitDx=0;exitDy=0;" edge="1" parent="1" source="AtaMCeHDhwVp71-YsUhz-75" target="AtaMCeHDhwVp71-YsUhz-77">
          <mxGeometry width="50" height="50" relative="1" as="geometry">
            <mxPoint x="500" y="560" as="sourcePoint" />
            <mxPoint x="536" y="586" as="targetPoint" />
          </mxGeometry>
        </mxCell>
        <mxCell id="AtaMCeHDhwVp71-YsUhz-81" value="5" style="ellipse;whiteSpace=wrap;html=1;aspect=fixed;" vertex="1" parent="1">
          <mxGeometry x="440" y="640" width="40" height="40" as="geometry" />
        </mxCell>
        <mxCell id="AtaMCeHDhwVp71-YsUhz-82" value="" style="endArrow=classic;html=1;rounded=0;exitX=0.5;exitY=1;exitDx=0;exitDy=0;entryX=0;entryY=0;entryDx=0;entryDy=0;" edge="1" parent="1" source="AtaMCeHDhwVp71-YsUhz-75" target="AtaMCeHDhwVp71-YsUhz-81">
          <mxGeometry width="50" height="50" relative="1" as="geometry">
            <mxPoint x="730" y="740" as="sourcePoint" />
            <mxPoint x="780" y="690" as="targetPoint" />
          </mxGeometry>
        </mxCell>
        <mxCell id="AtaMCeHDhwVp71-YsUhz-83" value="13" style="ellipse;whiteSpace=wrap;html=1;aspect=fixed;" vertex="1" parent="1">
          <mxGeometry x="480" y="640" width="40" height="40" as="geometry" />
        </mxCell>
        <mxCell id="AtaMCeHDhwVp71-YsUhz-84" value="43" style="ellipse;whiteSpace=wrap;html=1;aspect=fixed;" vertex="1" parent="1">
          <mxGeometry x="550" y="640" width="40" height="40" as="geometry" />
        </mxCell>
        <mxCell id="AtaMCeHDhwVp71-YsUhz-85" value="" style="endArrow=classic;html=1;rounded=0;exitX=0.5;exitY=1;exitDx=0;exitDy=0;entryX=1;entryY=0;entryDx=0;entryDy=0;" edge="1" parent="1" source="AtaMCeHDhwVp71-YsUhz-76" target="AtaMCeHDhwVp71-YsUhz-83">
          <mxGeometry width="50" height="50" relative="1" as="geometry">
            <mxPoint x="730" y="750" as="sourcePoint" />
            <mxPoint x="780" y="700" as="targetPoint" />
          </mxGeometry>
        </mxCell>
        <mxCell id="AtaMCeHDhwVp71-YsUhz-86" value="" style="endArrow=classic;html=1;rounded=0;entryX=0;entryY=0;entryDx=0;entryDy=0;" edge="1" parent="1" target="AtaMCeHDhwVp71-YsUhz-84">
          <mxGeometry width="50" height="50" relative="1" as="geometry">
            <mxPoint x="530" y="600" as="sourcePoint" />
            <mxPoint x="524" y="656" as="targetPoint" />
          </mxGeometry>
        </mxCell>
        <mxCell id="AtaMCeHDhwVp71-YsUhz-87" value="3" style="ellipse;whiteSpace=wrap;html=1;aspect=fixed;fillColor=#d5e8d4;strokeColor=#82b366;" vertex="1" parent="1">
          <mxGeometry x="320" y="710" width="40" height="40" as="geometry" />
        </mxCell>
        <mxCell id="AtaMCeHDhwVp71-YsUhz-88" value="" style="endArrow=classic;html=1;rounded=0;exitX=0.5;exitY=1;exitDx=0;exitDy=0;entryX=1;entryY=0;entryDx=0;entryDy=0;" edge="1" parent="1" source="AtaMCeHDhwVp71-YsUhz-77" target="AtaMCeHDhwVp71-YsUhz-87">
          <mxGeometry width="50" height="50" relative="1" as="geometry">
            <mxPoint x="730" y="760" as="sourcePoint" />
            <mxPoint x="780" y="710" as="targetPoint" />
          </mxGeometry>
        </mxCell>
        <mxCell id="AtaMCeHDhwVp71-YsUhz-89" value="1" style="ellipse;whiteSpace=wrap;html=1;aspect=fixed;fillColor=#d5e8d4;strokeColor=#82b366;" vertex="1" parent="1">
          <mxGeometry x="400" y="710" width="40" height="40" as="geometry" />
        </mxCell>
        <mxCell id="AtaMCeHDhwVp71-YsUhz-90" value="" style="endArrow=classic;html=1;rounded=0;exitX=0.5;exitY=1;exitDx=0;exitDy=0;entryX=0;entryY=0;entryDx=0;entryDy=0;" edge="1" parent="1" source="AtaMCeHDhwVp71-YsUhz-77" target="AtaMCeHDhwVp71-YsUhz-89">
          <mxGeometry width="50" height="50" relative="1" as="geometry">
            <mxPoint x="730" y="760" as="sourcePoint" />
            <mxPoint x="780" y="710" as="targetPoint" />
          </mxGeometry>
        </mxCell>
        <mxCell id="AtaMCeHDhwVp71-YsUhz-91" value="4" style="ellipse;whiteSpace=wrap;html=1;aspect=fixed;fillColor=#d5e8d4;strokeColor=#82b366;" vertex="1" parent="1">
          <mxGeometry x="800" y="500" width="40" height="40" as="geometry" />
        </mxCell>
        <mxCell id="AtaMCeHDhwVp71-YsUhz-92" value="3" style="ellipse;whiteSpace=wrap;html=1;aspect=fixed;fillColor=#d5e8d4;strokeColor=#82b366;" vertex="1" parent="1">
          <mxGeometry x="740" y="560" width="40" height="40" as="geometry" />
        </mxCell>
        <mxCell id="AtaMCeHDhwVp71-YsUhz-93" value="12" style="ellipse;whiteSpace=wrap;html=1;aspect=fixed;" vertex="1" parent="1">
          <mxGeometry x="850" y="560" width="40" height="40" as="geometry" />
        </mxCell>
        <mxCell id="AtaMCeHDhwVp71-YsUhz-94" value="1" style="ellipse;whiteSpace=wrap;html=1;aspect=fixed;fillColor=#d5e8d4;strokeColor=#82b366;" vertex="1" parent="1">
          <mxGeometry x="700" y="640" width="40" height="40" as="geometry" />
        </mxCell>
        <mxCell id="AtaMCeHDhwVp71-YsUhz-95" value="" style="endArrow=classic;html=1;rounded=0;exitX=0.5;exitY=1;exitDx=0;exitDy=0;entryX=0;entryY=0;entryDx=0;entryDy=0;" edge="1" parent="1" source="AtaMCeHDhwVp71-YsUhz-91" target="AtaMCeHDhwVp71-YsUhz-93">
          <mxGeometry width="50" height="50" relative="1" as="geometry">
            <mxPoint x="1070" y="750" as="sourcePoint" />
            <mxPoint x="1120" y="700" as="targetPoint" />
          </mxGeometry>
        </mxCell>
        <mxCell id="AtaMCeHDhwVp71-YsUhz-96" value="" style="endArrow=classic;html=1;rounded=0;exitX=0.5;exitY=1;exitDx=0;exitDy=0;entryX=1;entryY=0;entryDx=0;entryDy=0;" edge="1" parent="1" source="AtaMCeHDhwVp71-YsUhz-91" target="AtaMCeHDhwVp71-YsUhz-92">
          <mxGeometry width="50" height="50" relative="1" as="geometry">
            <mxPoint x="830" y="550" as="sourcePoint" />
            <mxPoint x="866" y="576" as="targetPoint" />
          </mxGeometry>
        </mxCell>
        <mxCell id="AtaMCeHDhwVp71-YsUhz-97" value="" style="endArrow=classic;html=1;rounded=0;exitX=0.5;exitY=1;exitDx=0;exitDy=0;" edge="1" parent="1" source="AtaMCeHDhwVp71-YsUhz-92" target="AtaMCeHDhwVp71-YsUhz-94">
          <mxGeometry width="50" height="50" relative="1" as="geometry">
            <mxPoint x="840" y="560" as="sourcePoint" />
            <mxPoint x="876" y="586" as="targetPoint" />
          </mxGeometry>
        </mxCell>
        <mxCell id="AtaMCeHDhwVp71-YsUhz-98" value="5" style="ellipse;whiteSpace=wrap;html=1;aspect=fixed;fillColor=#d5e8d4;strokeColor=#82b366;" vertex="1" parent="1">
          <mxGeometry x="780" y="640" width="40" height="40" as="geometry" />
        </mxCell>
        <mxCell id="AtaMCeHDhwVp71-YsUhz-99" value="" style="endArrow=classic;html=1;rounded=0;exitX=0.5;exitY=1;exitDx=0;exitDy=0;entryX=0;entryY=0;entryDx=0;entryDy=0;" edge="1" parent="1" source="AtaMCeHDhwVp71-YsUhz-92" target="AtaMCeHDhwVp71-YsUhz-98">
          <mxGeometry width="50" height="50" relative="1" as="geometry">
            <mxPoint x="1070" y="740" as="sourcePoint" />
            <mxPoint x="1120" y="690" as="targetPoint" />
          </mxGeometry>
        </mxCell>
        <mxCell id="AtaMCeHDhwVp71-YsUhz-100" value="13" style="ellipse;whiteSpace=wrap;html=1;aspect=fixed;" vertex="1" parent="1">
          <mxGeometry x="820" y="640" width="40" height="40" as="geometry" />
        </mxCell>
        <mxCell id="AtaMCeHDhwVp71-YsUhz-101" value="43" style="ellipse;whiteSpace=wrap;html=1;aspect=fixed;" vertex="1" parent="1">
          <mxGeometry x="890" y="640" width="40" height="40" as="geometry" />
        </mxCell>
        <mxCell id="AtaMCeHDhwVp71-YsUhz-102" value="" style="endArrow=classic;html=1;rounded=0;exitX=0.5;exitY=1;exitDx=0;exitDy=0;entryX=1;entryY=0;entryDx=0;entryDy=0;" edge="1" parent="1" source="AtaMCeHDhwVp71-YsUhz-93" target="AtaMCeHDhwVp71-YsUhz-100">
          <mxGeometry width="50" height="50" relative="1" as="geometry">
            <mxPoint x="1070" y="750" as="sourcePoint" />
            <mxPoint x="1120" y="700" as="targetPoint" />
          </mxGeometry>
        </mxCell>
        <mxCell id="AtaMCeHDhwVp71-YsUhz-103" value="" style="endArrow=classic;html=1;rounded=0;entryX=0;entryY=0;entryDx=0;entryDy=0;" edge="1" parent="1" target="AtaMCeHDhwVp71-YsUhz-101">
          <mxGeometry width="50" height="50" relative="1" as="geometry">
            <mxPoint x="870" y="600" as="sourcePoint" />
            <mxPoint x="864" y="656" as="targetPoint" />
          </mxGeometry>
        </mxCell>
        <mxCell id="AtaMCeHDhwVp71-YsUhz-104" value="3" style="ellipse;whiteSpace=wrap;html=1;aspect=fixed;fillColor=#d5e8d4;strokeColor=#82b366;" vertex="1" parent="1">
          <mxGeometry x="660" y="710" width="40" height="40" as="geometry" />
        </mxCell>
        <mxCell id="AtaMCeHDhwVp71-YsUhz-105" value="" style="endArrow=classic;html=1;rounded=0;exitX=0.5;exitY=1;exitDx=0;exitDy=0;entryX=1;entryY=0;entryDx=0;entryDy=0;" edge="1" parent="1" source="AtaMCeHDhwVp71-YsUhz-94" target="AtaMCeHDhwVp71-YsUhz-104">
          <mxGeometry width="50" height="50" relative="1" as="geometry">
            <mxPoint x="1070" y="760" as="sourcePoint" />
            <mxPoint x="1120" y="710" as="targetPoint" />
          </mxGeometry>
        </mxCell>
        <mxCell id="AtaMCeHDhwVp71-YsUhz-106" value="1" style="ellipse;whiteSpace=wrap;html=1;aspect=fixed;fillColor=#d5e8d4;strokeColor=#82b366;" vertex="1" parent="1">
          <mxGeometry x="740" y="710" width="40" height="40" as="geometry" />
        </mxCell>
        <mxCell id="AtaMCeHDhwVp71-YsUhz-107" value="" style="endArrow=classic;html=1;rounded=0;exitX=0.5;exitY=1;exitDx=0;exitDy=0;entryX=0;entryY=0;entryDx=0;entryDy=0;" edge="1" parent="1" source="AtaMCeHDhwVp71-YsUhz-94" target="AtaMCeHDhwVp71-YsUhz-106">
          <mxGeometry width="50" height="50" relative="1" as="geometry">
            <mxPoint x="1070" y="760" as="sourcePoint" />
            <mxPoint x="1120" y="710" as="targetPoint" />
          </mxGeometry>
        </mxCell>
        <mxCell id="AtaMCeHDhwVp71-YsUhz-108" value="4" style="ellipse;whiteSpace=wrap;html=1;aspect=fixed;fillColor=#d5e8d4;strokeColor=#82b366;" vertex="1" parent="1">
          <mxGeometry x="120" y="820" width="40" height="40" as="geometry" />
        </mxCell>
        <mxCell id="AtaMCeHDhwVp71-YsUhz-109" value="3" style="ellipse;whiteSpace=wrap;html=1;aspect=fixed;fillColor=#d5e8d4;strokeColor=#82b366;" vertex="1" parent="1">
          <mxGeometry x="60" y="880" width="40" height="40" as="geometry" />
        </mxCell>
        <mxCell id="AtaMCeHDhwVp71-YsUhz-110" value="12" style="ellipse;whiteSpace=wrap;html=1;aspect=fixed;fillColor=#d5e8d4;strokeColor=#82b366;" vertex="1" parent="1">
          <mxGeometry x="170" y="880" width="40" height="40" as="geometry" />
        </mxCell>
        <mxCell id="AtaMCeHDhwVp71-YsUhz-111" value="1" style="ellipse;whiteSpace=wrap;html=1;aspect=fixed;fillColor=#d5e8d4;strokeColor=#82b366;" vertex="1" parent="1">
          <mxGeometry x="20" y="960" width="40" height="40" as="geometry" />
        </mxCell>
        <mxCell id="AtaMCeHDhwVp71-YsUhz-112" value="" style="endArrow=classic;html=1;rounded=0;exitX=0.5;exitY=1;exitDx=0;exitDy=0;entryX=0;entryY=0;entryDx=0;entryDy=0;" edge="1" parent="1" source="AtaMCeHDhwVp71-YsUhz-108" target="AtaMCeHDhwVp71-YsUhz-110">
          <mxGeometry width="50" height="50" relative="1" as="geometry">
            <mxPoint x="390" y="1070" as="sourcePoint" />
            <mxPoint x="440" y="1020" as="targetPoint" />
          </mxGeometry>
        </mxCell>
        <mxCell id="AtaMCeHDhwVp71-YsUhz-113" value="" style="endArrow=classic;html=1;rounded=0;exitX=0.5;exitY=1;exitDx=0;exitDy=0;entryX=1;entryY=0;entryDx=0;entryDy=0;" edge="1" parent="1" source="AtaMCeHDhwVp71-YsUhz-108" target="AtaMCeHDhwVp71-YsUhz-109">
          <mxGeometry width="50" height="50" relative="1" as="geometry">
            <mxPoint x="150" y="870" as="sourcePoint" />
            <mxPoint x="186" y="896" as="targetPoint" />
          </mxGeometry>
        </mxCell>
        <mxCell id="AtaMCeHDhwVp71-YsUhz-114" value="" style="endArrow=classic;html=1;rounded=0;exitX=0.5;exitY=1;exitDx=0;exitDy=0;" edge="1" parent="1" source="AtaMCeHDhwVp71-YsUhz-109" target="AtaMCeHDhwVp71-YsUhz-111">
          <mxGeometry width="50" height="50" relative="1" as="geometry">
            <mxPoint x="160" y="880" as="sourcePoint" />
            <mxPoint x="196" y="906" as="targetPoint" />
          </mxGeometry>
        </mxCell>
        <mxCell id="AtaMCeHDhwVp71-YsUhz-115" value="5" style="ellipse;whiteSpace=wrap;html=1;aspect=fixed;fillColor=#d5e8d4;strokeColor=#82b366;" vertex="1" parent="1">
          <mxGeometry x="100" y="960" width="40" height="40" as="geometry" />
        </mxCell>
        <mxCell id="AtaMCeHDhwVp71-YsUhz-116" value="" style="endArrow=classic;html=1;rounded=0;exitX=0.5;exitY=1;exitDx=0;exitDy=0;entryX=0;entryY=0;entryDx=0;entryDy=0;" edge="1" parent="1" source="AtaMCeHDhwVp71-YsUhz-109" target="AtaMCeHDhwVp71-YsUhz-115">
          <mxGeometry width="50" height="50" relative="1" as="geometry">
            <mxPoint x="390" y="1060" as="sourcePoint" />
            <mxPoint x="440" y="1010" as="targetPoint" />
          </mxGeometry>
        </mxCell>
        <mxCell id="AtaMCeHDhwVp71-YsUhz-117" value="13" style="ellipse;whiteSpace=wrap;html=1;aspect=fixed;" vertex="1" parent="1">
          <mxGeometry x="140" y="960" width="40" height="40" as="geometry" />
        </mxCell>
        <mxCell id="AtaMCeHDhwVp71-YsUhz-118" value="43" style="ellipse;whiteSpace=wrap;html=1;aspect=fixed;" vertex="1" parent="1">
          <mxGeometry x="210" y="960" width="40" height="40" as="geometry" />
        </mxCell>
        <mxCell id="AtaMCeHDhwVp71-YsUhz-119" value="" style="endArrow=classic;html=1;rounded=0;exitX=0.5;exitY=1;exitDx=0;exitDy=0;entryX=1;entryY=0;entryDx=0;entryDy=0;" edge="1" parent="1" source="AtaMCeHDhwVp71-YsUhz-110" target="AtaMCeHDhwVp71-YsUhz-117">
          <mxGeometry width="50" height="50" relative="1" as="geometry">
            <mxPoint x="390" y="1070" as="sourcePoint" />
            <mxPoint x="440" y="1020" as="targetPoint" />
          </mxGeometry>
        </mxCell>
        <mxCell id="AtaMCeHDhwVp71-YsUhz-120" value="" style="endArrow=classic;html=1;rounded=0;entryX=0;entryY=0;entryDx=0;entryDy=0;" edge="1" parent="1" target="AtaMCeHDhwVp71-YsUhz-118">
          <mxGeometry width="50" height="50" relative="1" as="geometry">
            <mxPoint x="190" y="920" as="sourcePoint" />
            <mxPoint x="184" y="976" as="targetPoint" />
          </mxGeometry>
        </mxCell>
        <mxCell id="AtaMCeHDhwVp71-YsUhz-121" value="3" style="ellipse;whiteSpace=wrap;html=1;aspect=fixed;fillColor=#d5e8d4;strokeColor=#82b366;" vertex="1" parent="1">
          <mxGeometry x="-20" y="1030" width="40" height="40" as="geometry" />
        </mxCell>
        <mxCell id="AtaMCeHDhwVp71-YsUhz-122" value="" style="endArrow=classic;html=1;rounded=0;exitX=0.5;exitY=1;exitDx=0;exitDy=0;entryX=1;entryY=0;entryDx=0;entryDy=0;" edge="1" parent="1" source="AtaMCeHDhwVp71-YsUhz-111" target="AtaMCeHDhwVp71-YsUhz-121">
          <mxGeometry width="50" height="50" relative="1" as="geometry">
            <mxPoint x="390" y="1080" as="sourcePoint" />
            <mxPoint x="440" y="1030" as="targetPoint" />
          </mxGeometry>
        </mxCell>
        <mxCell id="AtaMCeHDhwVp71-YsUhz-123" value="1" style="ellipse;whiteSpace=wrap;html=1;aspect=fixed;fillColor=#d5e8d4;strokeColor=#82b366;" vertex="1" parent="1">
          <mxGeometry x="60" y="1030" width="40" height="40" as="geometry" />
        </mxCell>
        <mxCell id="AtaMCeHDhwVp71-YsUhz-124" value="" style="endArrow=classic;html=1;rounded=0;exitX=0.5;exitY=1;exitDx=0;exitDy=0;entryX=0;entryY=0;entryDx=0;entryDy=0;" edge="1" parent="1" source="AtaMCeHDhwVp71-YsUhz-111" target="AtaMCeHDhwVp71-YsUhz-123">
          <mxGeometry width="50" height="50" relative="1" as="geometry">
            <mxPoint x="390" y="1080" as="sourcePoint" />
            <mxPoint x="440" y="1030" as="targetPoint" />
          </mxGeometry>
        </mxCell>
        <mxCell id="AtaMCeHDhwVp71-YsUhz-125" value="4" style="ellipse;whiteSpace=wrap;html=1;aspect=fixed;fillColor=#d5e8d4;strokeColor=#82b366;" vertex="1" parent="1">
          <mxGeometry x="460" y="820" width="40" height="40" as="geometry" />
        </mxCell>
        <mxCell id="AtaMCeHDhwVp71-YsUhz-126" value="3" style="ellipse;whiteSpace=wrap;html=1;aspect=fixed;fillColor=#d5e8d4;strokeColor=#82b366;" vertex="1" parent="1">
          <mxGeometry x="400" y="880" width="40" height="40" as="geometry" />
        </mxCell>
        <mxCell id="AtaMCeHDhwVp71-YsUhz-127" value="12" style="ellipse;whiteSpace=wrap;html=1;aspect=fixed;fillColor=#d5e8d4;strokeColor=#82b366;" vertex="1" parent="1">
          <mxGeometry x="510" y="880" width="40" height="40" as="geometry" />
        </mxCell>
        <mxCell id="AtaMCeHDhwVp71-YsUhz-128" value="1" style="ellipse;whiteSpace=wrap;html=1;aspect=fixed;fillColor=#d5e8d4;strokeColor=#82b366;" vertex="1" parent="1">
          <mxGeometry x="360" y="960" width="40" height="40" as="geometry" />
        </mxCell>
        <mxCell id="AtaMCeHDhwVp71-YsUhz-129" value="" style="endArrow=classic;html=1;rounded=0;exitX=0.5;exitY=1;exitDx=0;exitDy=0;entryX=0;entryY=0;entryDx=0;entryDy=0;" edge="1" parent="1" source="AtaMCeHDhwVp71-YsUhz-125" target="AtaMCeHDhwVp71-YsUhz-127">
          <mxGeometry width="50" height="50" relative="1" as="geometry">
            <mxPoint x="730" y="1070" as="sourcePoint" />
            <mxPoint x="780" y="1020" as="targetPoint" />
          </mxGeometry>
        </mxCell>
        <mxCell id="AtaMCeHDhwVp71-YsUhz-130" value="" style="endArrow=classic;html=1;rounded=0;exitX=0.5;exitY=1;exitDx=0;exitDy=0;entryX=1;entryY=0;entryDx=0;entryDy=0;" edge="1" parent="1" source="AtaMCeHDhwVp71-YsUhz-125" target="AtaMCeHDhwVp71-YsUhz-126">
          <mxGeometry width="50" height="50" relative="1" as="geometry">
            <mxPoint x="490" y="870" as="sourcePoint" />
            <mxPoint x="526" y="896" as="targetPoint" />
          </mxGeometry>
        </mxCell>
        <mxCell id="AtaMCeHDhwVp71-YsUhz-131" value="" style="endArrow=classic;html=1;rounded=0;exitX=0.5;exitY=1;exitDx=0;exitDy=0;" edge="1" parent="1" source="AtaMCeHDhwVp71-YsUhz-126" target="AtaMCeHDhwVp71-YsUhz-128">
          <mxGeometry width="50" height="50" relative="1" as="geometry">
            <mxPoint x="500" y="880" as="sourcePoint" />
            <mxPoint x="536" y="906" as="targetPoint" />
          </mxGeometry>
        </mxCell>
        <mxCell id="AtaMCeHDhwVp71-YsUhz-132" value="5" style="ellipse;whiteSpace=wrap;html=1;aspect=fixed;fillColor=#d5e8d4;strokeColor=#82b366;" vertex="1" parent="1">
          <mxGeometry x="440" y="960" width="40" height="40" as="geometry" />
        </mxCell>
        <mxCell id="AtaMCeHDhwVp71-YsUhz-133" value="" style="endArrow=classic;html=1;rounded=0;exitX=0.5;exitY=1;exitDx=0;exitDy=0;entryX=0;entryY=0;entryDx=0;entryDy=0;" edge="1" parent="1" source="AtaMCeHDhwVp71-YsUhz-126" target="AtaMCeHDhwVp71-YsUhz-132">
          <mxGeometry width="50" height="50" relative="1" as="geometry">
            <mxPoint x="730" y="1060" as="sourcePoint" />
            <mxPoint x="780" y="1010" as="targetPoint" />
          </mxGeometry>
        </mxCell>
        <mxCell id="AtaMCeHDhwVp71-YsUhz-134" value="13" style="ellipse;whiteSpace=wrap;html=1;aspect=fixed;fillColor=#d5e8d4;strokeColor=#82b366;" vertex="1" parent="1">
          <mxGeometry x="480" y="960" width="40" height="40" as="geometry" />
        </mxCell>
        <mxCell id="AtaMCeHDhwVp71-YsUhz-135" value="43" style="ellipse;whiteSpace=wrap;html=1;aspect=fixed;" vertex="1" parent="1">
          <mxGeometry x="550" y="960" width="40" height="40" as="geometry" />
        </mxCell>
        <mxCell id="AtaMCeHDhwVp71-YsUhz-136" value="" style="endArrow=classic;html=1;rounded=0;exitX=0.5;exitY=1;exitDx=0;exitDy=0;entryX=1;entryY=0;entryDx=0;entryDy=0;" edge="1" parent="1" source="AtaMCeHDhwVp71-YsUhz-127" target="AtaMCeHDhwVp71-YsUhz-134">
          <mxGeometry width="50" height="50" relative="1" as="geometry">
            <mxPoint x="730" y="1070" as="sourcePoint" />
            <mxPoint x="780" y="1020" as="targetPoint" />
          </mxGeometry>
        </mxCell>
        <mxCell id="AtaMCeHDhwVp71-YsUhz-137" value="" style="endArrow=classic;html=1;rounded=0;entryX=0;entryY=0;entryDx=0;entryDy=0;" edge="1" parent="1" target="AtaMCeHDhwVp71-YsUhz-135">
          <mxGeometry width="50" height="50" relative="1" as="geometry">
            <mxPoint x="530" y="920" as="sourcePoint" />
            <mxPoint x="524" y="976" as="targetPoint" />
          </mxGeometry>
        </mxCell>
        <mxCell id="AtaMCeHDhwVp71-YsUhz-138" value="3" style="ellipse;whiteSpace=wrap;html=1;aspect=fixed;fillColor=#d5e8d4;strokeColor=#82b366;" vertex="1" parent="1">
          <mxGeometry x="320" y="1030" width="40" height="40" as="geometry" />
        </mxCell>
        <mxCell id="AtaMCeHDhwVp71-YsUhz-139" value="" style="endArrow=classic;html=1;rounded=0;exitX=0.5;exitY=1;exitDx=0;exitDy=0;entryX=1;entryY=0;entryDx=0;entryDy=0;" edge="1" parent="1" source="AtaMCeHDhwVp71-YsUhz-128" target="AtaMCeHDhwVp71-YsUhz-138">
          <mxGeometry width="50" height="50" relative="1" as="geometry">
            <mxPoint x="730" y="1080" as="sourcePoint" />
            <mxPoint x="780" y="1030" as="targetPoint" />
          </mxGeometry>
        </mxCell>
        <mxCell id="AtaMCeHDhwVp71-YsUhz-140" value="1" style="ellipse;whiteSpace=wrap;html=1;aspect=fixed;fillColor=#d5e8d4;strokeColor=#82b366;" vertex="1" parent="1">
          <mxGeometry x="400" y="1030" width="40" height="40" as="geometry" />
        </mxCell>
        <mxCell id="AtaMCeHDhwVp71-YsUhz-141" value="" style="endArrow=classic;html=1;rounded=0;exitX=0.5;exitY=1;exitDx=0;exitDy=0;entryX=0;entryY=0;entryDx=0;entryDy=0;" edge="1" parent="1" source="AtaMCeHDhwVp71-YsUhz-128" target="AtaMCeHDhwVp71-YsUhz-140">
          <mxGeometry width="50" height="50" relative="1" as="geometry">
            <mxPoint x="730" y="1080" as="sourcePoint" />
            <mxPoint x="780" y="1030" as="targetPoint" />
          </mxGeometry>
        </mxCell>
        <mxCell id="AtaMCeHDhwVp71-YsUhz-142" value="4" style="ellipse;whiteSpace=wrap;html=1;aspect=fixed;fillColor=#d5e8d4;strokeColor=#82b366;" vertex="1" parent="1">
          <mxGeometry x="800" y="820" width="40" height="40" as="geometry" />
        </mxCell>
        <mxCell id="AtaMCeHDhwVp71-YsUhz-143" value="3" style="ellipse;whiteSpace=wrap;html=1;aspect=fixed;fillColor=#d5e8d4;strokeColor=#82b366;" vertex="1" parent="1">
          <mxGeometry x="740" y="880" width="40" height="40" as="geometry" />
        </mxCell>
        <mxCell id="AtaMCeHDhwVp71-YsUhz-144" value="12" style="ellipse;whiteSpace=wrap;html=1;aspect=fixed;fillColor=#d5e8d4;strokeColor=#82b366;" vertex="1" parent="1">
          <mxGeometry x="850" y="880" width="40" height="40" as="geometry" />
        </mxCell>
        <mxCell id="AtaMCeHDhwVp71-YsUhz-145" value="1" style="ellipse;whiteSpace=wrap;html=1;aspect=fixed;fillColor=#d5e8d4;strokeColor=#82b366;" vertex="1" parent="1">
          <mxGeometry x="700" y="960" width="40" height="40" as="geometry" />
        </mxCell>
        <mxCell id="AtaMCeHDhwVp71-YsUhz-146" value="" style="endArrow=classic;html=1;rounded=0;exitX=0.5;exitY=1;exitDx=0;exitDy=0;entryX=0;entryY=0;entryDx=0;entryDy=0;" edge="1" parent="1" source="AtaMCeHDhwVp71-YsUhz-142" target="AtaMCeHDhwVp71-YsUhz-144">
          <mxGeometry width="50" height="50" relative="1" as="geometry">
            <mxPoint x="1070" y="1070" as="sourcePoint" />
            <mxPoint x="1120" y="1020" as="targetPoint" />
          </mxGeometry>
        </mxCell>
        <mxCell id="AtaMCeHDhwVp71-YsUhz-147" value="" style="endArrow=classic;html=1;rounded=0;exitX=0.5;exitY=1;exitDx=0;exitDy=0;entryX=1;entryY=0;entryDx=0;entryDy=0;" edge="1" parent="1" source="AtaMCeHDhwVp71-YsUhz-142" target="AtaMCeHDhwVp71-YsUhz-143">
          <mxGeometry width="50" height="50" relative="1" as="geometry">
            <mxPoint x="830" y="870" as="sourcePoint" />
            <mxPoint x="866" y="896" as="targetPoint" />
          </mxGeometry>
        </mxCell>
        <mxCell id="AtaMCeHDhwVp71-YsUhz-148" value="" style="endArrow=classic;html=1;rounded=0;exitX=0.5;exitY=1;exitDx=0;exitDy=0;" edge="1" parent="1" source="AtaMCeHDhwVp71-YsUhz-143" target="AtaMCeHDhwVp71-YsUhz-145">
          <mxGeometry width="50" height="50" relative="1" as="geometry">
            <mxPoint x="840" y="880" as="sourcePoint" />
            <mxPoint x="876" y="906" as="targetPoint" />
          </mxGeometry>
        </mxCell>
        <mxCell id="AtaMCeHDhwVp71-YsUhz-149" value="5" style="ellipse;whiteSpace=wrap;html=1;aspect=fixed;fillColor=#d5e8d4;strokeColor=#82b366;" vertex="1" parent="1">
          <mxGeometry x="780" y="960" width="40" height="40" as="geometry" />
        </mxCell>
        <mxCell id="AtaMCeHDhwVp71-YsUhz-150" value="" style="endArrow=classic;html=1;rounded=0;exitX=0.5;exitY=1;exitDx=0;exitDy=0;entryX=0;entryY=0;entryDx=0;entryDy=0;" edge="1" parent="1" source="AtaMCeHDhwVp71-YsUhz-143" target="AtaMCeHDhwVp71-YsUhz-149">
          <mxGeometry width="50" height="50" relative="1" as="geometry">
            <mxPoint x="1070" y="1060" as="sourcePoint" />
            <mxPoint x="1120" y="1010" as="targetPoint" />
          </mxGeometry>
        </mxCell>
        <mxCell id="AtaMCeHDhwVp71-YsUhz-151" value="13" style="ellipse;whiteSpace=wrap;html=1;aspect=fixed;fillColor=#d5e8d4;strokeColor=#82b366;" vertex="1" parent="1">
          <mxGeometry x="820" y="960" width="40" height="40" as="geometry" />
        </mxCell>
        <mxCell id="AtaMCeHDhwVp71-YsUhz-152" value="43" style="ellipse;whiteSpace=wrap;html=1;aspect=fixed;fillColor=#d5e8d4;strokeColor=#82b366;" vertex="1" parent="1">
          <mxGeometry x="890" y="960" width="40" height="40" as="geometry" />
        </mxCell>
        <mxCell id="AtaMCeHDhwVp71-YsUhz-153" value="" style="endArrow=classic;html=1;rounded=0;exitX=0.5;exitY=1;exitDx=0;exitDy=0;entryX=1;entryY=0;entryDx=0;entryDy=0;" edge="1" parent="1" source="AtaMCeHDhwVp71-YsUhz-144" target="AtaMCeHDhwVp71-YsUhz-151">
          <mxGeometry width="50" height="50" relative="1" as="geometry">
            <mxPoint x="1070" y="1070" as="sourcePoint" />
            <mxPoint x="1120" y="1020" as="targetPoint" />
          </mxGeometry>
        </mxCell>
        <mxCell id="AtaMCeHDhwVp71-YsUhz-154" value="" style="endArrow=classic;html=1;rounded=0;entryX=0;entryY=0;entryDx=0;entryDy=0;" edge="1" parent="1" target="AtaMCeHDhwVp71-YsUhz-152">
          <mxGeometry width="50" height="50" relative="1" as="geometry">
            <mxPoint x="870" y="920" as="sourcePoint" />
            <mxPoint x="864" y="976" as="targetPoint" />
          </mxGeometry>
        </mxCell>
        <mxCell id="AtaMCeHDhwVp71-YsUhz-155" value="3" style="ellipse;whiteSpace=wrap;html=1;aspect=fixed;fillColor=#d5e8d4;strokeColor=#82b366;" vertex="1" parent="1">
          <mxGeometry x="660" y="1030" width="40" height="40" as="geometry" />
        </mxCell>
        <mxCell id="AtaMCeHDhwVp71-YsUhz-156" value="" style="endArrow=classic;html=1;rounded=0;exitX=0.5;exitY=1;exitDx=0;exitDy=0;entryX=1;entryY=0;entryDx=0;entryDy=0;" edge="1" parent="1" source="AtaMCeHDhwVp71-YsUhz-145" target="AtaMCeHDhwVp71-YsUhz-155">
          <mxGeometry width="50" height="50" relative="1" as="geometry">
            <mxPoint x="1070" y="1080" as="sourcePoint" />
            <mxPoint x="1120" y="1030" as="targetPoint" />
          </mxGeometry>
        </mxCell>
        <mxCell id="AtaMCeHDhwVp71-YsUhz-157" value="1" style="ellipse;whiteSpace=wrap;html=1;aspect=fixed;fillColor=#d5e8d4;strokeColor=#82b366;" vertex="1" parent="1">
          <mxGeometry x="740" y="1030" width="40" height="40" as="geometry" />
        </mxCell>
        <mxCell id="AtaMCeHDhwVp71-YsUhz-158" value="" style="endArrow=classic;html=1;rounded=0;exitX=0.5;exitY=1;exitDx=0;exitDy=0;entryX=0;entryY=0;entryDx=0;entryDy=0;" edge="1" parent="1" source="AtaMCeHDhwVp71-YsUhz-145" target="AtaMCeHDhwVp71-YsUhz-157">
          <mxGeometry width="50" height="50" relative="1" as="geometry">
            <mxPoint x="1070" y="1080" as="sourcePoint" />
            <mxPoint x="1120" y="1030" as="targetPoint" />
          </mxGeometry>
        </mxCell>
        <mxCell id="E654WWtEkQ3MTWyRpt5Z-1" value="4" style="ellipse;whiteSpace=wrap;html=1;aspect=fixed;" vertex="1" parent="1">
          <mxGeometry x="120" y="1210" width="40" height="40" as="geometry" />
        </mxCell>
        <mxCell id="E654WWtEkQ3MTWyRpt5Z-2" value="3" style="ellipse;whiteSpace=wrap;html=1;aspect=fixed;" vertex="1" parent="1">
          <mxGeometry x="60" y="1270" width="40" height="40" as="geometry" />
        </mxCell>
        <mxCell id="E654WWtEkQ3MTWyRpt5Z-3" value="12" style="ellipse;whiteSpace=wrap;html=1;aspect=fixed;" vertex="1" parent="1">
          <mxGeometry x="170" y="1270" width="40" height="40" as="geometry" />
        </mxCell>
        <mxCell id="E654WWtEkQ3MTWyRpt5Z-4" value="1" style="ellipse;whiteSpace=wrap;html=1;aspect=fixed;" vertex="1" parent="1">
          <mxGeometry x="20" y="1350" width="40" height="40" as="geometry" />
        </mxCell>
        <mxCell id="E654WWtEkQ3MTWyRpt5Z-5" value="" style="endArrow=classic;html=1;rounded=0;exitX=0.5;exitY=1;exitDx=0;exitDy=0;entryX=0;entryY=0;entryDx=0;entryDy=0;" edge="1" parent="1" source="E654WWtEkQ3MTWyRpt5Z-1" target="E654WWtEkQ3MTWyRpt5Z-3">
          <mxGeometry width="50" height="50" relative="1" as="geometry">
            <mxPoint x="390" y="1460" as="sourcePoint" />
            <mxPoint x="440" y="1410" as="targetPoint" />
          </mxGeometry>
        </mxCell>
        <mxCell id="E654WWtEkQ3MTWyRpt5Z-6" value="" style="endArrow=classic;html=1;rounded=0;exitX=0.5;exitY=1;exitDx=0;exitDy=0;entryX=1;entryY=0;entryDx=0;entryDy=0;" edge="1" parent="1" source="E654WWtEkQ3MTWyRpt5Z-1" target="E654WWtEkQ3MTWyRpt5Z-2">
          <mxGeometry width="50" height="50" relative="1" as="geometry">
            <mxPoint x="150" y="1260" as="sourcePoint" />
            <mxPoint x="186" y="1286" as="targetPoint" />
          </mxGeometry>
        </mxCell>
        <mxCell id="E654WWtEkQ3MTWyRpt5Z-7" value="" style="endArrow=classic;html=1;rounded=0;exitX=0.5;exitY=1;exitDx=0;exitDy=0;" edge="1" parent="1" source="E654WWtEkQ3MTWyRpt5Z-2" target="E654WWtEkQ3MTWyRpt5Z-4">
          <mxGeometry width="50" height="50" relative="1" as="geometry">
            <mxPoint x="160" y="1270" as="sourcePoint" />
            <mxPoint x="196" y="1296" as="targetPoint" />
          </mxGeometry>
        </mxCell>
        <mxCell id="E654WWtEkQ3MTWyRpt5Z-8" value="5" style="ellipse;whiteSpace=wrap;html=1;aspect=fixed;" vertex="1" parent="1">
          <mxGeometry x="100" y="1350" width="40" height="40" as="geometry" />
        </mxCell>
        <mxCell id="E654WWtEkQ3MTWyRpt5Z-9" value="" style="endArrow=classic;html=1;rounded=0;exitX=0.5;exitY=1;exitDx=0;exitDy=0;entryX=0;entryY=0;entryDx=0;entryDy=0;" edge="1" parent="1" source="E654WWtEkQ3MTWyRpt5Z-2" target="E654WWtEkQ3MTWyRpt5Z-8">
          <mxGeometry width="50" height="50" relative="1" as="geometry">
            <mxPoint x="390" y="1450" as="sourcePoint" />
            <mxPoint x="440" y="1400" as="targetPoint" />
          </mxGeometry>
        </mxCell>
        <mxCell id="E654WWtEkQ3MTWyRpt5Z-10" value="13" style="ellipse;whiteSpace=wrap;html=1;aspect=fixed;" vertex="1" parent="1">
          <mxGeometry x="140" y="1350" width="40" height="40" as="geometry" />
        </mxCell>
        <mxCell id="E654WWtEkQ3MTWyRpt5Z-11" value="43" style="ellipse;whiteSpace=wrap;html=1;aspect=fixed;" vertex="1" parent="1">
          <mxGeometry x="210" y="1350" width="40" height="40" as="geometry" />
        </mxCell>
        <mxCell id="E654WWtEkQ3MTWyRpt5Z-12" value="" style="endArrow=classic;html=1;rounded=0;exitX=0.5;exitY=1;exitDx=0;exitDy=0;entryX=1;entryY=0;entryDx=0;entryDy=0;" edge="1" parent="1" source="E654WWtEkQ3MTWyRpt5Z-3" target="E654WWtEkQ3MTWyRpt5Z-10">
          <mxGeometry width="50" height="50" relative="1" as="geometry">
            <mxPoint x="390" y="1460" as="sourcePoint" />
            <mxPoint x="440" y="1410" as="targetPoint" />
          </mxGeometry>
        </mxCell>
        <mxCell id="E654WWtEkQ3MTWyRpt5Z-13" value="" style="endArrow=classic;html=1;rounded=0;entryX=0;entryY=0;entryDx=0;entryDy=0;" edge="1" parent="1" target="E654WWtEkQ3MTWyRpt5Z-11">
          <mxGeometry width="50" height="50" relative="1" as="geometry">
            <mxPoint x="190" y="1310" as="sourcePoint" />
            <mxPoint x="184" y="1366" as="targetPoint" />
          </mxGeometry>
        </mxCell>
        <mxCell id="E654WWtEkQ3MTWyRpt5Z-14" value="3" style="ellipse;whiteSpace=wrap;html=1;aspect=fixed;fillColor=#d5e8d4;strokeColor=#82b366;" vertex="1" parent="1">
          <mxGeometry x="-20" y="1420" width="40" height="40" as="geometry" />
        </mxCell>
        <mxCell id="E654WWtEkQ3MTWyRpt5Z-15" value="" style="endArrow=classic;html=1;rounded=0;exitX=0.5;exitY=1;exitDx=0;exitDy=0;entryX=1;entryY=0;entryDx=0;entryDy=0;" edge="1" parent="1" source="E654WWtEkQ3MTWyRpt5Z-4" target="E654WWtEkQ3MTWyRpt5Z-14">
          <mxGeometry width="50" height="50" relative="1" as="geometry">
            <mxPoint x="390" y="1470" as="sourcePoint" />
            <mxPoint x="440" y="1420" as="targetPoint" />
          </mxGeometry>
        </mxCell>
        <mxCell id="E654WWtEkQ3MTWyRpt5Z-16" value="1" style="ellipse;whiteSpace=wrap;html=1;aspect=fixed;" vertex="1" parent="1">
          <mxGeometry x="60" y="1420" width="40" height="40" as="geometry" />
        </mxCell>
        <mxCell id="E654WWtEkQ3MTWyRpt5Z-17" value="" style="endArrow=classic;html=1;rounded=0;exitX=0.5;exitY=1;exitDx=0;exitDy=0;entryX=0;entryY=0;entryDx=0;entryDy=0;" edge="1" parent="1" source="E654WWtEkQ3MTWyRpt5Z-4" target="E654WWtEkQ3MTWyRpt5Z-16">
          <mxGeometry width="50" height="50" relative="1" as="geometry">
            <mxPoint x="390" y="1470" as="sourcePoint" />
            <mxPoint x="440" y="1420" as="targetPoint" />
          </mxGeometry>
        </mxCell>
        <mxCell id="E654WWtEkQ3MTWyRpt5Z-18" value="中序遍历" style="text;html=1;strokeColor=none;fillColor=none;align=center;verticalAlign=middle;whiteSpace=wrap;rounded=0;" vertex="1" parent="1">
          <mxGeometry x="-60" y="1150" width="60" height="30" as="geometry" />
        </mxCell>
        <mxCell id="E654WWtEkQ3MTWyRpt5Z-20" value="先序遍历" style="text;html=1;strokeColor=none;fillColor=none;align=center;verticalAlign=middle;whiteSpace=wrap;rounded=0;" vertex="1" parent="1">
          <mxGeometry y="130" width="60" height="30" as="geometry" />
        </mxCell>
        <mxCell id="E654WWtEkQ3MTWyRpt5Z-23" value="1" style="rounded=0;whiteSpace=wrap;html=1;fillColor=#ffcc99;strokeColor=#36393d;" vertex="1" parent="1">
          <mxGeometry x="115" y="160" width="50" height="20" as="geometry" />
        </mxCell>
        <mxCell id="E654WWtEkQ3MTWyRpt5Z-25" value="2" style="rounded=0;whiteSpace=wrap;html=1;fillColor=#ffcc99;strokeColor=#36393d;" vertex="1" parent="1">
          <mxGeometry x="435" y="160" width="50" height="20" as="geometry" />
        </mxCell>
        <mxCell id="E654WWtEkQ3MTWyRpt5Z-26" value="3" style="rounded=0;whiteSpace=wrap;html=1;fillColor=#ffcc99;strokeColor=#36393d;" vertex="1" parent="1">
          <mxGeometry x="770" y="160" width="50" height="20" as="geometry" />
        </mxCell>
        <mxCell id="E654WWtEkQ3MTWyRpt5Z-27" value="4" style="rounded=0;whiteSpace=wrap;html=1;fillColor=#ffcc99;strokeColor=#36393d;" vertex="1" parent="1">
          <mxGeometry x="115" y="460" width="50" height="20" as="geometry" />
        </mxCell>
        <mxCell id="E654WWtEkQ3MTWyRpt5Z-28" value="5" style="rounded=0;whiteSpace=wrap;html=1;fillColor=#ffcc99;strokeColor=#36393d;" vertex="1" parent="1">
          <mxGeometry x="455" y="460" width="50" height="20" as="geometry" />
        </mxCell>
        <mxCell id="E654WWtEkQ3MTWyRpt5Z-29" value="6" style="rounded=0;whiteSpace=wrap;html=1;fillColor=#ffcc99;strokeColor=#36393d;" vertex="1" parent="1">
          <mxGeometry x="795" y="460" width="50" height="20" as="geometry" />
        </mxCell>
        <mxCell id="E654WWtEkQ3MTWyRpt5Z-30" value="7" style="rounded=0;whiteSpace=wrap;html=1;fillColor=#ffcc99;strokeColor=#36393d;" vertex="1" parent="1">
          <mxGeometry x="115" y="790" width="50" height="20" as="geometry" />
        </mxCell>
        <mxCell id="E654WWtEkQ3MTWyRpt5Z-31" value="8" style="rounded=0;whiteSpace=wrap;html=1;fillColor=#ffcc99;strokeColor=#36393d;" vertex="1" parent="1">
          <mxGeometry x="460" y="790" width="50" height="20" as="geometry" />
        </mxCell>
        <mxCell id="E654WWtEkQ3MTWyRpt5Z-32" value="9" style="rounded=0;whiteSpace=wrap;html=1;fillColor=#ffcc99;strokeColor=#36393d;" vertex="1" parent="1">
          <mxGeometry x="795" y="790" width="50" height="20" as="geometry" />
        </mxCell>
        <mxCell id="E654WWtEkQ3MTWyRpt5Z-33" value="1" style="rounded=0;whiteSpace=wrap;html=1;fillColor=#ffcc99;strokeColor=#36393d;" vertex="1" parent="1">
          <mxGeometry x="115" y="1180" width="50" height="20" as="geometry" />
        </mxCell>
        <mxCell id="E654WWtEkQ3MTWyRpt5Z-34" value="4" style="ellipse;whiteSpace=wrap;html=1;aspect=fixed;" vertex="1" parent="1">
          <mxGeometry x="485" y="1210" width="40" height="40" as="geometry" />
        </mxCell>
        <mxCell id="E654WWtEkQ3MTWyRpt5Z-35" value="3" style="ellipse;whiteSpace=wrap;html=1;aspect=fixed;" vertex="1" parent="1">
          <mxGeometry x="425" y="1270" width="40" height="40" as="geometry" />
        </mxCell>
        <mxCell id="E654WWtEkQ3MTWyRpt5Z-36" value="12" style="ellipse;whiteSpace=wrap;html=1;aspect=fixed;" vertex="1" parent="1">
          <mxGeometry x="535" y="1270" width="40" height="40" as="geometry" />
        </mxCell>
        <mxCell id="E654WWtEkQ3MTWyRpt5Z-37" value="1" style="ellipse;whiteSpace=wrap;html=1;aspect=fixed;fillColor=#d5e8d4;strokeColor=#82b366;" vertex="1" parent="1">
          <mxGeometry x="385" y="1350" width="40" height="40" as="geometry" />
        </mxCell>
        <mxCell id="E654WWtEkQ3MTWyRpt5Z-38" value="" style="endArrow=classic;html=1;rounded=0;exitX=0.5;exitY=1;exitDx=0;exitDy=0;entryX=0;entryY=0;entryDx=0;entryDy=0;" edge="1" parent="1" source="E654WWtEkQ3MTWyRpt5Z-34" target="E654WWtEkQ3MTWyRpt5Z-36">
          <mxGeometry width="50" height="50" relative="1" as="geometry">
            <mxPoint x="755" y="1460" as="sourcePoint" />
            <mxPoint x="805" y="1410" as="targetPoint" />
          </mxGeometry>
        </mxCell>
        <mxCell id="E654WWtEkQ3MTWyRpt5Z-39" value="" style="endArrow=classic;html=1;rounded=0;exitX=0.5;exitY=1;exitDx=0;exitDy=0;entryX=1;entryY=0;entryDx=0;entryDy=0;" edge="1" parent="1" source="E654WWtEkQ3MTWyRpt5Z-34" target="E654WWtEkQ3MTWyRpt5Z-35">
          <mxGeometry width="50" height="50" relative="1" as="geometry">
            <mxPoint x="515" y="1260" as="sourcePoint" />
            <mxPoint x="551" y="1286" as="targetPoint" />
          </mxGeometry>
        </mxCell>
        <mxCell id="E654WWtEkQ3MTWyRpt5Z-40" value="" style="endArrow=classic;html=1;rounded=0;exitX=0.5;exitY=1;exitDx=0;exitDy=0;" edge="1" parent="1" source="E654WWtEkQ3MTWyRpt5Z-35" target="E654WWtEkQ3MTWyRpt5Z-37">
          <mxGeometry width="50" height="50" relative="1" as="geometry">
            <mxPoint x="525" y="1270" as="sourcePoint" />
            <mxPoint x="561" y="1296" as="targetPoint" />
          </mxGeometry>
        </mxCell>
        <mxCell id="E654WWtEkQ3MTWyRpt5Z-41" value="5" style="ellipse;whiteSpace=wrap;html=1;aspect=fixed;" vertex="1" parent="1">
          <mxGeometry x="465" y="1350" width="40" height="40" as="geometry" />
        </mxCell>
        <mxCell id="E654WWtEkQ3MTWyRpt5Z-42" value="" style="endArrow=classic;html=1;rounded=0;exitX=0.5;exitY=1;exitDx=0;exitDy=0;entryX=0;entryY=0;entryDx=0;entryDy=0;" edge="1" parent="1" source="E654WWtEkQ3MTWyRpt5Z-35" target="E654WWtEkQ3MTWyRpt5Z-41">
          <mxGeometry width="50" height="50" relative="1" as="geometry">
            <mxPoint x="755" y="1450" as="sourcePoint" />
            <mxPoint x="805" y="1400" as="targetPoint" />
          </mxGeometry>
        </mxCell>
        <mxCell id="E654WWtEkQ3MTWyRpt5Z-43" value="13" style="ellipse;whiteSpace=wrap;html=1;aspect=fixed;" vertex="1" parent="1">
          <mxGeometry x="505" y="1350" width="40" height="40" as="geometry" />
        </mxCell>
        <mxCell id="E654WWtEkQ3MTWyRpt5Z-44" value="43" style="ellipse;whiteSpace=wrap;html=1;aspect=fixed;" vertex="1" parent="1">
          <mxGeometry x="575" y="1350" width="40" height="40" as="geometry" />
        </mxCell>
        <mxCell id="E654WWtEkQ3MTWyRpt5Z-45" value="" style="endArrow=classic;html=1;rounded=0;exitX=0.5;exitY=1;exitDx=0;exitDy=0;entryX=1;entryY=0;entryDx=0;entryDy=0;" edge="1" parent="1" source="E654WWtEkQ3MTWyRpt5Z-36" target="E654WWtEkQ3MTWyRpt5Z-43">
          <mxGeometry width="50" height="50" relative="1" as="geometry">
            <mxPoint x="755" y="1460" as="sourcePoint" />
            <mxPoint x="805" y="1410" as="targetPoint" />
          </mxGeometry>
        </mxCell>
        <mxCell id="E654WWtEkQ3MTWyRpt5Z-46" value="" style="endArrow=classic;html=1;rounded=0;entryX=0;entryY=0;entryDx=0;entryDy=0;" edge="1" parent="1" target="E654WWtEkQ3MTWyRpt5Z-44">
          <mxGeometry width="50" height="50" relative="1" as="geometry">
            <mxPoint x="555" y="1310" as="sourcePoint" />
            <mxPoint x="549" y="1366" as="targetPoint" />
          </mxGeometry>
        </mxCell>
        <mxCell id="E654WWtEkQ3MTWyRpt5Z-47" value="3" style="ellipse;whiteSpace=wrap;html=1;aspect=fixed;fillColor=#d5e8d4;strokeColor=#82b366;" vertex="1" parent="1">
          <mxGeometry x="345" y="1420" width="40" height="40" as="geometry" />
        </mxCell>
        <mxCell id="E654WWtEkQ3MTWyRpt5Z-48" value="" style="endArrow=classic;html=1;rounded=0;exitX=0.5;exitY=1;exitDx=0;exitDy=0;entryX=1;entryY=0;entryDx=0;entryDy=0;" edge="1" parent="1" source="E654WWtEkQ3MTWyRpt5Z-37" target="E654WWtEkQ3MTWyRpt5Z-47">
          <mxGeometry width="50" height="50" relative="1" as="geometry">
            <mxPoint x="755" y="1470" as="sourcePoint" />
            <mxPoint x="805" y="1420" as="targetPoint" />
          </mxGeometry>
        </mxCell>
        <mxCell id="E654WWtEkQ3MTWyRpt5Z-49" value="1" style="ellipse;whiteSpace=wrap;html=1;aspect=fixed;" vertex="1" parent="1">
          <mxGeometry x="425" y="1420" width="40" height="40" as="geometry" />
        </mxCell>
        <mxCell id="E654WWtEkQ3MTWyRpt5Z-50" value="" style="endArrow=classic;html=1;rounded=0;exitX=0.5;exitY=1;exitDx=0;exitDy=0;entryX=0;entryY=0;entryDx=0;entryDy=0;" edge="1" parent="1" source="E654WWtEkQ3MTWyRpt5Z-37" target="E654WWtEkQ3MTWyRpt5Z-49">
          <mxGeometry width="50" height="50" relative="1" as="geometry">
            <mxPoint x="755" y="1470" as="sourcePoint" />
            <mxPoint x="805" y="1420" as="targetPoint" />
          </mxGeometry>
        </mxCell>
        <mxCell id="E654WWtEkQ3MTWyRpt5Z-51" value="2" style="rounded=0;whiteSpace=wrap;html=1;fillColor=#ffcc99;strokeColor=#36393d;" vertex="1" parent="1">
          <mxGeometry x="480" y="1180" width="50" height="20" as="geometry" />
        </mxCell>
        <mxCell id="E654WWtEkQ3MTWyRpt5Z-52" value="4" style="ellipse;whiteSpace=wrap;html=1;aspect=fixed;" vertex="1" parent="1">
          <mxGeometry x="855" y="1210" width="40" height="40" as="geometry" />
        </mxCell>
        <mxCell id="E654WWtEkQ3MTWyRpt5Z-53" value="3" style="ellipse;whiteSpace=wrap;html=1;aspect=fixed;" vertex="1" parent="1">
          <mxGeometry x="795" y="1270" width="40" height="40" as="geometry" />
        </mxCell>
        <mxCell id="E654WWtEkQ3MTWyRpt5Z-54" value="12" style="ellipse;whiteSpace=wrap;html=1;aspect=fixed;" vertex="1" parent="1">
          <mxGeometry x="905" y="1270" width="40" height="40" as="geometry" />
        </mxCell>
        <mxCell id="E654WWtEkQ3MTWyRpt5Z-55" value="1" style="ellipse;whiteSpace=wrap;html=1;aspect=fixed;fillColor=#d5e8d4;strokeColor=#82b366;" vertex="1" parent="1">
          <mxGeometry x="755" y="1350" width="40" height="40" as="geometry" />
        </mxCell>
        <mxCell id="E654WWtEkQ3MTWyRpt5Z-56" value="" style="endArrow=classic;html=1;rounded=0;exitX=0.5;exitY=1;exitDx=0;exitDy=0;entryX=0;entryY=0;entryDx=0;entryDy=0;" edge="1" parent="1" source="E654WWtEkQ3MTWyRpt5Z-52" target="E654WWtEkQ3MTWyRpt5Z-54">
          <mxGeometry width="50" height="50" relative="1" as="geometry">
            <mxPoint x="1125" y="1460" as="sourcePoint" />
            <mxPoint x="1175" y="1410" as="targetPoint" />
          </mxGeometry>
        </mxCell>
        <mxCell id="E654WWtEkQ3MTWyRpt5Z-57" value="" style="endArrow=classic;html=1;rounded=0;exitX=0.5;exitY=1;exitDx=0;exitDy=0;entryX=1;entryY=0;entryDx=0;entryDy=0;" edge="1" parent="1" source="E654WWtEkQ3MTWyRpt5Z-52" target="E654WWtEkQ3MTWyRpt5Z-53">
          <mxGeometry width="50" height="50" relative="1" as="geometry">
            <mxPoint x="885" y="1260" as="sourcePoint" />
            <mxPoint x="921" y="1286" as="targetPoint" />
          </mxGeometry>
        </mxCell>
        <mxCell id="E654WWtEkQ3MTWyRpt5Z-58" value="" style="endArrow=classic;html=1;rounded=0;exitX=0.5;exitY=1;exitDx=0;exitDy=0;" edge="1" parent="1" source="E654WWtEkQ3MTWyRpt5Z-53" target="E654WWtEkQ3MTWyRpt5Z-55">
          <mxGeometry width="50" height="50" relative="1" as="geometry">
            <mxPoint x="895" y="1270" as="sourcePoint" />
            <mxPoint x="931" y="1296" as="targetPoint" />
          </mxGeometry>
        </mxCell>
        <mxCell id="E654WWtEkQ3MTWyRpt5Z-59" value="5" style="ellipse;whiteSpace=wrap;html=1;aspect=fixed;" vertex="1" parent="1">
          <mxGeometry x="835" y="1350" width="40" height="40" as="geometry" />
        </mxCell>
        <mxCell id="E654WWtEkQ3MTWyRpt5Z-60" value="" style="endArrow=classic;html=1;rounded=0;exitX=0.5;exitY=1;exitDx=0;exitDy=0;entryX=0;entryY=0;entryDx=0;entryDy=0;" edge="1" parent="1" source="E654WWtEkQ3MTWyRpt5Z-53" target="E654WWtEkQ3MTWyRpt5Z-59">
          <mxGeometry width="50" height="50" relative="1" as="geometry">
            <mxPoint x="1125" y="1450" as="sourcePoint" />
            <mxPoint x="1175" y="1400" as="targetPoint" />
          </mxGeometry>
        </mxCell>
        <mxCell id="E654WWtEkQ3MTWyRpt5Z-61" value="13" style="ellipse;whiteSpace=wrap;html=1;aspect=fixed;" vertex="1" parent="1">
          <mxGeometry x="875" y="1350" width="40" height="40" as="geometry" />
        </mxCell>
        <mxCell id="E654WWtEkQ3MTWyRpt5Z-62" value="43" style="ellipse;whiteSpace=wrap;html=1;aspect=fixed;" vertex="1" parent="1">
          <mxGeometry x="945" y="1350" width="40" height="40" as="geometry" />
        </mxCell>
        <mxCell id="E654WWtEkQ3MTWyRpt5Z-63" value="" style="endArrow=classic;html=1;rounded=0;exitX=0.5;exitY=1;exitDx=0;exitDy=0;entryX=1;entryY=0;entryDx=0;entryDy=0;" edge="1" parent="1" source="E654WWtEkQ3MTWyRpt5Z-54" target="E654WWtEkQ3MTWyRpt5Z-61">
          <mxGeometry width="50" height="50" relative="1" as="geometry">
            <mxPoint x="1125" y="1460" as="sourcePoint" />
            <mxPoint x="1175" y="1410" as="targetPoint" />
          </mxGeometry>
        </mxCell>
        <mxCell id="E654WWtEkQ3MTWyRpt5Z-64" value="" style="endArrow=classic;html=1;rounded=0;entryX=0;entryY=0;entryDx=0;entryDy=0;" edge="1" parent="1" target="E654WWtEkQ3MTWyRpt5Z-62">
          <mxGeometry width="50" height="50" relative="1" as="geometry">
            <mxPoint x="925" y="1310" as="sourcePoint" />
            <mxPoint x="919" y="1366" as="targetPoint" />
          </mxGeometry>
        </mxCell>
        <mxCell id="E654WWtEkQ3MTWyRpt5Z-65" value="3" style="ellipse;whiteSpace=wrap;html=1;aspect=fixed;fillColor=#d5e8d4;strokeColor=#82b366;" vertex="1" parent="1">
          <mxGeometry x="715" y="1420" width="40" height="40" as="geometry" />
        </mxCell>
        <mxCell id="E654WWtEkQ3MTWyRpt5Z-66" value="" style="endArrow=classic;html=1;rounded=0;exitX=0.5;exitY=1;exitDx=0;exitDy=0;entryX=1;entryY=0;entryDx=0;entryDy=0;" edge="1" parent="1" source="E654WWtEkQ3MTWyRpt5Z-55" target="E654WWtEkQ3MTWyRpt5Z-65">
          <mxGeometry width="50" height="50" relative="1" as="geometry">
            <mxPoint x="1125" y="1470" as="sourcePoint" />
            <mxPoint x="1175" y="1420" as="targetPoint" />
          </mxGeometry>
        </mxCell>
        <mxCell id="E654WWtEkQ3MTWyRpt5Z-67" value="1" style="ellipse;whiteSpace=wrap;html=1;aspect=fixed;fillColor=#d5e8d4;strokeColor=#82b366;" vertex="1" parent="1">
          <mxGeometry x="795" y="1420" width="40" height="40" as="geometry" />
        </mxCell>
        <mxCell id="E654WWtEkQ3MTWyRpt5Z-68" value="" style="endArrow=classic;html=1;rounded=0;exitX=0.5;exitY=1;exitDx=0;exitDy=0;entryX=0;entryY=0;entryDx=0;entryDy=0;" edge="1" parent="1" source="E654WWtEkQ3MTWyRpt5Z-55" target="E654WWtEkQ3MTWyRpt5Z-67">
          <mxGeometry width="50" height="50" relative="1" as="geometry">
            <mxPoint x="1125" y="1470" as="sourcePoint" />
            <mxPoint x="1175" y="1420" as="targetPoint" />
          </mxGeometry>
        </mxCell>
        <mxCell id="E654WWtEkQ3MTWyRpt5Z-69" value="3" style="rounded=0;whiteSpace=wrap;html=1;fillColor=#ffcc99;strokeColor=#36393d;" vertex="1" parent="1">
          <mxGeometry x="850" y="1180" width="50" height="20" as="geometry" />
        </mxCell>
        <mxCell id="E654WWtEkQ3MTWyRpt5Z-70" value="4" style="ellipse;whiteSpace=wrap;html=1;aspect=fixed;" vertex="1" parent="1">
          <mxGeometry x="120" y="1550" width="40" height="40" as="geometry" />
        </mxCell>
        <mxCell id="E654WWtEkQ3MTWyRpt5Z-71" value="3" style="ellipse;whiteSpace=wrap;html=1;aspect=fixed;fillColor=#d5e8d4;strokeColor=#82b366;" vertex="1" parent="1">
          <mxGeometry x="60" y="1610" width="40" height="40" as="geometry" />
        </mxCell>
        <mxCell id="E654WWtEkQ3MTWyRpt5Z-72" value="12" style="ellipse;whiteSpace=wrap;html=1;aspect=fixed;" vertex="1" parent="1">
          <mxGeometry x="170" y="1610" width="40" height="40" as="geometry" />
        </mxCell>
        <mxCell id="E654WWtEkQ3MTWyRpt5Z-73" value="1" style="ellipse;whiteSpace=wrap;html=1;aspect=fixed;fillColor=#d5e8d4;strokeColor=#82b366;" vertex="1" parent="1">
          <mxGeometry x="20" y="1690" width="40" height="40" as="geometry" />
        </mxCell>
        <mxCell id="E654WWtEkQ3MTWyRpt5Z-74" value="" style="endArrow=classic;html=1;rounded=0;exitX=0.5;exitY=1;exitDx=0;exitDy=0;entryX=0;entryY=0;entryDx=0;entryDy=0;" edge="1" parent="1" source="E654WWtEkQ3MTWyRpt5Z-70" target="E654WWtEkQ3MTWyRpt5Z-72">
          <mxGeometry width="50" height="50" relative="1" as="geometry">
            <mxPoint x="390" y="1800" as="sourcePoint" />
            <mxPoint x="440" y="1750" as="targetPoint" />
          </mxGeometry>
        </mxCell>
        <mxCell id="E654WWtEkQ3MTWyRpt5Z-75" value="" style="endArrow=classic;html=1;rounded=0;exitX=0.5;exitY=1;exitDx=0;exitDy=0;entryX=1;entryY=0;entryDx=0;entryDy=0;" edge="1" parent="1" source="E654WWtEkQ3MTWyRpt5Z-70" target="E654WWtEkQ3MTWyRpt5Z-71">
          <mxGeometry width="50" height="50" relative="1" as="geometry">
            <mxPoint x="150" y="1600" as="sourcePoint" />
            <mxPoint x="186" y="1626" as="targetPoint" />
          </mxGeometry>
        </mxCell>
        <mxCell id="E654WWtEkQ3MTWyRpt5Z-76" value="" style="endArrow=classic;html=1;rounded=0;exitX=0.5;exitY=1;exitDx=0;exitDy=0;" edge="1" parent="1" source="E654WWtEkQ3MTWyRpt5Z-71" target="E654WWtEkQ3MTWyRpt5Z-73">
          <mxGeometry width="50" height="50" relative="1" as="geometry">
            <mxPoint x="160" y="1610" as="sourcePoint" />
            <mxPoint x="196" y="1636" as="targetPoint" />
          </mxGeometry>
        </mxCell>
        <mxCell id="E654WWtEkQ3MTWyRpt5Z-77" value="5" style="ellipse;whiteSpace=wrap;html=1;aspect=fixed;" vertex="1" parent="1">
          <mxGeometry x="100" y="1690" width="40" height="40" as="geometry" />
        </mxCell>
        <mxCell id="E654WWtEkQ3MTWyRpt5Z-78" value="" style="endArrow=classic;html=1;rounded=0;exitX=0.5;exitY=1;exitDx=0;exitDy=0;entryX=0;entryY=0;entryDx=0;entryDy=0;" edge="1" parent="1" source="E654WWtEkQ3MTWyRpt5Z-71" target="E654WWtEkQ3MTWyRpt5Z-77">
          <mxGeometry width="50" height="50" relative="1" as="geometry">
            <mxPoint x="390" y="1790" as="sourcePoint" />
            <mxPoint x="440" y="1740" as="targetPoint" />
          </mxGeometry>
        </mxCell>
        <mxCell id="E654WWtEkQ3MTWyRpt5Z-79" value="13" style="ellipse;whiteSpace=wrap;html=1;aspect=fixed;" vertex="1" parent="1">
          <mxGeometry x="140" y="1690" width="40" height="40" as="geometry" />
        </mxCell>
        <mxCell id="E654WWtEkQ3MTWyRpt5Z-80" value="43" style="ellipse;whiteSpace=wrap;html=1;aspect=fixed;" vertex="1" parent="1">
          <mxGeometry x="210" y="1690" width="40" height="40" as="geometry" />
        </mxCell>
        <mxCell id="E654WWtEkQ3MTWyRpt5Z-81" value="" style="endArrow=classic;html=1;rounded=0;exitX=0.5;exitY=1;exitDx=0;exitDy=0;entryX=1;entryY=0;entryDx=0;entryDy=0;" edge="1" parent="1" source="E654WWtEkQ3MTWyRpt5Z-72" target="E654WWtEkQ3MTWyRpt5Z-79">
          <mxGeometry width="50" height="50" relative="1" as="geometry">
            <mxPoint x="390" y="1800" as="sourcePoint" />
            <mxPoint x="440" y="1750" as="targetPoint" />
          </mxGeometry>
        </mxCell>
        <mxCell id="E654WWtEkQ3MTWyRpt5Z-82" value="" style="endArrow=classic;html=1;rounded=0;entryX=0;entryY=0;entryDx=0;entryDy=0;" edge="1" parent="1" target="E654WWtEkQ3MTWyRpt5Z-80">
          <mxGeometry width="50" height="50" relative="1" as="geometry">
            <mxPoint x="190" y="1650" as="sourcePoint" />
            <mxPoint x="184" y="1706" as="targetPoint" />
          </mxGeometry>
        </mxCell>
        <mxCell id="E654WWtEkQ3MTWyRpt5Z-83" value="3" style="ellipse;whiteSpace=wrap;html=1;aspect=fixed;fillColor=#d5e8d4;strokeColor=#82b366;" vertex="1" parent="1">
          <mxGeometry x="-20" y="1760" width="40" height="40" as="geometry" />
        </mxCell>
        <mxCell id="E654WWtEkQ3MTWyRpt5Z-84" value="" style="endArrow=classic;html=1;rounded=0;exitX=0.5;exitY=1;exitDx=0;exitDy=0;entryX=1;entryY=0;entryDx=0;entryDy=0;" edge="1" parent="1" source="E654WWtEkQ3MTWyRpt5Z-73" target="E654WWtEkQ3MTWyRpt5Z-83">
          <mxGeometry width="50" height="50" relative="1" as="geometry">
            <mxPoint x="390" y="1810" as="sourcePoint" />
            <mxPoint x="440" y="1760" as="targetPoint" />
          </mxGeometry>
        </mxCell>
        <mxCell id="E654WWtEkQ3MTWyRpt5Z-85" value="1" style="ellipse;whiteSpace=wrap;html=1;aspect=fixed;fillColor=#d5e8d4;strokeColor=#82b366;" vertex="1" parent="1">
          <mxGeometry x="60" y="1760" width="40" height="40" as="geometry" />
        </mxCell>
        <mxCell id="E654WWtEkQ3MTWyRpt5Z-86" value="" style="endArrow=classic;html=1;rounded=0;exitX=0.5;exitY=1;exitDx=0;exitDy=0;entryX=0;entryY=0;entryDx=0;entryDy=0;" edge="1" parent="1" source="E654WWtEkQ3MTWyRpt5Z-73" target="E654WWtEkQ3MTWyRpt5Z-85">
          <mxGeometry width="50" height="50" relative="1" as="geometry">
            <mxPoint x="390" y="1810" as="sourcePoint" />
            <mxPoint x="440" y="1760" as="targetPoint" />
          </mxGeometry>
        </mxCell>
        <mxCell id="E654WWtEkQ3MTWyRpt5Z-87" value="4" style="rounded=0;whiteSpace=wrap;html=1;fillColor=#ffcc99;strokeColor=#36393d;" vertex="1" parent="1">
          <mxGeometry x="115" y="1520" width="50" height="20" as="geometry" />
        </mxCell>
        <mxCell id="E654WWtEkQ3MTWyRpt5Z-88" value="4" style="ellipse;whiteSpace=wrap;html=1;aspect=fixed;" vertex="1" parent="1">
          <mxGeometry x="490" y="1550" width="40" height="40" as="geometry" />
        </mxCell>
        <mxCell id="E654WWtEkQ3MTWyRpt5Z-89" value="3" style="ellipse;whiteSpace=wrap;html=1;aspect=fixed;fillColor=#d5e8d4;strokeColor=#82b366;" vertex="1" parent="1">
          <mxGeometry x="430" y="1610" width="40" height="40" as="geometry" />
        </mxCell>
        <mxCell id="E654WWtEkQ3MTWyRpt5Z-90" value="12" style="ellipse;whiteSpace=wrap;html=1;aspect=fixed;" vertex="1" parent="1">
          <mxGeometry x="540" y="1610" width="40" height="40" as="geometry" />
        </mxCell>
        <mxCell id="E654WWtEkQ3MTWyRpt5Z-91" value="1" style="ellipse;whiteSpace=wrap;html=1;aspect=fixed;fillColor=#d5e8d4;strokeColor=#82b366;" vertex="1" parent="1">
          <mxGeometry x="390" y="1690" width="40" height="40" as="geometry" />
        </mxCell>
        <mxCell id="E654WWtEkQ3MTWyRpt5Z-92" value="" style="endArrow=classic;html=1;rounded=0;exitX=0.5;exitY=1;exitDx=0;exitDy=0;entryX=0;entryY=0;entryDx=0;entryDy=0;" edge="1" parent="1" source="E654WWtEkQ3MTWyRpt5Z-88" target="E654WWtEkQ3MTWyRpt5Z-90">
          <mxGeometry width="50" height="50" relative="1" as="geometry">
            <mxPoint x="760" y="1800" as="sourcePoint" />
            <mxPoint x="810" y="1750" as="targetPoint" />
          </mxGeometry>
        </mxCell>
        <mxCell id="E654WWtEkQ3MTWyRpt5Z-93" value="" style="endArrow=classic;html=1;rounded=0;exitX=0.5;exitY=1;exitDx=0;exitDy=0;entryX=1;entryY=0;entryDx=0;entryDy=0;" edge="1" parent="1" source="E654WWtEkQ3MTWyRpt5Z-88" target="E654WWtEkQ3MTWyRpt5Z-89">
          <mxGeometry width="50" height="50" relative="1" as="geometry">
            <mxPoint x="520" y="1600" as="sourcePoint" />
            <mxPoint x="556" y="1626" as="targetPoint" />
          </mxGeometry>
        </mxCell>
        <mxCell id="E654WWtEkQ3MTWyRpt5Z-94" value="" style="endArrow=classic;html=1;rounded=0;exitX=0.5;exitY=1;exitDx=0;exitDy=0;" edge="1" parent="1" source="E654WWtEkQ3MTWyRpt5Z-89" target="E654WWtEkQ3MTWyRpt5Z-91">
          <mxGeometry width="50" height="50" relative="1" as="geometry">
            <mxPoint x="530" y="1610" as="sourcePoint" />
            <mxPoint x="566" y="1636" as="targetPoint" />
          </mxGeometry>
        </mxCell>
        <mxCell id="E654WWtEkQ3MTWyRpt5Z-95" value="5" style="ellipse;whiteSpace=wrap;html=1;aspect=fixed;fillColor=#d5e8d4;strokeColor=#82b366;" vertex="1" parent="1">
          <mxGeometry x="470" y="1690" width="40" height="40" as="geometry" />
        </mxCell>
        <mxCell id="E654WWtEkQ3MTWyRpt5Z-96" value="" style="endArrow=classic;html=1;rounded=0;exitX=0.5;exitY=1;exitDx=0;exitDy=0;entryX=0;entryY=0;entryDx=0;entryDy=0;" edge="1" parent="1" source="E654WWtEkQ3MTWyRpt5Z-89" target="E654WWtEkQ3MTWyRpt5Z-95">
          <mxGeometry width="50" height="50" relative="1" as="geometry">
            <mxPoint x="760" y="1790" as="sourcePoint" />
            <mxPoint x="810" y="1740" as="targetPoint" />
          </mxGeometry>
        </mxCell>
        <mxCell id="E654WWtEkQ3MTWyRpt5Z-97" value="13" style="ellipse;whiteSpace=wrap;html=1;aspect=fixed;" vertex="1" parent="1">
          <mxGeometry x="510" y="1690" width="40" height="40" as="geometry" />
        </mxCell>
        <mxCell id="E654WWtEkQ3MTWyRpt5Z-98" value="43" style="ellipse;whiteSpace=wrap;html=1;aspect=fixed;" vertex="1" parent="1">
          <mxGeometry x="580" y="1690" width="40" height="40" as="geometry" />
        </mxCell>
        <mxCell id="E654WWtEkQ3MTWyRpt5Z-99" value="" style="endArrow=classic;html=1;rounded=0;exitX=0.5;exitY=1;exitDx=0;exitDy=0;entryX=1;entryY=0;entryDx=0;entryDy=0;" edge="1" parent="1" source="E654WWtEkQ3MTWyRpt5Z-90" target="E654WWtEkQ3MTWyRpt5Z-97">
          <mxGeometry width="50" height="50" relative="1" as="geometry">
            <mxPoint x="760" y="1800" as="sourcePoint" />
            <mxPoint x="810" y="1750" as="targetPoint" />
          </mxGeometry>
        </mxCell>
        <mxCell id="E654WWtEkQ3MTWyRpt5Z-100" value="" style="endArrow=classic;html=1;rounded=0;entryX=0;entryY=0;entryDx=0;entryDy=0;" edge="1" parent="1" target="E654WWtEkQ3MTWyRpt5Z-98">
          <mxGeometry width="50" height="50" relative="1" as="geometry">
            <mxPoint x="560" y="1650" as="sourcePoint" />
            <mxPoint x="554" y="1706" as="targetPoint" />
          </mxGeometry>
        </mxCell>
        <mxCell id="E654WWtEkQ3MTWyRpt5Z-101" value="3" style="ellipse;whiteSpace=wrap;html=1;aspect=fixed;fillColor=#d5e8d4;strokeColor=#82b366;" vertex="1" parent="1">
          <mxGeometry x="350" y="1760" width="40" height="40" as="geometry" />
        </mxCell>
        <mxCell id="E654WWtEkQ3MTWyRpt5Z-102" value="" style="endArrow=classic;html=1;rounded=0;exitX=0.5;exitY=1;exitDx=0;exitDy=0;entryX=1;entryY=0;entryDx=0;entryDy=0;" edge="1" parent="1" source="E654WWtEkQ3MTWyRpt5Z-91" target="E654WWtEkQ3MTWyRpt5Z-101">
          <mxGeometry width="50" height="50" relative="1" as="geometry">
            <mxPoint x="760" y="1810" as="sourcePoint" />
            <mxPoint x="810" y="1760" as="targetPoint" />
          </mxGeometry>
        </mxCell>
        <mxCell id="E654WWtEkQ3MTWyRpt5Z-103" value="1" style="ellipse;whiteSpace=wrap;html=1;aspect=fixed;fillColor=#d5e8d4;strokeColor=#82b366;" vertex="1" parent="1">
          <mxGeometry x="430" y="1760" width="40" height="40" as="geometry" />
        </mxCell>
        <mxCell id="E654WWtEkQ3MTWyRpt5Z-104" value="" style="endArrow=classic;html=1;rounded=0;exitX=0.5;exitY=1;exitDx=0;exitDy=0;entryX=0;entryY=0;entryDx=0;entryDy=0;" edge="1" parent="1" source="E654WWtEkQ3MTWyRpt5Z-91" target="E654WWtEkQ3MTWyRpt5Z-103">
          <mxGeometry width="50" height="50" relative="1" as="geometry">
            <mxPoint x="760" y="1810" as="sourcePoint" />
            <mxPoint x="810" y="1760" as="targetPoint" />
          </mxGeometry>
        </mxCell>
        <mxCell id="E654WWtEkQ3MTWyRpt5Z-105" value="5" style="rounded=0;whiteSpace=wrap;html=1;fillColor=#ffcc99;strokeColor=#36393d;" vertex="1" parent="1">
          <mxGeometry x="485" y="1520" width="50" height="20" as="geometry" />
        </mxCell>
        <mxCell id="E654WWtEkQ3MTWyRpt5Z-106" value="4" style="ellipse;whiteSpace=wrap;html=1;aspect=fixed;fillColor=#d5e8d4;strokeColor=#82b366;" vertex="1" parent="1">
          <mxGeometry x="860" y="1550" width="40" height="40" as="geometry" />
        </mxCell>
        <mxCell id="E654WWtEkQ3MTWyRpt5Z-107" value="3" style="ellipse;whiteSpace=wrap;html=1;aspect=fixed;fillColor=#d5e8d4;strokeColor=#82b366;" vertex="1" parent="1">
          <mxGeometry x="800" y="1610" width="40" height="40" as="geometry" />
        </mxCell>
        <mxCell id="E654WWtEkQ3MTWyRpt5Z-108" value="12" style="ellipse;whiteSpace=wrap;html=1;aspect=fixed;" vertex="1" parent="1">
          <mxGeometry x="910" y="1610" width="40" height="40" as="geometry" />
        </mxCell>
        <mxCell id="E654WWtEkQ3MTWyRpt5Z-109" value="1" style="ellipse;whiteSpace=wrap;html=1;aspect=fixed;fillColor=#d5e8d4;strokeColor=#82b366;" vertex="1" parent="1">
          <mxGeometry x="760" y="1690" width="40" height="40" as="geometry" />
        </mxCell>
        <mxCell id="E654WWtEkQ3MTWyRpt5Z-110" value="" style="endArrow=classic;html=1;rounded=0;exitX=0.5;exitY=1;exitDx=0;exitDy=0;entryX=0;entryY=0;entryDx=0;entryDy=0;" edge="1" parent="1" source="E654WWtEkQ3MTWyRpt5Z-106" target="E654WWtEkQ3MTWyRpt5Z-108">
          <mxGeometry width="50" height="50" relative="1" as="geometry">
            <mxPoint x="1130" y="1800" as="sourcePoint" />
            <mxPoint x="1180" y="1750" as="targetPoint" />
          </mxGeometry>
        </mxCell>
        <mxCell id="E654WWtEkQ3MTWyRpt5Z-111" value="" style="endArrow=classic;html=1;rounded=0;exitX=0.5;exitY=1;exitDx=0;exitDy=0;entryX=1;entryY=0;entryDx=0;entryDy=0;" edge="1" parent="1" source="E654WWtEkQ3MTWyRpt5Z-106" target="E654WWtEkQ3MTWyRpt5Z-107">
          <mxGeometry width="50" height="50" relative="1" as="geometry">
            <mxPoint x="890" y="1600" as="sourcePoint" />
            <mxPoint x="926" y="1626" as="targetPoint" />
          </mxGeometry>
        </mxCell>
        <mxCell id="E654WWtEkQ3MTWyRpt5Z-112" value="" style="endArrow=classic;html=1;rounded=0;exitX=0.5;exitY=1;exitDx=0;exitDy=0;" edge="1" parent="1" source="E654WWtEkQ3MTWyRpt5Z-107" target="E654WWtEkQ3MTWyRpt5Z-109">
          <mxGeometry width="50" height="50" relative="1" as="geometry">
            <mxPoint x="900" y="1610" as="sourcePoint" />
            <mxPoint x="936" y="1636" as="targetPoint" />
          </mxGeometry>
        </mxCell>
        <mxCell id="E654WWtEkQ3MTWyRpt5Z-113" value="5" style="ellipse;whiteSpace=wrap;html=1;aspect=fixed;fillColor=#d5e8d4;strokeColor=#82b366;" vertex="1" parent="1">
          <mxGeometry x="840" y="1690" width="40" height="40" as="geometry" />
        </mxCell>
        <mxCell id="E654WWtEkQ3MTWyRpt5Z-114" value="" style="endArrow=classic;html=1;rounded=0;exitX=0.5;exitY=1;exitDx=0;exitDy=0;entryX=0;entryY=0;entryDx=0;entryDy=0;" edge="1" parent="1" source="E654WWtEkQ3MTWyRpt5Z-107" target="E654WWtEkQ3MTWyRpt5Z-113">
          <mxGeometry width="50" height="50" relative="1" as="geometry">
            <mxPoint x="1130" y="1790" as="sourcePoint" />
            <mxPoint x="1180" y="1740" as="targetPoint" />
          </mxGeometry>
        </mxCell>
        <mxCell id="E654WWtEkQ3MTWyRpt5Z-115" value="13" style="ellipse;whiteSpace=wrap;html=1;aspect=fixed;" vertex="1" parent="1">
          <mxGeometry x="880" y="1690" width="40" height="40" as="geometry" />
        </mxCell>
        <mxCell id="E654WWtEkQ3MTWyRpt5Z-116" value="43" style="ellipse;whiteSpace=wrap;html=1;aspect=fixed;" vertex="1" parent="1">
          <mxGeometry x="950" y="1690" width="40" height="40" as="geometry" />
        </mxCell>
        <mxCell id="E654WWtEkQ3MTWyRpt5Z-117" value="" style="endArrow=classic;html=1;rounded=0;exitX=0.5;exitY=1;exitDx=0;exitDy=0;entryX=1;entryY=0;entryDx=0;entryDy=0;" edge="1" parent="1" source="E654WWtEkQ3MTWyRpt5Z-108" target="E654WWtEkQ3MTWyRpt5Z-115">
          <mxGeometry width="50" height="50" relative="1" as="geometry">
            <mxPoint x="1130" y="1800" as="sourcePoint" />
            <mxPoint x="1180" y="1750" as="targetPoint" />
          </mxGeometry>
        </mxCell>
        <mxCell id="E654WWtEkQ3MTWyRpt5Z-118" value="" style="endArrow=classic;html=1;rounded=0;entryX=0;entryY=0;entryDx=0;entryDy=0;" edge="1" parent="1" target="E654WWtEkQ3MTWyRpt5Z-116">
          <mxGeometry width="50" height="50" relative="1" as="geometry">
            <mxPoint x="930" y="1650" as="sourcePoint" />
            <mxPoint x="924" y="1706" as="targetPoint" />
          </mxGeometry>
        </mxCell>
        <mxCell id="E654WWtEkQ3MTWyRpt5Z-119" value="3" style="ellipse;whiteSpace=wrap;html=1;aspect=fixed;fillColor=#d5e8d4;strokeColor=#82b366;" vertex="1" parent="1">
          <mxGeometry x="720" y="1760" width="40" height="40" as="geometry" />
        </mxCell>
        <mxCell id="E654WWtEkQ3MTWyRpt5Z-120" value="" style="endArrow=classic;html=1;rounded=0;exitX=0.5;exitY=1;exitDx=0;exitDy=0;entryX=1;entryY=0;entryDx=0;entryDy=0;" edge="1" parent="1" source="E654WWtEkQ3MTWyRpt5Z-109" target="E654WWtEkQ3MTWyRpt5Z-119">
          <mxGeometry width="50" height="50" relative="1" as="geometry">
            <mxPoint x="1130" y="1810" as="sourcePoint" />
            <mxPoint x="1180" y="1760" as="targetPoint" />
          </mxGeometry>
        </mxCell>
        <mxCell id="E654WWtEkQ3MTWyRpt5Z-121" value="1" style="ellipse;whiteSpace=wrap;html=1;aspect=fixed;fillColor=#d5e8d4;strokeColor=#82b366;" vertex="1" parent="1">
          <mxGeometry x="800" y="1760" width="40" height="40" as="geometry" />
        </mxCell>
        <mxCell id="E654WWtEkQ3MTWyRpt5Z-122" value="" style="endArrow=classic;html=1;rounded=0;exitX=0.5;exitY=1;exitDx=0;exitDy=0;entryX=0;entryY=0;entryDx=0;entryDy=0;" edge="1" parent="1" source="E654WWtEkQ3MTWyRpt5Z-109" target="E654WWtEkQ3MTWyRpt5Z-121">
          <mxGeometry width="50" height="50" relative="1" as="geometry">
            <mxPoint x="1130" y="1810" as="sourcePoint" />
            <mxPoint x="1180" y="1760" as="targetPoint" />
          </mxGeometry>
        </mxCell>
        <mxCell id="E654WWtEkQ3MTWyRpt5Z-123" value="6" style="rounded=0;whiteSpace=wrap;html=1;fillColor=#ffcc99;strokeColor=#36393d;" vertex="1" parent="1">
          <mxGeometry x="855" y="1520" width="50" height="20" as="geometry" />
        </mxCell>
        <mxCell id="E654WWtEkQ3MTWyRpt5Z-124" value="4" style="ellipse;whiteSpace=wrap;html=1;aspect=fixed;fillColor=#d5e8d4;strokeColor=#82b366;" vertex="1" parent="1">
          <mxGeometry x="120" y="1900" width="40" height="40" as="geometry" />
        </mxCell>
        <mxCell id="E654WWtEkQ3MTWyRpt5Z-125" value="3" style="ellipse;whiteSpace=wrap;html=1;aspect=fixed;fillColor=#d5e8d4;strokeColor=#82b366;" vertex="1" parent="1">
          <mxGeometry x="60" y="1960" width="40" height="40" as="geometry" />
        </mxCell>
        <mxCell id="E654WWtEkQ3MTWyRpt5Z-126" value="12" style="ellipse;whiteSpace=wrap;html=1;aspect=fixed;" vertex="1" parent="1">
          <mxGeometry x="170" y="1960" width="40" height="40" as="geometry" />
        </mxCell>
        <mxCell id="E654WWtEkQ3MTWyRpt5Z-127" value="1" style="ellipse;whiteSpace=wrap;html=1;aspect=fixed;fillColor=#d5e8d4;strokeColor=#82b366;" vertex="1" parent="1">
          <mxGeometry x="20" y="2040" width="40" height="40" as="geometry" />
        </mxCell>
        <mxCell id="E654WWtEkQ3MTWyRpt5Z-128" value="" style="endArrow=classic;html=1;rounded=0;exitX=0.5;exitY=1;exitDx=0;exitDy=0;entryX=0;entryY=0;entryDx=0;entryDy=0;" edge="1" parent="1" source="E654WWtEkQ3MTWyRpt5Z-124" target="E654WWtEkQ3MTWyRpt5Z-126">
          <mxGeometry width="50" height="50" relative="1" as="geometry">
            <mxPoint x="390" y="2150" as="sourcePoint" />
            <mxPoint x="440" y="2100" as="targetPoint" />
          </mxGeometry>
        </mxCell>
        <mxCell id="E654WWtEkQ3MTWyRpt5Z-129" value="" style="endArrow=classic;html=1;rounded=0;exitX=0.5;exitY=1;exitDx=0;exitDy=0;entryX=1;entryY=0;entryDx=0;entryDy=0;" edge="1" parent="1" source="E654WWtEkQ3MTWyRpt5Z-124" target="E654WWtEkQ3MTWyRpt5Z-125">
          <mxGeometry width="50" height="50" relative="1" as="geometry">
            <mxPoint x="150" y="1950" as="sourcePoint" />
            <mxPoint x="186" y="1976" as="targetPoint" />
          </mxGeometry>
        </mxCell>
        <mxCell id="E654WWtEkQ3MTWyRpt5Z-130" value="" style="endArrow=classic;html=1;rounded=0;exitX=0.5;exitY=1;exitDx=0;exitDy=0;" edge="1" parent="1" source="E654WWtEkQ3MTWyRpt5Z-125" target="E654WWtEkQ3MTWyRpt5Z-127">
          <mxGeometry width="50" height="50" relative="1" as="geometry">
            <mxPoint x="160" y="1960" as="sourcePoint" />
            <mxPoint x="196" y="1986" as="targetPoint" />
          </mxGeometry>
        </mxCell>
        <mxCell id="E654WWtEkQ3MTWyRpt5Z-131" value="5" style="ellipse;whiteSpace=wrap;html=1;aspect=fixed;fillColor=#d5e8d4;strokeColor=#82b366;" vertex="1" parent="1">
          <mxGeometry x="100" y="2040" width="40" height="40" as="geometry" />
        </mxCell>
        <mxCell id="E654WWtEkQ3MTWyRpt5Z-132" value="" style="endArrow=classic;html=1;rounded=0;exitX=0.5;exitY=1;exitDx=0;exitDy=0;entryX=0;entryY=0;entryDx=0;entryDy=0;" edge="1" parent="1" source="E654WWtEkQ3MTWyRpt5Z-125" target="E654WWtEkQ3MTWyRpt5Z-131">
          <mxGeometry width="50" height="50" relative="1" as="geometry">
            <mxPoint x="390" y="2140" as="sourcePoint" />
            <mxPoint x="440" y="2090" as="targetPoint" />
          </mxGeometry>
        </mxCell>
        <mxCell id="E654WWtEkQ3MTWyRpt5Z-133" value="13" style="ellipse;whiteSpace=wrap;html=1;aspect=fixed;fillColor=#d5e8d4;strokeColor=#82b366;" vertex="1" parent="1">
          <mxGeometry x="140" y="2040" width="40" height="40" as="geometry" />
        </mxCell>
        <mxCell id="E654WWtEkQ3MTWyRpt5Z-134" value="43" style="ellipse;whiteSpace=wrap;html=1;aspect=fixed;" vertex="1" parent="1">
          <mxGeometry x="210" y="2040" width="40" height="40" as="geometry" />
        </mxCell>
        <mxCell id="E654WWtEkQ3MTWyRpt5Z-135" value="" style="endArrow=classic;html=1;rounded=0;exitX=0.5;exitY=1;exitDx=0;exitDy=0;entryX=1;entryY=0;entryDx=0;entryDy=0;" edge="1" parent="1" source="E654WWtEkQ3MTWyRpt5Z-126" target="E654WWtEkQ3MTWyRpt5Z-133">
          <mxGeometry width="50" height="50" relative="1" as="geometry">
            <mxPoint x="390" y="2150" as="sourcePoint" />
            <mxPoint x="440" y="2100" as="targetPoint" />
          </mxGeometry>
        </mxCell>
        <mxCell id="E654WWtEkQ3MTWyRpt5Z-136" value="" style="endArrow=classic;html=1;rounded=0;entryX=0;entryY=0;entryDx=0;entryDy=0;" edge="1" parent="1" target="E654WWtEkQ3MTWyRpt5Z-134">
          <mxGeometry width="50" height="50" relative="1" as="geometry">
            <mxPoint x="190" y="2000" as="sourcePoint" />
            <mxPoint x="184" y="2056" as="targetPoint" />
          </mxGeometry>
        </mxCell>
        <mxCell id="E654WWtEkQ3MTWyRpt5Z-137" value="3" style="ellipse;whiteSpace=wrap;html=1;aspect=fixed;fillColor=#d5e8d4;strokeColor=#82b366;" vertex="1" parent="1">
          <mxGeometry x="-20" y="2110" width="40" height="40" as="geometry" />
        </mxCell>
        <mxCell id="E654WWtEkQ3MTWyRpt5Z-138" value="" style="endArrow=classic;html=1;rounded=0;exitX=0.5;exitY=1;exitDx=0;exitDy=0;entryX=1;entryY=0;entryDx=0;entryDy=0;" edge="1" parent="1" source="E654WWtEkQ3MTWyRpt5Z-127" target="E654WWtEkQ3MTWyRpt5Z-137">
          <mxGeometry width="50" height="50" relative="1" as="geometry">
            <mxPoint x="390" y="2160" as="sourcePoint" />
            <mxPoint x="440" y="2110" as="targetPoint" />
          </mxGeometry>
        </mxCell>
        <mxCell id="E654WWtEkQ3MTWyRpt5Z-139" value="1" style="ellipse;whiteSpace=wrap;html=1;aspect=fixed;fillColor=#d5e8d4;strokeColor=#82b366;" vertex="1" parent="1">
          <mxGeometry x="60" y="2110" width="40" height="40" as="geometry" />
        </mxCell>
        <mxCell id="E654WWtEkQ3MTWyRpt5Z-140" value="" style="endArrow=classic;html=1;rounded=0;exitX=0.5;exitY=1;exitDx=0;exitDy=0;entryX=0;entryY=0;entryDx=0;entryDy=0;" edge="1" parent="1" source="E654WWtEkQ3MTWyRpt5Z-127" target="E654WWtEkQ3MTWyRpt5Z-139">
          <mxGeometry width="50" height="50" relative="1" as="geometry">
            <mxPoint x="390" y="2160" as="sourcePoint" />
            <mxPoint x="440" y="2110" as="targetPoint" />
          </mxGeometry>
        </mxCell>
        <mxCell id="E654WWtEkQ3MTWyRpt5Z-141" value="7" style="rounded=0;whiteSpace=wrap;html=1;fillColor=#ffcc99;strokeColor=#36393d;" vertex="1" parent="1">
          <mxGeometry x="115" y="1870" width="50" height="20" as="geometry" />
        </mxCell>
        <mxCell id="E654WWtEkQ3MTWyRpt5Z-142" value="4" style="ellipse;whiteSpace=wrap;html=1;aspect=fixed;fillColor=#d5e8d4;strokeColor=#82b366;" vertex="1" parent="1">
          <mxGeometry x="500" y="1900" width="40" height="40" as="geometry" />
        </mxCell>
        <mxCell id="E654WWtEkQ3MTWyRpt5Z-143" value="3" style="ellipse;whiteSpace=wrap;html=1;aspect=fixed;fillColor=#d5e8d4;strokeColor=#82b366;" vertex="1" parent="1">
          <mxGeometry x="440" y="1960" width="40" height="40" as="geometry" />
        </mxCell>
        <mxCell id="E654WWtEkQ3MTWyRpt5Z-144" value="12" style="ellipse;whiteSpace=wrap;html=1;aspect=fixed;fillColor=#d5e8d4;strokeColor=#82b366;" vertex="1" parent="1">
          <mxGeometry x="550" y="1960" width="40" height="40" as="geometry" />
        </mxCell>
        <mxCell id="E654WWtEkQ3MTWyRpt5Z-145" value="1" style="ellipse;whiteSpace=wrap;html=1;aspect=fixed;fillColor=#d5e8d4;strokeColor=#82b366;" vertex="1" parent="1">
          <mxGeometry x="400" y="2040" width="40" height="40" as="geometry" />
        </mxCell>
        <mxCell id="E654WWtEkQ3MTWyRpt5Z-146" value="" style="endArrow=classic;html=1;rounded=0;exitX=0.5;exitY=1;exitDx=0;exitDy=0;entryX=0;entryY=0;entryDx=0;entryDy=0;" edge="1" parent="1" source="E654WWtEkQ3MTWyRpt5Z-142" target="E654WWtEkQ3MTWyRpt5Z-144">
          <mxGeometry width="50" height="50" relative="1" as="geometry">
            <mxPoint x="770" y="2150" as="sourcePoint" />
            <mxPoint x="820" y="2100" as="targetPoint" />
          </mxGeometry>
        </mxCell>
        <mxCell id="E654WWtEkQ3MTWyRpt5Z-147" value="" style="endArrow=classic;html=1;rounded=0;exitX=0.5;exitY=1;exitDx=0;exitDy=0;entryX=1;entryY=0;entryDx=0;entryDy=0;" edge="1" parent="1" source="E654WWtEkQ3MTWyRpt5Z-142" target="E654WWtEkQ3MTWyRpt5Z-143">
          <mxGeometry width="50" height="50" relative="1" as="geometry">
            <mxPoint x="530" y="1950" as="sourcePoint" />
            <mxPoint x="566" y="1976" as="targetPoint" />
          </mxGeometry>
        </mxCell>
        <mxCell id="E654WWtEkQ3MTWyRpt5Z-148" value="" style="endArrow=classic;html=1;rounded=0;exitX=0.5;exitY=1;exitDx=0;exitDy=0;" edge="1" parent="1" source="E654WWtEkQ3MTWyRpt5Z-143" target="E654WWtEkQ3MTWyRpt5Z-145">
          <mxGeometry width="50" height="50" relative="1" as="geometry">
            <mxPoint x="540" y="1960" as="sourcePoint" />
            <mxPoint x="576" y="1986" as="targetPoint" />
          </mxGeometry>
        </mxCell>
        <mxCell id="E654WWtEkQ3MTWyRpt5Z-149" value="5" style="ellipse;whiteSpace=wrap;html=1;aspect=fixed;fillColor=#d5e8d4;strokeColor=#82b366;" vertex="1" parent="1">
          <mxGeometry x="480" y="2040" width="40" height="40" as="geometry" />
        </mxCell>
        <mxCell id="E654WWtEkQ3MTWyRpt5Z-150" value="" style="endArrow=classic;html=1;rounded=0;exitX=0.5;exitY=1;exitDx=0;exitDy=0;entryX=0;entryY=0;entryDx=0;entryDy=0;" edge="1" parent="1" source="E654WWtEkQ3MTWyRpt5Z-143" target="E654WWtEkQ3MTWyRpt5Z-149">
          <mxGeometry width="50" height="50" relative="1" as="geometry">
            <mxPoint x="770" y="2140" as="sourcePoint" />
            <mxPoint x="820" y="2090" as="targetPoint" />
          </mxGeometry>
        </mxCell>
        <mxCell id="E654WWtEkQ3MTWyRpt5Z-151" value="13" style="ellipse;whiteSpace=wrap;html=1;aspect=fixed;fillColor=#d5e8d4;strokeColor=#82b366;" vertex="1" parent="1">
          <mxGeometry x="520" y="2040" width="40" height="40" as="geometry" />
        </mxCell>
        <mxCell id="E654WWtEkQ3MTWyRpt5Z-152" value="43" style="ellipse;whiteSpace=wrap;html=1;aspect=fixed;" vertex="1" parent="1">
          <mxGeometry x="590" y="2040" width="40" height="40" as="geometry" />
        </mxCell>
        <mxCell id="E654WWtEkQ3MTWyRpt5Z-153" value="" style="endArrow=classic;html=1;rounded=0;exitX=0.5;exitY=1;exitDx=0;exitDy=0;entryX=1;entryY=0;entryDx=0;entryDy=0;" edge="1" parent="1" source="E654WWtEkQ3MTWyRpt5Z-144" target="E654WWtEkQ3MTWyRpt5Z-151">
          <mxGeometry width="50" height="50" relative="1" as="geometry">
            <mxPoint x="770" y="2150" as="sourcePoint" />
            <mxPoint x="820" y="2100" as="targetPoint" />
          </mxGeometry>
        </mxCell>
        <mxCell id="E654WWtEkQ3MTWyRpt5Z-154" value="" style="endArrow=classic;html=1;rounded=0;entryX=0;entryY=0;entryDx=0;entryDy=0;" edge="1" parent="1" target="E654WWtEkQ3MTWyRpt5Z-152">
          <mxGeometry width="50" height="50" relative="1" as="geometry">
            <mxPoint x="570" y="2000" as="sourcePoint" />
            <mxPoint x="564" y="2056" as="targetPoint" />
          </mxGeometry>
        </mxCell>
        <mxCell id="E654WWtEkQ3MTWyRpt5Z-155" value="3" style="ellipse;whiteSpace=wrap;html=1;aspect=fixed;fillColor=#d5e8d4;strokeColor=#82b366;" vertex="1" parent="1">
          <mxGeometry x="360" y="2110" width="40" height="40" as="geometry" />
        </mxCell>
        <mxCell id="E654WWtEkQ3MTWyRpt5Z-156" value="" style="endArrow=classic;html=1;rounded=0;exitX=0.5;exitY=1;exitDx=0;exitDy=0;entryX=1;entryY=0;entryDx=0;entryDy=0;" edge="1" parent="1" source="E654WWtEkQ3MTWyRpt5Z-145" target="E654WWtEkQ3MTWyRpt5Z-155">
          <mxGeometry width="50" height="50" relative="1" as="geometry">
            <mxPoint x="770" y="2160" as="sourcePoint" />
            <mxPoint x="820" y="2110" as="targetPoint" />
          </mxGeometry>
        </mxCell>
        <mxCell id="E654WWtEkQ3MTWyRpt5Z-157" value="1" style="ellipse;whiteSpace=wrap;html=1;aspect=fixed;fillColor=#d5e8d4;strokeColor=#82b366;" vertex="1" parent="1">
          <mxGeometry x="440" y="2110" width="40" height="40" as="geometry" />
        </mxCell>
        <mxCell id="E654WWtEkQ3MTWyRpt5Z-158" value="" style="endArrow=classic;html=1;rounded=0;exitX=0.5;exitY=1;exitDx=0;exitDy=0;entryX=0;entryY=0;entryDx=0;entryDy=0;" edge="1" parent="1" source="E654WWtEkQ3MTWyRpt5Z-145" target="E654WWtEkQ3MTWyRpt5Z-157">
          <mxGeometry width="50" height="50" relative="1" as="geometry">
            <mxPoint x="770" y="2160" as="sourcePoint" />
            <mxPoint x="820" y="2110" as="targetPoint" />
          </mxGeometry>
        </mxCell>
        <mxCell id="E654WWtEkQ3MTWyRpt5Z-159" value="8" style="rounded=0;whiteSpace=wrap;html=1;fillColor=#ffcc99;strokeColor=#36393d;" vertex="1" parent="1">
          <mxGeometry x="495" y="1870" width="50" height="20" as="geometry" />
        </mxCell>
        <mxCell id="E654WWtEkQ3MTWyRpt5Z-160" value="4" style="ellipse;whiteSpace=wrap;html=1;aspect=fixed;fillColor=#d5e8d4;strokeColor=#82b366;" vertex="1" parent="1">
          <mxGeometry x="865" y="1900" width="40" height="40" as="geometry" />
        </mxCell>
        <mxCell id="E654WWtEkQ3MTWyRpt5Z-161" value="3" style="ellipse;whiteSpace=wrap;html=1;aspect=fixed;fillColor=#d5e8d4;strokeColor=#82b366;" vertex="1" parent="1">
          <mxGeometry x="805" y="1960" width="40" height="40" as="geometry" />
        </mxCell>
        <mxCell id="E654WWtEkQ3MTWyRpt5Z-162" value="12" style="ellipse;whiteSpace=wrap;html=1;aspect=fixed;fillColor=#d5e8d4;strokeColor=#82b366;" vertex="1" parent="1">
          <mxGeometry x="915" y="1960" width="40" height="40" as="geometry" />
        </mxCell>
        <mxCell id="E654WWtEkQ3MTWyRpt5Z-163" value="1" style="ellipse;whiteSpace=wrap;html=1;aspect=fixed;fillColor=#d5e8d4;strokeColor=#82b366;" vertex="1" parent="1">
          <mxGeometry x="765" y="2040" width="40" height="40" as="geometry" />
        </mxCell>
        <mxCell id="E654WWtEkQ3MTWyRpt5Z-164" value="" style="endArrow=classic;html=1;rounded=0;exitX=0.5;exitY=1;exitDx=0;exitDy=0;entryX=0;entryY=0;entryDx=0;entryDy=0;" edge="1" parent="1" source="E654WWtEkQ3MTWyRpt5Z-160" target="E654WWtEkQ3MTWyRpt5Z-162">
          <mxGeometry width="50" height="50" relative="1" as="geometry">
            <mxPoint x="1135" y="2150" as="sourcePoint" />
            <mxPoint x="1185" y="2100" as="targetPoint" />
          </mxGeometry>
        </mxCell>
        <mxCell id="E654WWtEkQ3MTWyRpt5Z-165" value="" style="endArrow=classic;html=1;rounded=0;exitX=0.5;exitY=1;exitDx=0;exitDy=0;entryX=1;entryY=0;entryDx=0;entryDy=0;" edge="1" parent="1" source="E654WWtEkQ3MTWyRpt5Z-160" target="E654WWtEkQ3MTWyRpt5Z-161">
          <mxGeometry width="50" height="50" relative="1" as="geometry">
            <mxPoint x="895" y="1950" as="sourcePoint" />
            <mxPoint x="931" y="1976" as="targetPoint" />
          </mxGeometry>
        </mxCell>
        <mxCell id="E654WWtEkQ3MTWyRpt5Z-166" value="" style="endArrow=classic;html=1;rounded=0;exitX=0.5;exitY=1;exitDx=0;exitDy=0;" edge="1" parent="1" source="E654WWtEkQ3MTWyRpt5Z-161" target="E654WWtEkQ3MTWyRpt5Z-163">
          <mxGeometry width="50" height="50" relative="1" as="geometry">
            <mxPoint x="905" y="1960" as="sourcePoint" />
            <mxPoint x="941" y="1986" as="targetPoint" />
          </mxGeometry>
        </mxCell>
        <mxCell id="E654WWtEkQ3MTWyRpt5Z-167" value="5" style="ellipse;whiteSpace=wrap;html=1;aspect=fixed;fillColor=#d5e8d4;strokeColor=#82b366;" vertex="1" parent="1">
          <mxGeometry x="845" y="2040" width="40" height="40" as="geometry" />
        </mxCell>
        <mxCell id="E654WWtEkQ3MTWyRpt5Z-168" value="" style="endArrow=classic;html=1;rounded=0;exitX=0.5;exitY=1;exitDx=0;exitDy=0;entryX=0;entryY=0;entryDx=0;entryDy=0;" edge="1" parent="1" source="E654WWtEkQ3MTWyRpt5Z-161" target="E654WWtEkQ3MTWyRpt5Z-167">
          <mxGeometry width="50" height="50" relative="1" as="geometry">
            <mxPoint x="1135" y="2140" as="sourcePoint" />
            <mxPoint x="1185" y="2090" as="targetPoint" />
          </mxGeometry>
        </mxCell>
        <mxCell id="E654WWtEkQ3MTWyRpt5Z-169" value="13" style="ellipse;whiteSpace=wrap;html=1;aspect=fixed;fillColor=#d5e8d4;strokeColor=#82b366;" vertex="1" parent="1">
          <mxGeometry x="885" y="2040" width="40" height="40" as="geometry" />
        </mxCell>
        <mxCell id="E654WWtEkQ3MTWyRpt5Z-170" value="43" style="ellipse;whiteSpace=wrap;html=1;aspect=fixed;fillColor=#d5e8d4;strokeColor=#82b366;" vertex="1" parent="1">
          <mxGeometry x="955" y="2040" width="40" height="40" as="geometry" />
        </mxCell>
        <mxCell id="E654WWtEkQ3MTWyRpt5Z-171" value="" style="endArrow=classic;html=1;rounded=0;exitX=0.5;exitY=1;exitDx=0;exitDy=0;entryX=1;entryY=0;entryDx=0;entryDy=0;" edge="1" parent="1" source="E654WWtEkQ3MTWyRpt5Z-162" target="E654WWtEkQ3MTWyRpt5Z-169">
          <mxGeometry width="50" height="50" relative="1" as="geometry">
            <mxPoint x="1135" y="2150" as="sourcePoint" />
            <mxPoint x="1185" y="2100" as="targetPoint" />
          </mxGeometry>
        </mxCell>
        <mxCell id="E654WWtEkQ3MTWyRpt5Z-172" value="" style="endArrow=classic;html=1;rounded=0;entryX=0;entryY=0;entryDx=0;entryDy=0;" edge="1" parent="1" target="E654WWtEkQ3MTWyRpt5Z-170">
          <mxGeometry width="50" height="50" relative="1" as="geometry">
            <mxPoint x="935" y="2000" as="sourcePoint" />
            <mxPoint x="929" y="2056" as="targetPoint" />
          </mxGeometry>
        </mxCell>
        <mxCell id="E654WWtEkQ3MTWyRpt5Z-173" value="3" style="ellipse;whiteSpace=wrap;html=1;aspect=fixed;fillColor=#d5e8d4;strokeColor=#82b366;" vertex="1" parent="1">
          <mxGeometry x="725" y="2110" width="40" height="40" as="geometry" />
        </mxCell>
        <mxCell id="E654WWtEkQ3MTWyRpt5Z-174" value="" style="endArrow=classic;html=1;rounded=0;exitX=0.5;exitY=1;exitDx=0;exitDy=0;entryX=1;entryY=0;entryDx=0;entryDy=0;" edge="1" parent="1" source="E654WWtEkQ3MTWyRpt5Z-163" target="E654WWtEkQ3MTWyRpt5Z-173">
          <mxGeometry width="50" height="50" relative="1" as="geometry">
            <mxPoint x="1135" y="2160" as="sourcePoint" />
            <mxPoint x="1185" y="2110" as="targetPoint" />
          </mxGeometry>
        </mxCell>
        <mxCell id="E654WWtEkQ3MTWyRpt5Z-175" value="1" style="ellipse;whiteSpace=wrap;html=1;aspect=fixed;fillColor=#d5e8d4;strokeColor=#82b366;" vertex="1" parent="1">
          <mxGeometry x="805" y="2110" width="40" height="40" as="geometry" />
        </mxCell>
        <mxCell id="E654WWtEkQ3MTWyRpt5Z-176" value="" style="endArrow=classic;html=1;rounded=0;exitX=0.5;exitY=1;exitDx=0;exitDy=0;entryX=0;entryY=0;entryDx=0;entryDy=0;" edge="1" parent="1" source="E654WWtEkQ3MTWyRpt5Z-163" target="E654WWtEkQ3MTWyRpt5Z-175">
          <mxGeometry width="50" height="50" relative="1" as="geometry">
            <mxPoint x="1135" y="2160" as="sourcePoint" />
            <mxPoint x="1185" y="2110" as="targetPoint" />
          </mxGeometry>
        </mxCell>
        <mxCell id="E654WWtEkQ3MTWyRpt5Z-177" value="9" style="rounded=0;whiteSpace=wrap;html=1;fillColor=#ffcc99;strokeColor=#36393d;" vertex="1" parent="1">
          <mxGeometry x="860" y="1870" width="50" height="20" as="geometry" />
        </mxCell>
        <mxCell id="E654WWtEkQ3MTWyRpt5Z-179" value="4" style="ellipse;whiteSpace=wrap;html=1;aspect=fixed;" vertex="1" parent="1">
          <mxGeometry x="120" y="2330" width="40" height="40" as="geometry" />
        </mxCell>
        <mxCell id="E654WWtEkQ3MTWyRpt5Z-180" value="3" style="ellipse;whiteSpace=wrap;html=1;aspect=fixed;" vertex="1" parent="1">
          <mxGeometry x="60" y="2390" width="40" height="40" as="geometry" />
        </mxCell>
        <mxCell id="E654WWtEkQ3MTWyRpt5Z-181" value="12" style="ellipse;whiteSpace=wrap;html=1;aspect=fixed;" vertex="1" parent="1">
          <mxGeometry x="170" y="2390" width="40" height="40" as="geometry" />
        </mxCell>
        <mxCell id="E654WWtEkQ3MTWyRpt5Z-182" value="1" style="ellipse;whiteSpace=wrap;html=1;aspect=fixed;" vertex="1" parent="1">
          <mxGeometry x="20" y="2470" width="40" height="40" as="geometry" />
        </mxCell>
        <mxCell id="E654WWtEkQ3MTWyRpt5Z-183" value="" style="endArrow=classic;html=1;rounded=0;exitX=0.5;exitY=1;exitDx=0;exitDy=0;entryX=0;entryY=0;entryDx=0;entryDy=0;" edge="1" parent="1" source="E654WWtEkQ3MTWyRpt5Z-179" target="E654WWtEkQ3MTWyRpt5Z-181">
          <mxGeometry width="50" height="50" relative="1" as="geometry">
            <mxPoint x="390" y="2580" as="sourcePoint" />
            <mxPoint x="440" y="2530" as="targetPoint" />
          </mxGeometry>
        </mxCell>
        <mxCell id="E654WWtEkQ3MTWyRpt5Z-184" value="" style="endArrow=classic;html=1;rounded=0;exitX=0.5;exitY=1;exitDx=0;exitDy=0;entryX=1;entryY=0;entryDx=0;entryDy=0;" edge="1" parent="1" source="E654WWtEkQ3MTWyRpt5Z-179" target="E654WWtEkQ3MTWyRpt5Z-180">
          <mxGeometry width="50" height="50" relative="1" as="geometry">
            <mxPoint x="150" y="2380" as="sourcePoint" />
            <mxPoint x="186" y="2406" as="targetPoint" />
          </mxGeometry>
        </mxCell>
        <mxCell id="E654WWtEkQ3MTWyRpt5Z-185" value="" style="endArrow=classic;html=1;rounded=0;exitX=0.5;exitY=1;exitDx=0;exitDy=0;" edge="1" parent="1" source="E654WWtEkQ3MTWyRpt5Z-180" target="E654WWtEkQ3MTWyRpt5Z-182">
          <mxGeometry width="50" height="50" relative="1" as="geometry">
            <mxPoint x="160" y="2390" as="sourcePoint" />
            <mxPoint x="196" y="2416" as="targetPoint" />
          </mxGeometry>
        </mxCell>
        <mxCell id="E654WWtEkQ3MTWyRpt5Z-186" value="5" style="ellipse;whiteSpace=wrap;html=1;aspect=fixed;" vertex="1" parent="1">
          <mxGeometry x="100" y="2470" width="40" height="40" as="geometry" />
        </mxCell>
        <mxCell id="E654WWtEkQ3MTWyRpt5Z-187" value="" style="endArrow=classic;html=1;rounded=0;exitX=0.5;exitY=1;exitDx=0;exitDy=0;entryX=0;entryY=0;entryDx=0;entryDy=0;" edge="1" parent="1" source="E654WWtEkQ3MTWyRpt5Z-180" target="E654WWtEkQ3MTWyRpt5Z-186">
          <mxGeometry width="50" height="50" relative="1" as="geometry">
            <mxPoint x="390" y="2570" as="sourcePoint" />
            <mxPoint x="440" y="2520" as="targetPoint" />
          </mxGeometry>
        </mxCell>
        <mxCell id="E654WWtEkQ3MTWyRpt5Z-188" value="13" style="ellipse;whiteSpace=wrap;html=1;aspect=fixed;" vertex="1" parent="1">
          <mxGeometry x="140" y="2470" width="40" height="40" as="geometry" />
        </mxCell>
        <mxCell id="E654WWtEkQ3MTWyRpt5Z-189" value="43" style="ellipse;whiteSpace=wrap;html=1;aspect=fixed;" vertex="1" parent="1">
          <mxGeometry x="210" y="2470" width="40" height="40" as="geometry" />
        </mxCell>
        <mxCell id="E654WWtEkQ3MTWyRpt5Z-190" value="" style="endArrow=classic;html=1;rounded=0;exitX=0.5;exitY=1;exitDx=0;exitDy=0;entryX=1;entryY=0;entryDx=0;entryDy=0;" edge="1" parent="1" source="E654WWtEkQ3MTWyRpt5Z-181" target="E654WWtEkQ3MTWyRpt5Z-188">
          <mxGeometry width="50" height="50" relative="1" as="geometry">
            <mxPoint x="390" y="2580" as="sourcePoint" />
            <mxPoint x="440" y="2530" as="targetPoint" />
          </mxGeometry>
        </mxCell>
        <mxCell id="E654WWtEkQ3MTWyRpt5Z-191" value="" style="endArrow=classic;html=1;rounded=0;entryX=0;entryY=0;entryDx=0;entryDy=0;" edge="1" parent="1" target="E654WWtEkQ3MTWyRpt5Z-189">
          <mxGeometry width="50" height="50" relative="1" as="geometry">
            <mxPoint x="190" y="2430" as="sourcePoint" />
            <mxPoint x="184" y="2486" as="targetPoint" />
          </mxGeometry>
        </mxCell>
        <mxCell id="E654WWtEkQ3MTWyRpt5Z-192" value="3" style="ellipse;whiteSpace=wrap;html=1;aspect=fixed;fillColor=#d5e8d4;strokeColor=#82b366;" vertex="1" parent="1">
          <mxGeometry x="-20" y="2540" width="40" height="40" as="geometry" />
        </mxCell>
        <mxCell id="E654WWtEkQ3MTWyRpt5Z-193" value="" style="endArrow=classic;html=1;rounded=0;exitX=0.5;exitY=1;exitDx=0;exitDy=0;entryX=1;entryY=0;entryDx=0;entryDy=0;" edge="1" parent="1" source="E654WWtEkQ3MTWyRpt5Z-182" target="E654WWtEkQ3MTWyRpt5Z-192">
          <mxGeometry width="50" height="50" relative="1" as="geometry">
            <mxPoint x="390" y="2590" as="sourcePoint" />
            <mxPoint x="440" y="2540" as="targetPoint" />
          </mxGeometry>
        </mxCell>
        <mxCell id="E654WWtEkQ3MTWyRpt5Z-194" value="1" style="ellipse;whiteSpace=wrap;html=1;aspect=fixed;" vertex="1" parent="1">
          <mxGeometry x="60" y="2540" width="40" height="40" as="geometry" />
        </mxCell>
        <mxCell id="E654WWtEkQ3MTWyRpt5Z-195" value="" style="endArrow=classic;html=1;rounded=0;exitX=0.5;exitY=1;exitDx=0;exitDy=0;entryX=0;entryY=0;entryDx=0;entryDy=0;" edge="1" parent="1" source="E654WWtEkQ3MTWyRpt5Z-182" target="E654WWtEkQ3MTWyRpt5Z-194">
          <mxGeometry width="50" height="50" relative="1" as="geometry">
            <mxPoint x="390" y="2590" as="sourcePoint" />
            <mxPoint x="440" y="2540" as="targetPoint" />
          </mxGeometry>
        </mxCell>
        <mxCell id="E654WWtEkQ3MTWyRpt5Z-196" value="1" style="rounded=0;whiteSpace=wrap;html=1;fillColor=#ffcc99;strokeColor=#36393d;" vertex="1" parent="1">
          <mxGeometry x="115" y="2300" width="50" height="20" as="geometry" />
        </mxCell>
        <mxCell id="E654WWtEkQ3MTWyRpt5Z-198" value="4" style="ellipse;whiteSpace=wrap;html=1;aspect=fixed;" vertex="1" parent="1">
          <mxGeometry x="540" y="2330" width="40" height="40" as="geometry" />
        </mxCell>
        <mxCell id="E654WWtEkQ3MTWyRpt5Z-199" value="3" style="ellipse;whiteSpace=wrap;html=1;aspect=fixed;" vertex="1" parent="1">
          <mxGeometry x="480" y="2390" width="40" height="40" as="geometry" />
        </mxCell>
        <mxCell id="E654WWtEkQ3MTWyRpt5Z-200" value="12" style="ellipse;whiteSpace=wrap;html=1;aspect=fixed;" vertex="1" parent="1">
          <mxGeometry x="590" y="2390" width="40" height="40" as="geometry" />
        </mxCell>
        <mxCell id="E654WWtEkQ3MTWyRpt5Z-201" value="1" style="ellipse;whiteSpace=wrap;html=1;aspect=fixed;" vertex="1" parent="1">
          <mxGeometry x="440" y="2470" width="40" height="40" as="geometry" />
        </mxCell>
        <mxCell id="E654WWtEkQ3MTWyRpt5Z-202" value="" style="endArrow=classic;html=1;rounded=0;exitX=0.5;exitY=1;exitDx=0;exitDy=0;entryX=0;entryY=0;entryDx=0;entryDy=0;" edge="1" parent="1" source="E654WWtEkQ3MTWyRpt5Z-198" target="E654WWtEkQ3MTWyRpt5Z-200">
          <mxGeometry width="50" height="50" relative="1" as="geometry">
            <mxPoint x="810" y="2580" as="sourcePoint" />
            <mxPoint x="860" y="2530" as="targetPoint" />
          </mxGeometry>
        </mxCell>
        <mxCell id="E654WWtEkQ3MTWyRpt5Z-203" value="" style="endArrow=classic;html=1;rounded=0;exitX=0.5;exitY=1;exitDx=0;exitDy=0;entryX=1;entryY=0;entryDx=0;entryDy=0;" edge="1" parent="1" source="E654WWtEkQ3MTWyRpt5Z-198" target="E654WWtEkQ3MTWyRpt5Z-199">
          <mxGeometry width="50" height="50" relative="1" as="geometry">
            <mxPoint x="570" y="2380" as="sourcePoint" />
            <mxPoint x="606" y="2406" as="targetPoint" />
          </mxGeometry>
        </mxCell>
        <mxCell id="E654WWtEkQ3MTWyRpt5Z-204" value="" style="endArrow=classic;html=1;rounded=0;exitX=0.5;exitY=1;exitDx=0;exitDy=0;" edge="1" parent="1" source="E654WWtEkQ3MTWyRpt5Z-199" target="E654WWtEkQ3MTWyRpt5Z-201">
          <mxGeometry width="50" height="50" relative="1" as="geometry">
            <mxPoint x="580" y="2390" as="sourcePoint" />
            <mxPoint x="616" y="2416" as="targetPoint" />
          </mxGeometry>
        </mxCell>
        <mxCell id="E654WWtEkQ3MTWyRpt5Z-205" value="5" style="ellipse;whiteSpace=wrap;html=1;aspect=fixed;" vertex="1" parent="1">
          <mxGeometry x="520" y="2470" width="40" height="40" as="geometry" />
        </mxCell>
        <mxCell id="E654WWtEkQ3MTWyRpt5Z-206" value="" style="endArrow=classic;html=1;rounded=0;exitX=0.5;exitY=1;exitDx=0;exitDy=0;entryX=0;entryY=0;entryDx=0;entryDy=0;" edge="1" parent="1" source="E654WWtEkQ3MTWyRpt5Z-199" target="E654WWtEkQ3MTWyRpt5Z-205">
          <mxGeometry width="50" height="50" relative="1" as="geometry">
            <mxPoint x="810" y="2570" as="sourcePoint" />
            <mxPoint x="860" y="2520" as="targetPoint" />
          </mxGeometry>
        </mxCell>
        <mxCell id="E654WWtEkQ3MTWyRpt5Z-207" value="13" style="ellipse;whiteSpace=wrap;html=1;aspect=fixed;" vertex="1" parent="1">
          <mxGeometry x="560" y="2470" width="40" height="40" as="geometry" />
        </mxCell>
        <mxCell id="E654WWtEkQ3MTWyRpt5Z-208" value="43" style="ellipse;whiteSpace=wrap;html=1;aspect=fixed;" vertex="1" parent="1">
          <mxGeometry x="630" y="2470" width="40" height="40" as="geometry" />
        </mxCell>
        <mxCell id="E654WWtEkQ3MTWyRpt5Z-209" value="" style="endArrow=classic;html=1;rounded=0;exitX=0.5;exitY=1;exitDx=0;exitDy=0;entryX=1;entryY=0;entryDx=0;entryDy=0;" edge="1" parent="1" source="E654WWtEkQ3MTWyRpt5Z-200" target="E654WWtEkQ3MTWyRpt5Z-207">
          <mxGeometry width="50" height="50" relative="1" as="geometry">
            <mxPoint x="810" y="2580" as="sourcePoint" />
            <mxPoint x="860" y="2530" as="targetPoint" />
          </mxGeometry>
        </mxCell>
        <mxCell id="E654WWtEkQ3MTWyRpt5Z-210" value="" style="endArrow=classic;html=1;rounded=0;entryX=0;entryY=0;entryDx=0;entryDy=0;" edge="1" parent="1" target="E654WWtEkQ3MTWyRpt5Z-208">
          <mxGeometry width="50" height="50" relative="1" as="geometry">
            <mxPoint x="610" y="2430" as="sourcePoint" />
            <mxPoint x="604" y="2486" as="targetPoint" />
          </mxGeometry>
        </mxCell>
        <mxCell id="E654WWtEkQ3MTWyRpt5Z-211" value="3" style="ellipse;whiteSpace=wrap;html=1;aspect=fixed;fillColor=#d5e8d4;strokeColor=#82b366;" vertex="1" parent="1">
          <mxGeometry x="400" y="2540" width="40" height="40" as="geometry" />
        </mxCell>
        <mxCell id="E654WWtEkQ3MTWyRpt5Z-212" value="" style="endArrow=classic;html=1;rounded=0;exitX=0.5;exitY=1;exitDx=0;exitDy=0;entryX=1;entryY=0;entryDx=0;entryDy=0;" edge="1" parent="1" source="E654WWtEkQ3MTWyRpt5Z-201" target="E654WWtEkQ3MTWyRpt5Z-211">
          <mxGeometry width="50" height="50" relative="1" as="geometry">
            <mxPoint x="810" y="2590" as="sourcePoint" />
            <mxPoint x="860" y="2540" as="targetPoint" />
          </mxGeometry>
        </mxCell>
        <mxCell id="E654WWtEkQ3MTWyRpt5Z-213" value="1" style="ellipse;whiteSpace=wrap;html=1;aspect=fixed;fillColor=#d5e8d4;strokeColor=#82b366;" vertex="1" parent="1">
          <mxGeometry x="480" y="2540" width="40" height="40" as="geometry" />
        </mxCell>
        <mxCell id="E654WWtEkQ3MTWyRpt5Z-214" value="" style="endArrow=classic;html=1;rounded=0;exitX=0.5;exitY=1;exitDx=0;exitDy=0;entryX=0;entryY=0;entryDx=0;entryDy=0;" edge="1" parent="1" source="E654WWtEkQ3MTWyRpt5Z-201" target="E654WWtEkQ3MTWyRpt5Z-213">
          <mxGeometry width="50" height="50" relative="1" as="geometry">
            <mxPoint x="810" y="2590" as="sourcePoint" />
            <mxPoint x="860" y="2540" as="targetPoint" />
          </mxGeometry>
        </mxCell>
        <mxCell id="E654WWtEkQ3MTWyRpt5Z-215" value="2" style="rounded=0;whiteSpace=wrap;html=1;fillColor=#ffcc99;strokeColor=#36393d;" vertex="1" parent="1">
          <mxGeometry x="535" y="2300" width="50" height="20" as="geometry" />
        </mxCell>
        <mxCell id="E654WWtEkQ3MTWyRpt5Z-216" value="后序遍历" style="text;html=1;strokeColor=none;fillColor=none;align=center;verticalAlign=middle;whiteSpace=wrap;rounded=0;" vertex="1" parent="1">
          <mxGeometry x="-50" y="2270" width="60" height="30" as="geometry" />
        </mxCell>
        <mxCell id="E654WWtEkQ3MTWyRpt5Z-217" value="4" style="ellipse;whiteSpace=wrap;html=1;aspect=fixed;" vertex="1" parent="1">
          <mxGeometry x="940" y="2330" width="40" height="40" as="geometry" />
        </mxCell>
        <mxCell id="E654WWtEkQ3MTWyRpt5Z-218" value="3" style="ellipse;whiteSpace=wrap;html=1;aspect=fixed;" vertex="1" parent="1">
          <mxGeometry x="880" y="2390" width="40" height="40" as="geometry" />
        </mxCell>
        <mxCell id="E654WWtEkQ3MTWyRpt5Z-219" value="12" style="ellipse;whiteSpace=wrap;html=1;aspect=fixed;" vertex="1" parent="1">
          <mxGeometry x="990" y="2390" width="40" height="40" as="geometry" />
        </mxCell>
        <mxCell id="E654WWtEkQ3MTWyRpt5Z-220" value="1" style="ellipse;whiteSpace=wrap;html=1;aspect=fixed;fillColor=#d5e8d4;strokeColor=#82b366;" vertex="1" parent="1">
          <mxGeometry x="840" y="2470" width="40" height="40" as="geometry" />
        </mxCell>
        <mxCell id="E654WWtEkQ3MTWyRpt5Z-221" value="" style="endArrow=classic;html=1;rounded=0;exitX=0.5;exitY=1;exitDx=0;exitDy=0;entryX=0;entryY=0;entryDx=0;entryDy=0;" edge="1" parent="1" source="E654WWtEkQ3MTWyRpt5Z-217" target="E654WWtEkQ3MTWyRpt5Z-219">
          <mxGeometry width="50" height="50" relative="1" as="geometry">
            <mxPoint x="1210" y="2580" as="sourcePoint" />
            <mxPoint x="1260" y="2530" as="targetPoint" />
          </mxGeometry>
        </mxCell>
        <mxCell id="E654WWtEkQ3MTWyRpt5Z-222" value="" style="endArrow=classic;html=1;rounded=0;exitX=0.5;exitY=1;exitDx=0;exitDy=0;entryX=1;entryY=0;entryDx=0;entryDy=0;" edge="1" parent="1" source="E654WWtEkQ3MTWyRpt5Z-217" target="E654WWtEkQ3MTWyRpt5Z-218">
          <mxGeometry width="50" height="50" relative="1" as="geometry">
            <mxPoint x="970" y="2380" as="sourcePoint" />
            <mxPoint x="1006" y="2406" as="targetPoint" />
          </mxGeometry>
        </mxCell>
        <mxCell id="E654WWtEkQ3MTWyRpt5Z-223" value="" style="endArrow=classic;html=1;rounded=0;exitX=0.5;exitY=1;exitDx=0;exitDy=0;" edge="1" parent="1" source="E654WWtEkQ3MTWyRpt5Z-218" target="E654WWtEkQ3MTWyRpt5Z-220">
          <mxGeometry width="50" height="50" relative="1" as="geometry">
            <mxPoint x="980" y="2390" as="sourcePoint" />
            <mxPoint x="1016" y="2416" as="targetPoint" />
          </mxGeometry>
        </mxCell>
        <mxCell id="E654WWtEkQ3MTWyRpt5Z-224" value="5" style="ellipse;whiteSpace=wrap;html=1;aspect=fixed;" vertex="1" parent="1">
          <mxGeometry x="920" y="2470" width="40" height="40" as="geometry" />
        </mxCell>
        <mxCell id="E654WWtEkQ3MTWyRpt5Z-225" value="" style="endArrow=classic;html=1;rounded=0;exitX=0.5;exitY=1;exitDx=0;exitDy=0;entryX=0;entryY=0;entryDx=0;entryDy=0;" edge="1" parent="1" source="E654WWtEkQ3MTWyRpt5Z-218" target="E654WWtEkQ3MTWyRpt5Z-224">
          <mxGeometry width="50" height="50" relative="1" as="geometry">
            <mxPoint x="1210" y="2570" as="sourcePoint" />
            <mxPoint x="1260" y="2520" as="targetPoint" />
          </mxGeometry>
        </mxCell>
        <mxCell id="E654WWtEkQ3MTWyRpt5Z-226" value="13" style="ellipse;whiteSpace=wrap;html=1;aspect=fixed;" vertex="1" parent="1">
          <mxGeometry x="960" y="2470" width="40" height="40" as="geometry" />
        </mxCell>
        <mxCell id="E654WWtEkQ3MTWyRpt5Z-227" value="43" style="ellipse;whiteSpace=wrap;html=1;aspect=fixed;" vertex="1" parent="1">
          <mxGeometry x="1030" y="2470" width="40" height="40" as="geometry" />
        </mxCell>
        <mxCell id="E654WWtEkQ3MTWyRpt5Z-228" value="" style="endArrow=classic;html=1;rounded=0;exitX=0.5;exitY=1;exitDx=0;exitDy=0;entryX=1;entryY=0;entryDx=0;entryDy=0;" edge="1" parent="1" source="E654WWtEkQ3MTWyRpt5Z-219" target="E654WWtEkQ3MTWyRpt5Z-226">
          <mxGeometry width="50" height="50" relative="1" as="geometry">
            <mxPoint x="1210" y="2580" as="sourcePoint" />
            <mxPoint x="1260" y="2530" as="targetPoint" />
          </mxGeometry>
        </mxCell>
        <mxCell id="E654WWtEkQ3MTWyRpt5Z-229" value="" style="endArrow=classic;html=1;rounded=0;entryX=0;entryY=0;entryDx=0;entryDy=0;" edge="1" parent="1" target="E654WWtEkQ3MTWyRpt5Z-227">
          <mxGeometry width="50" height="50" relative="1" as="geometry">
            <mxPoint x="1010" y="2430" as="sourcePoint" />
            <mxPoint x="1004" y="2486" as="targetPoint" />
          </mxGeometry>
        </mxCell>
        <mxCell id="E654WWtEkQ3MTWyRpt5Z-230" value="3" style="ellipse;whiteSpace=wrap;html=1;aspect=fixed;fillColor=#d5e8d4;strokeColor=#82b366;" vertex="1" parent="1">
          <mxGeometry x="800" y="2540" width="40" height="40" as="geometry" />
        </mxCell>
        <mxCell id="E654WWtEkQ3MTWyRpt5Z-231" value="" style="endArrow=classic;html=1;rounded=0;exitX=0.5;exitY=1;exitDx=0;exitDy=0;entryX=1;entryY=0;entryDx=0;entryDy=0;" edge="1" parent="1" source="E654WWtEkQ3MTWyRpt5Z-220" target="E654WWtEkQ3MTWyRpt5Z-230">
          <mxGeometry width="50" height="50" relative="1" as="geometry">
            <mxPoint x="1210" y="2590" as="sourcePoint" />
            <mxPoint x="1260" y="2540" as="targetPoint" />
          </mxGeometry>
        </mxCell>
        <mxCell id="E654WWtEkQ3MTWyRpt5Z-232" value="1" style="ellipse;whiteSpace=wrap;html=1;aspect=fixed;fillColor=#d5e8d4;strokeColor=#82b366;" vertex="1" parent="1">
          <mxGeometry x="880" y="2540" width="40" height="40" as="geometry" />
        </mxCell>
        <mxCell id="E654WWtEkQ3MTWyRpt5Z-233" value="" style="endArrow=classic;html=1;rounded=0;exitX=0.5;exitY=1;exitDx=0;exitDy=0;entryX=0;entryY=0;entryDx=0;entryDy=0;" edge="1" parent="1" source="E654WWtEkQ3MTWyRpt5Z-220" target="E654WWtEkQ3MTWyRpt5Z-232">
          <mxGeometry width="50" height="50" relative="1" as="geometry">
            <mxPoint x="1210" y="2590" as="sourcePoint" />
            <mxPoint x="1260" y="2540" as="targetPoint" />
          </mxGeometry>
        </mxCell>
        <mxCell id="E654WWtEkQ3MTWyRpt5Z-234" value="3" style="rounded=0;whiteSpace=wrap;html=1;fillColor=#ffcc99;strokeColor=#36393d;" vertex="1" parent="1">
          <mxGeometry x="935" y="2300" width="50" height="20" as="geometry" />
        </mxCell>
        <mxCell id="E654WWtEkQ3MTWyRpt5Z-236" value="4" style="ellipse;whiteSpace=wrap;html=1;aspect=fixed;" vertex="1" parent="1">
          <mxGeometry x="120" y="2673" width="40" height="40" as="geometry" />
        </mxCell>
        <mxCell id="E654WWtEkQ3MTWyRpt5Z-237" value="3" style="ellipse;whiteSpace=wrap;html=1;aspect=fixed;" vertex="1" parent="1">
          <mxGeometry x="60" y="2733" width="40" height="40" as="geometry" />
        </mxCell>
        <mxCell id="E654WWtEkQ3MTWyRpt5Z-238" value="12" style="ellipse;whiteSpace=wrap;html=1;aspect=fixed;" vertex="1" parent="1">
          <mxGeometry x="170" y="2733" width="40" height="40" as="geometry" />
        </mxCell>
        <mxCell id="E654WWtEkQ3MTWyRpt5Z-239" value="1" style="ellipse;whiteSpace=wrap;html=1;aspect=fixed;fillColor=#d5e8d4;strokeColor=#82b366;" vertex="1" parent="1">
          <mxGeometry x="20" y="2813" width="40" height="40" as="geometry" />
        </mxCell>
        <mxCell id="E654WWtEkQ3MTWyRpt5Z-240" value="" style="endArrow=classic;html=1;rounded=0;exitX=0.5;exitY=1;exitDx=0;exitDy=0;entryX=0;entryY=0;entryDx=0;entryDy=0;" edge="1" parent="1" source="E654WWtEkQ3MTWyRpt5Z-236" target="E654WWtEkQ3MTWyRpt5Z-238">
          <mxGeometry width="50" height="50" relative="1" as="geometry">
            <mxPoint x="390" y="2923" as="sourcePoint" />
            <mxPoint x="440" y="2873" as="targetPoint" />
          </mxGeometry>
        </mxCell>
        <mxCell id="E654WWtEkQ3MTWyRpt5Z-241" value="" style="endArrow=classic;html=1;rounded=0;exitX=0.5;exitY=1;exitDx=0;exitDy=0;entryX=1;entryY=0;entryDx=0;entryDy=0;" edge="1" parent="1" source="E654WWtEkQ3MTWyRpt5Z-236" target="E654WWtEkQ3MTWyRpt5Z-237">
          <mxGeometry width="50" height="50" relative="1" as="geometry">
            <mxPoint x="150" y="2723" as="sourcePoint" />
            <mxPoint x="186" y="2749" as="targetPoint" />
          </mxGeometry>
        </mxCell>
        <mxCell id="E654WWtEkQ3MTWyRpt5Z-242" value="" style="endArrow=classic;html=1;rounded=0;exitX=0.5;exitY=1;exitDx=0;exitDy=0;" edge="1" parent="1" source="E654WWtEkQ3MTWyRpt5Z-237" target="E654WWtEkQ3MTWyRpt5Z-239">
          <mxGeometry width="50" height="50" relative="1" as="geometry">
            <mxPoint x="160" y="2733" as="sourcePoint" />
            <mxPoint x="196" y="2759" as="targetPoint" />
          </mxGeometry>
        </mxCell>
        <mxCell id="E654WWtEkQ3MTWyRpt5Z-243" value="5" style="ellipse;whiteSpace=wrap;html=1;aspect=fixed;fillColor=#d5e8d4;strokeColor=#82b366;" vertex="1" parent="1">
          <mxGeometry x="100" y="2813" width="40" height="40" as="geometry" />
        </mxCell>
        <mxCell id="E654WWtEkQ3MTWyRpt5Z-244" value="" style="endArrow=classic;html=1;rounded=0;exitX=0.5;exitY=1;exitDx=0;exitDy=0;entryX=0;entryY=0;entryDx=0;entryDy=0;" edge="1" parent="1" source="E654WWtEkQ3MTWyRpt5Z-237" target="E654WWtEkQ3MTWyRpt5Z-243">
          <mxGeometry width="50" height="50" relative="1" as="geometry">
            <mxPoint x="390" y="2913" as="sourcePoint" />
            <mxPoint x="440" y="2863" as="targetPoint" />
          </mxGeometry>
        </mxCell>
        <mxCell id="E654WWtEkQ3MTWyRpt5Z-245" value="13" style="ellipse;whiteSpace=wrap;html=1;aspect=fixed;" vertex="1" parent="1">
          <mxGeometry x="140" y="2813" width="40" height="40" as="geometry" />
        </mxCell>
        <mxCell id="E654WWtEkQ3MTWyRpt5Z-246" value="43" style="ellipse;whiteSpace=wrap;html=1;aspect=fixed;" vertex="1" parent="1">
          <mxGeometry x="210" y="2813" width="40" height="40" as="geometry" />
        </mxCell>
        <mxCell id="E654WWtEkQ3MTWyRpt5Z-247" value="" style="endArrow=classic;html=1;rounded=0;exitX=0.5;exitY=1;exitDx=0;exitDy=0;entryX=1;entryY=0;entryDx=0;entryDy=0;" edge="1" parent="1" source="E654WWtEkQ3MTWyRpt5Z-238" target="E654WWtEkQ3MTWyRpt5Z-245">
          <mxGeometry width="50" height="50" relative="1" as="geometry">
            <mxPoint x="390" y="2923" as="sourcePoint" />
            <mxPoint x="440" y="2873" as="targetPoint" />
          </mxGeometry>
        </mxCell>
        <mxCell id="E654WWtEkQ3MTWyRpt5Z-248" value="" style="endArrow=classic;html=1;rounded=0;entryX=0;entryY=0;entryDx=0;entryDy=0;" edge="1" parent="1" target="E654WWtEkQ3MTWyRpt5Z-246">
          <mxGeometry width="50" height="50" relative="1" as="geometry">
            <mxPoint x="190" y="2773" as="sourcePoint" />
            <mxPoint x="184" y="2829" as="targetPoint" />
          </mxGeometry>
        </mxCell>
        <mxCell id="E654WWtEkQ3MTWyRpt5Z-249" value="3" style="ellipse;whiteSpace=wrap;html=1;aspect=fixed;fillColor=#d5e8d4;strokeColor=#82b366;" vertex="1" parent="1">
          <mxGeometry x="-20" y="2883" width="40" height="40" as="geometry" />
        </mxCell>
        <mxCell id="E654WWtEkQ3MTWyRpt5Z-250" value="" style="endArrow=classic;html=1;rounded=0;exitX=0.5;exitY=1;exitDx=0;exitDy=0;entryX=1;entryY=0;entryDx=0;entryDy=0;" edge="1" parent="1" source="E654WWtEkQ3MTWyRpt5Z-239" target="E654WWtEkQ3MTWyRpt5Z-249">
          <mxGeometry width="50" height="50" relative="1" as="geometry">
            <mxPoint x="390" y="2933" as="sourcePoint" />
            <mxPoint x="440" y="2883" as="targetPoint" />
          </mxGeometry>
        </mxCell>
        <mxCell id="E654WWtEkQ3MTWyRpt5Z-251" value="1" style="ellipse;whiteSpace=wrap;html=1;aspect=fixed;fillColor=#d5e8d4;strokeColor=#82b366;" vertex="1" parent="1">
          <mxGeometry x="60" y="2883" width="40" height="40" as="geometry" />
        </mxCell>
        <mxCell id="E654WWtEkQ3MTWyRpt5Z-252" value="" style="endArrow=classic;html=1;rounded=0;exitX=0.5;exitY=1;exitDx=0;exitDy=0;entryX=0;entryY=0;entryDx=0;entryDy=0;" edge="1" parent="1" source="E654WWtEkQ3MTWyRpt5Z-239" target="E654WWtEkQ3MTWyRpt5Z-251">
          <mxGeometry width="50" height="50" relative="1" as="geometry">
            <mxPoint x="390" y="2933" as="sourcePoint" />
            <mxPoint x="440" y="2883" as="targetPoint" />
          </mxGeometry>
        </mxCell>
        <mxCell id="E654WWtEkQ3MTWyRpt5Z-253" value="4" style="rounded=0;whiteSpace=wrap;html=1;fillColor=#ffcc99;strokeColor=#36393d;" vertex="1" parent="1">
          <mxGeometry x="115" y="2643" width="50" height="20" as="geometry" />
        </mxCell>
        <mxCell id="E654WWtEkQ3MTWyRpt5Z-254" value="4" style="ellipse;whiteSpace=wrap;html=1;aspect=fixed;" vertex="1" parent="1">
          <mxGeometry x="540" y="2673" width="40" height="40" as="geometry" />
        </mxCell>
        <mxCell id="E654WWtEkQ3MTWyRpt5Z-255" value="3" style="ellipse;whiteSpace=wrap;html=1;aspect=fixed;fillColor=#d5e8d4;strokeColor=#82b366;" vertex="1" parent="1">
          <mxGeometry x="480" y="2733" width="40" height="40" as="geometry" />
        </mxCell>
        <mxCell id="E654WWtEkQ3MTWyRpt5Z-256" value="12" style="ellipse;whiteSpace=wrap;html=1;aspect=fixed;" vertex="1" parent="1">
          <mxGeometry x="590" y="2733" width="40" height="40" as="geometry" />
        </mxCell>
        <mxCell id="E654WWtEkQ3MTWyRpt5Z-257" value="1" style="ellipse;whiteSpace=wrap;html=1;aspect=fixed;fillColor=#d5e8d4;strokeColor=#82b366;" vertex="1" parent="1">
          <mxGeometry x="440" y="2813" width="40" height="40" as="geometry" />
        </mxCell>
        <mxCell id="E654WWtEkQ3MTWyRpt5Z-258" value="" style="endArrow=classic;html=1;rounded=0;exitX=0.5;exitY=1;exitDx=0;exitDy=0;entryX=0;entryY=0;entryDx=0;entryDy=0;" edge="1" parent="1" source="E654WWtEkQ3MTWyRpt5Z-254" target="E654WWtEkQ3MTWyRpt5Z-256">
          <mxGeometry width="50" height="50" relative="1" as="geometry">
            <mxPoint x="810" y="2923" as="sourcePoint" />
            <mxPoint x="860" y="2873" as="targetPoint" />
          </mxGeometry>
        </mxCell>
        <mxCell id="E654WWtEkQ3MTWyRpt5Z-259" value="" style="endArrow=classic;html=1;rounded=0;exitX=0.5;exitY=1;exitDx=0;exitDy=0;entryX=1;entryY=0;entryDx=0;entryDy=0;" edge="1" parent="1" source="E654WWtEkQ3MTWyRpt5Z-254" target="E654WWtEkQ3MTWyRpt5Z-255">
          <mxGeometry width="50" height="50" relative="1" as="geometry">
            <mxPoint x="570" y="2723" as="sourcePoint" />
            <mxPoint x="606" y="2749" as="targetPoint" />
          </mxGeometry>
        </mxCell>
        <mxCell id="E654WWtEkQ3MTWyRpt5Z-260" value="" style="endArrow=classic;html=1;rounded=0;exitX=0.5;exitY=1;exitDx=0;exitDy=0;" edge="1" parent="1" source="E654WWtEkQ3MTWyRpt5Z-255" target="E654WWtEkQ3MTWyRpt5Z-257">
          <mxGeometry width="50" height="50" relative="1" as="geometry">
            <mxPoint x="580" y="2733" as="sourcePoint" />
            <mxPoint x="616" y="2759" as="targetPoint" />
          </mxGeometry>
        </mxCell>
        <mxCell id="E654WWtEkQ3MTWyRpt5Z-261" value="5" style="ellipse;whiteSpace=wrap;html=1;aspect=fixed;fillColor=#d5e8d4;strokeColor=#82b366;" vertex="1" parent="1">
          <mxGeometry x="520" y="2813" width="40" height="40" as="geometry" />
        </mxCell>
        <mxCell id="E654WWtEkQ3MTWyRpt5Z-262" value="" style="endArrow=classic;html=1;rounded=0;exitX=0.5;exitY=1;exitDx=0;exitDy=0;entryX=0;entryY=0;entryDx=0;entryDy=0;" edge="1" parent="1" source="E654WWtEkQ3MTWyRpt5Z-255" target="E654WWtEkQ3MTWyRpt5Z-261">
          <mxGeometry width="50" height="50" relative="1" as="geometry">
            <mxPoint x="810" y="2913" as="sourcePoint" />
            <mxPoint x="860" y="2863" as="targetPoint" />
          </mxGeometry>
        </mxCell>
        <mxCell id="E654WWtEkQ3MTWyRpt5Z-263" value="13" style="ellipse;whiteSpace=wrap;html=1;aspect=fixed;" vertex="1" parent="1">
          <mxGeometry x="560" y="2813" width="40" height="40" as="geometry" />
        </mxCell>
        <mxCell id="E654WWtEkQ3MTWyRpt5Z-264" value="43" style="ellipse;whiteSpace=wrap;html=1;aspect=fixed;" vertex="1" parent="1">
          <mxGeometry x="630" y="2813" width="40" height="40" as="geometry" />
        </mxCell>
        <mxCell id="E654WWtEkQ3MTWyRpt5Z-265" value="" style="endArrow=classic;html=1;rounded=0;exitX=0.5;exitY=1;exitDx=0;exitDy=0;entryX=1;entryY=0;entryDx=0;entryDy=0;" edge="1" parent="1" source="E654WWtEkQ3MTWyRpt5Z-256" target="E654WWtEkQ3MTWyRpt5Z-263">
          <mxGeometry width="50" height="50" relative="1" as="geometry">
            <mxPoint x="810" y="2923" as="sourcePoint" />
            <mxPoint x="860" y="2873" as="targetPoint" />
          </mxGeometry>
        </mxCell>
        <mxCell id="E654WWtEkQ3MTWyRpt5Z-266" value="" style="endArrow=classic;html=1;rounded=0;entryX=0;entryY=0;entryDx=0;entryDy=0;" edge="1" parent="1" target="E654WWtEkQ3MTWyRpt5Z-264">
          <mxGeometry width="50" height="50" relative="1" as="geometry">
            <mxPoint x="610" y="2773" as="sourcePoint" />
            <mxPoint x="604" y="2829" as="targetPoint" />
          </mxGeometry>
        </mxCell>
        <mxCell id="E654WWtEkQ3MTWyRpt5Z-267" value="3" style="ellipse;whiteSpace=wrap;html=1;aspect=fixed;fillColor=#d5e8d4;strokeColor=#82b366;" vertex="1" parent="1">
          <mxGeometry x="400" y="2883" width="40" height="40" as="geometry" />
        </mxCell>
        <mxCell id="E654WWtEkQ3MTWyRpt5Z-268" value="" style="endArrow=classic;html=1;rounded=0;exitX=0.5;exitY=1;exitDx=0;exitDy=0;entryX=1;entryY=0;entryDx=0;entryDy=0;" edge="1" parent="1" source="E654WWtEkQ3MTWyRpt5Z-257" target="E654WWtEkQ3MTWyRpt5Z-267">
          <mxGeometry width="50" height="50" relative="1" as="geometry">
            <mxPoint x="810" y="2933" as="sourcePoint" />
            <mxPoint x="860" y="2883" as="targetPoint" />
          </mxGeometry>
        </mxCell>
        <mxCell id="E654WWtEkQ3MTWyRpt5Z-269" value="1" style="ellipse;whiteSpace=wrap;html=1;aspect=fixed;fillColor=#d5e8d4;strokeColor=#82b366;" vertex="1" parent="1">
          <mxGeometry x="480" y="2883" width="40" height="40" as="geometry" />
        </mxCell>
        <mxCell id="E654WWtEkQ3MTWyRpt5Z-270" value="" style="endArrow=classic;html=1;rounded=0;exitX=0.5;exitY=1;exitDx=0;exitDy=0;entryX=0;entryY=0;entryDx=0;entryDy=0;" edge="1" parent="1" source="E654WWtEkQ3MTWyRpt5Z-257" target="E654WWtEkQ3MTWyRpt5Z-269">
          <mxGeometry width="50" height="50" relative="1" as="geometry">
            <mxPoint x="810" y="2933" as="sourcePoint" />
            <mxPoint x="860" y="2883" as="targetPoint" />
          </mxGeometry>
        </mxCell>
        <mxCell id="E654WWtEkQ3MTWyRpt5Z-271" value="5" style="rounded=0;whiteSpace=wrap;html=1;fillColor=#ffcc99;strokeColor=#36393d;" vertex="1" parent="1">
          <mxGeometry x="535" y="2643" width="50" height="20" as="geometry" />
        </mxCell>
        <mxCell id="E654WWtEkQ3MTWyRpt5Z-272" value="4" style="ellipse;whiteSpace=wrap;html=1;aspect=fixed;" vertex="1" parent="1">
          <mxGeometry x="940" y="2673" width="40" height="40" as="geometry" />
        </mxCell>
        <mxCell id="E654WWtEkQ3MTWyRpt5Z-273" value="3" style="ellipse;whiteSpace=wrap;html=1;aspect=fixed;fillColor=#d5e8d4;strokeColor=#82b366;" vertex="1" parent="1">
          <mxGeometry x="880" y="2733" width="40" height="40" as="geometry" />
        </mxCell>
        <mxCell id="E654WWtEkQ3MTWyRpt5Z-274" value="12" style="ellipse;whiteSpace=wrap;html=1;aspect=fixed;" vertex="1" parent="1">
          <mxGeometry x="990" y="2733" width="40" height="40" as="geometry" />
        </mxCell>
        <mxCell id="E654WWtEkQ3MTWyRpt5Z-275" value="1" style="ellipse;whiteSpace=wrap;html=1;aspect=fixed;fillColor=#d5e8d4;strokeColor=#82b366;" vertex="1" parent="1">
          <mxGeometry x="840" y="2813" width="40" height="40" as="geometry" />
        </mxCell>
        <mxCell id="E654WWtEkQ3MTWyRpt5Z-276" value="" style="endArrow=classic;html=1;rounded=0;exitX=0.5;exitY=1;exitDx=0;exitDy=0;entryX=0;entryY=0;entryDx=0;entryDy=0;" edge="1" parent="1" source="E654WWtEkQ3MTWyRpt5Z-272" target="E654WWtEkQ3MTWyRpt5Z-274">
          <mxGeometry width="50" height="50" relative="1" as="geometry">
            <mxPoint x="1210" y="2923" as="sourcePoint" />
            <mxPoint x="1260" y="2873" as="targetPoint" />
          </mxGeometry>
        </mxCell>
        <mxCell id="E654WWtEkQ3MTWyRpt5Z-277" value="" style="endArrow=classic;html=1;rounded=0;exitX=0.5;exitY=1;exitDx=0;exitDy=0;entryX=1;entryY=0;entryDx=0;entryDy=0;" edge="1" parent="1" source="E654WWtEkQ3MTWyRpt5Z-272" target="E654WWtEkQ3MTWyRpt5Z-273">
          <mxGeometry width="50" height="50" relative="1" as="geometry">
            <mxPoint x="970" y="2723" as="sourcePoint" />
            <mxPoint x="1006" y="2749" as="targetPoint" />
          </mxGeometry>
        </mxCell>
        <mxCell id="E654WWtEkQ3MTWyRpt5Z-278" value="" style="endArrow=classic;html=1;rounded=0;exitX=0.5;exitY=1;exitDx=0;exitDy=0;" edge="1" parent="1" source="E654WWtEkQ3MTWyRpt5Z-273" target="E654WWtEkQ3MTWyRpt5Z-275">
          <mxGeometry width="50" height="50" relative="1" as="geometry">
            <mxPoint x="980" y="2733" as="sourcePoint" />
            <mxPoint x="1016" y="2759" as="targetPoint" />
          </mxGeometry>
        </mxCell>
        <mxCell id="E654WWtEkQ3MTWyRpt5Z-279" value="5" style="ellipse;whiteSpace=wrap;html=1;aspect=fixed;fillColor=#d5e8d4;strokeColor=#82b366;" vertex="1" parent="1">
          <mxGeometry x="920" y="2813" width="40" height="40" as="geometry" />
        </mxCell>
        <mxCell id="E654WWtEkQ3MTWyRpt5Z-280" value="" style="endArrow=classic;html=1;rounded=0;exitX=0.5;exitY=1;exitDx=0;exitDy=0;entryX=0;entryY=0;entryDx=0;entryDy=0;" edge="1" parent="1" source="E654WWtEkQ3MTWyRpt5Z-273" target="E654WWtEkQ3MTWyRpt5Z-279">
          <mxGeometry width="50" height="50" relative="1" as="geometry">
            <mxPoint x="1210" y="2913" as="sourcePoint" />
            <mxPoint x="1260" y="2863" as="targetPoint" />
          </mxGeometry>
        </mxCell>
        <mxCell id="E654WWtEkQ3MTWyRpt5Z-281" value="13" style="ellipse;whiteSpace=wrap;html=1;aspect=fixed;fillColor=#d5e8d4;strokeColor=#82b366;" vertex="1" parent="1">
          <mxGeometry x="960" y="2813" width="40" height="40" as="geometry" />
        </mxCell>
        <mxCell id="E654WWtEkQ3MTWyRpt5Z-282" value="43" style="ellipse;whiteSpace=wrap;html=1;aspect=fixed;" vertex="1" parent="1">
          <mxGeometry x="1030" y="2813" width="40" height="40" as="geometry" />
        </mxCell>
        <mxCell id="E654WWtEkQ3MTWyRpt5Z-283" value="" style="endArrow=classic;html=1;rounded=0;exitX=0.5;exitY=1;exitDx=0;exitDy=0;entryX=1;entryY=0;entryDx=0;entryDy=0;" edge="1" parent="1" source="E654WWtEkQ3MTWyRpt5Z-274" target="E654WWtEkQ3MTWyRpt5Z-281">
          <mxGeometry width="50" height="50" relative="1" as="geometry">
            <mxPoint x="1210" y="2923" as="sourcePoint" />
            <mxPoint x="1260" y="2873" as="targetPoint" />
          </mxGeometry>
        </mxCell>
        <mxCell id="E654WWtEkQ3MTWyRpt5Z-284" value="" style="endArrow=classic;html=1;rounded=0;entryX=0;entryY=0;entryDx=0;entryDy=0;" edge="1" parent="1" target="E654WWtEkQ3MTWyRpt5Z-282">
          <mxGeometry width="50" height="50" relative="1" as="geometry">
            <mxPoint x="1010" y="2773" as="sourcePoint" />
            <mxPoint x="1004" y="2829" as="targetPoint" />
          </mxGeometry>
        </mxCell>
        <mxCell id="E654WWtEkQ3MTWyRpt5Z-285" value="3" style="ellipse;whiteSpace=wrap;html=1;aspect=fixed;fillColor=#d5e8d4;strokeColor=#82b366;" vertex="1" parent="1">
          <mxGeometry x="800" y="2883" width="40" height="40" as="geometry" />
        </mxCell>
        <mxCell id="E654WWtEkQ3MTWyRpt5Z-286" value="" style="endArrow=classic;html=1;rounded=0;exitX=0.5;exitY=1;exitDx=0;exitDy=0;entryX=1;entryY=0;entryDx=0;entryDy=0;" edge="1" parent="1" source="E654WWtEkQ3MTWyRpt5Z-275" target="E654WWtEkQ3MTWyRpt5Z-285">
          <mxGeometry width="50" height="50" relative="1" as="geometry">
            <mxPoint x="1210" y="2933" as="sourcePoint" />
            <mxPoint x="1260" y="2883" as="targetPoint" />
          </mxGeometry>
        </mxCell>
        <mxCell id="E654WWtEkQ3MTWyRpt5Z-287" value="1" style="ellipse;whiteSpace=wrap;html=1;aspect=fixed;fillColor=#d5e8d4;strokeColor=#82b366;" vertex="1" parent="1">
          <mxGeometry x="880" y="2883" width="40" height="40" as="geometry" />
        </mxCell>
        <mxCell id="E654WWtEkQ3MTWyRpt5Z-288" value="" style="endArrow=classic;html=1;rounded=0;exitX=0.5;exitY=1;exitDx=0;exitDy=0;entryX=0;entryY=0;entryDx=0;entryDy=0;" edge="1" parent="1" source="E654WWtEkQ3MTWyRpt5Z-275" target="E654WWtEkQ3MTWyRpt5Z-287">
          <mxGeometry width="50" height="50" relative="1" as="geometry">
            <mxPoint x="1210" y="2933" as="sourcePoint" />
            <mxPoint x="1260" y="2883" as="targetPoint" />
          </mxGeometry>
        </mxCell>
        <mxCell id="E654WWtEkQ3MTWyRpt5Z-289" value="6" style="rounded=0;whiteSpace=wrap;html=1;fillColor=#ffcc99;strokeColor=#36393d;" vertex="1" parent="1">
          <mxGeometry x="935" y="2643" width="50" height="20" as="geometry" />
        </mxCell>
        <mxCell id="E654WWtEkQ3MTWyRpt5Z-290" value="4" style="ellipse;whiteSpace=wrap;html=1;aspect=fixed;" vertex="1" parent="1">
          <mxGeometry x="120" y="3010" width="40" height="40" as="geometry" />
        </mxCell>
        <mxCell id="E654WWtEkQ3MTWyRpt5Z-291" value="3" style="ellipse;whiteSpace=wrap;html=1;aspect=fixed;fillColor=#d5e8d4;strokeColor=#82b366;" vertex="1" parent="1">
          <mxGeometry x="60" y="3070" width="40" height="40" as="geometry" />
        </mxCell>
        <mxCell id="E654WWtEkQ3MTWyRpt5Z-292" value="12" style="ellipse;whiteSpace=wrap;html=1;aspect=fixed;" vertex="1" parent="1">
          <mxGeometry x="170" y="3070" width="40" height="40" as="geometry" />
        </mxCell>
        <mxCell id="E654WWtEkQ3MTWyRpt5Z-293" value="1" style="ellipse;whiteSpace=wrap;html=1;aspect=fixed;fillColor=#d5e8d4;strokeColor=#82b366;" vertex="1" parent="1">
          <mxGeometry x="20" y="3150" width="40" height="40" as="geometry" />
        </mxCell>
        <mxCell id="E654WWtEkQ3MTWyRpt5Z-294" value="" style="endArrow=classic;html=1;rounded=0;exitX=0.5;exitY=1;exitDx=0;exitDy=0;entryX=0;entryY=0;entryDx=0;entryDy=0;" edge="1" parent="1" source="E654WWtEkQ3MTWyRpt5Z-290" target="E654WWtEkQ3MTWyRpt5Z-292">
          <mxGeometry width="50" height="50" relative="1" as="geometry">
            <mxPoint x="390" y="3260" as="sourcePoint" />
            <mxPoint x="440" y="3210" as="targetPoint" />
          </mxGeometry>
        </mxCell>
        <mxCell id="E654WWtEkQ3MTWyRpt5Z-295" value="" style="endArrow=classic;html=1;rounded=0;exitX=0.5;exitY=1;exitDx=0;exitDy=0;entryX=1;entryY=0;entryDx=0;entryDy=0;" edge="1" parent="1" source="E654WWtEkQ3MTWyRpt5Z-290" target="E654WWtEkQ3MTWyRpt5Z-291">
          <mxGeometry width="50" height="50" relative="1" as="geometry">
            <mxPoint x="150" y="3060" as="sourcePoint" />
            <mxPoint x="186" y="3086" as="targetPoint" />
          </mxGeometry>
        </mxCell>
        <mxCell id="E654WWtEkQ3MTWyRpt5Z-296" value="" style="endArrow=classic;html=1;rounded=0;exitX=0.5;exitY=1;exitDx=0;exitDy=0;" edge="1" parent="1" source="E654WWtEkQ3MTWyRpt5Z-291" target="E654WWtEkQ3MTWyRpt5Z-293">
          <mxGeometry width="50" height="50" relative="1" as="geometry">
            <mxPoint x="160" y="3070" as="sourcePoint" />
            <mxPoint x="196" y="3096" as="targetPoint" />
          </mxGeometry>
        </mxCell>
        <mxCell id="E654WWtEkQ3MTWyRpt5Z-297" value="5" style="ellipse;whiteSpace=wrap;html=1;aspect=fixed;fillColor=#d5e8d4;strokeColor=#82b366;" vertex="1" parent="1">
          <mxGeometry x="100" y="3150" width="40" height="40" as="geometry" />
        </mxCell>
        <mxCell id="E654WWtEkQ3MTWyRpt5Z-298" value="" style="endArrow=classic;html=1;rounded=0;exitX=0.5;exitY=1;exitDx=0;exitDy=0;entryX=0;entryY=0;entryDx=0;entryDy=0;" edge="1" parent="1" source="E654WWtEkQ3MTWyRpt5Z-291" target="E654WWtEkQ3MTWyRpt5Z-297">
          <mxGeometry width="50" height="50" relative="1" as="geometry">
            <mxPoint x="390" y="3250" as="sourcePoint" />
            <mxPoint x="440" y="3200" as="targetPoint" />
          </mxGeometry>
        </mxCell>
        <mxCell id="E654WWtEkQ3MTWyRpt5Z-299" value="13" style="ellipse;whiteSpace=wrap;html=1;aspect=fixed;fillColor=#d5e8d4;strokeColor=#82b366;" vertex="1" parent="1">
          <mxGeometry x="140" y="3150" width="40" height="40" as="geometry" />
        </mxCell>
        <mxCell id="E654WWtEkQ3MTWyRpt5Z-300" value="43" style="ellipse;whiteSpace=wrap;html=1;aspect=fixed;fillColor=#d5e8d4;strokeColor=#82b366;" vertex="1" parent="1">
          <mxGeometry x="210" y="3150" width="40" height="40" as="geometry" />
        </mxCell>
        <mxCell id="E654WWtEkQ3MTWyRpt5Z-301" value="" style="endArrow=classic;html=1;rounded=0;exitX=0.5;exitY=1;exitDx=0;exitDy=0;entryX=1;entryY=0;entryDx=0;entryDy=0;" edge="1" parent="1" source="E654WWtEkQ3MTWyRpt5Z-292" target="E654WWtEkQ3MTWyRpt5Z-299">
          <mxGeometry width="50" height="50" relative="1" as="geometry">
            <mxPoint x="390" y="3260" as="sourcePoint" />
            <mxPoint x="440" y="3210" as="targetPoint" />
          </mxGeometry>
        </mxCell>
        <mxCell id="E654WWtEkQ3MTWyRpt5Z-302" value="" style="endArrow=classic;html=1;rounded=0;entryX=0;entryY=0;entryDx=0;entryDy=0;" edge="1" parent="1" target="E654WWtEkQ3MTWyRpt5Z-300">
          <mxGeometry width="50" height="50" relative="1" as="geometry">
            <mxPoint x="190" y="3110" as="sourcePoint" />
            <mxPoint x="184" y="3166" as="targetPoint" />
          </mxGeometry>
        </mxCell>
        <mxCell id="E654WWtEkQ3MTWyRpt5Z-303" value="3" style="ellipse;whiteSpace=wrap;html=1;aspect=fixed;fillColor=#d5e8d4;strokeColor=#82b366;" vertex="1" parent="1">
          <mxGeometry x="-20" y="3220" width="40" height="40" as="geometry" />
        </mxCell>
        <mxCell id="E654WWtEkQ3MTWyRpt5Z-304" value="" style="endArrow=classic;html=1;rounded=0;exitX=0.5;exitY=1;exitDx=0;exitDy=0;entryX=1;entryY=0;entryDx=0;entryDy=0;" edge="1" parent="1" source="E654WWtEkQ3MTWyRpt5Z-293" target="E654WWtEkQ3MTWyRpt5Z-303">
          <mxGeometry width="50" height="50" relative="1" as="geometry">
            <mxPoint x="390" y="3270" as="sourcePoint" />
            <mxPoint x="440" y="3220" as="targetPoint" />
          </mxGeometry>
        </mxCell>
        <mxCell id="E654WWtEkQ3MTWyRpt5Z-305" value="1" style="ellipse;whiteSpace=wrap;html=1;aspect=fixed;fillColor=#d5e8d4;strokeColor=#82b366;" vertex="1" parent="1">
          <mxGeometry x="60" y="3220" width="40" height="40" as="geometry" />
        </mxCell>
        <mxCell id="E654WWtEkQ3MTWyRpt5Z-306" value="" style="endArrow=classic;html=1;rounded=0;exitX=0.5;exitY=1;exitDx=0;exitDy=0;entryX=0;entryY=0;entryDx=0;entryDy=0;" edge="1" parent="1" source="E654WWtEkQ3MTWyRpt5Z-293" target="E654WWtEkQ3MTWyRpt5Z-305">
          <mxGeometry width="50" height="50" relative="1" as="geometry">
            <mxPoint x="390" y="3270" as="sourcePoint" />
            <mxPoint x="440" y="3220" as="targetPoint" />
          </mxGeometry>
        </mxCell>
        <mxCell id="E654WWtEkQ3MTWyRpt5Z-307" value="7" style="rounded=0;whiteSpace=wrap;html=1;fillColor=#ffcc99;strokeColor=#36393d;" vertex="1" parent="1">
          <mxGeometry x="115" y="2980" width="50" height="20" as="geometry" />
        </mxCell>
        <mxCell id="E654WWtEkQ3MTWyRpt5Z-308" value="4" style="ellipse;whiteSpace=wrap;html=1;aspect=fixed;" vertex="1" parent="1">
          <mxGeometry x="540" y="3010" width="40" height="40" as="geometry" />
        </mxCell>
        <mxCell id="E654WWtEkQ3MTWyRpt5Z-309" value="3" style="ellipse;whiteSpace=wrap;html=1;aspect=fixed;fillColor=#d5e8d4;strokeColor=#82b366;" vertex="1" parent="1">
          <mxGeometry x="480" y="3070" width="40" height="40" as="geometry" />
        </mxCell>
        <mxCell id="E654WWtEkQ3MTWyRpt5Z-310" value="12" style="ellipse;whiteSpace=wrap;html=1;aspect=fixed;fillColor=#d5e8d4;strokeColor=#82b366;" vertex="1" parent="1">
          <mxGeometry x="590" y="3070" width="40" height="40" as="geometry" />
        </mxCell>
        <mxCell id="E654WWtEkQ3MTWyRpt5Z-311" value="1" style="ellipse;whiteSpace=wrap;html=1;aspect=fixed;fillColor=#d5e8d4;strokeColor=#82b366;" vertex="1" parent="1">
          <mxGeometry x="440" y="3150" width="40" height="40" as="geometry" />
        </mxCell>
        <mxCell id="E654WWtEkQ3MTWyRpt5Z-312" value="" style="endArrow=classic;html=1;rounded=0;exitX=0.5;exitY=1;exitDx=0;exitDy=0;entryX=0;entryY=0;entryDx=0;entryDy=0;" edge="1" parent="1" source="E654WWtEkQ3MTWyRpt5Z-308" target="E654WWtEkQ3MTWyRpt5Z-310">
          <mxGeometry width="50" height="50" relative="1" as="geometry">
            <mxPoint x="810" y="3260" as="sourcePoint" />
            <mxPoint x="860" y="3210" as="targetPoint" />
          </mxGeometry>
        </mxCell>
        <mxCell id="E654WWtEkQ3MTWyRpt5Z-313" value="" style="endArrow=classic;html=1;rounded=0;exitX=0.5;exitY=1;exitDx=0;exitDy=0;entryX=1;entryY=0;entryDx=0;entryDy=0;" edge="1" parent="1" source="E654WWtEkQ3MTWyRpt5Z-308" target="E654WWtEkQ3MTWyRpt5Z-309">
          <mxGeometry width="50" height="50" relative="1" as="geometry">
            <mxPoint x="570" y="3060" as="sourcePoint" />
            <mxPoint x="606" y="3086" as="targetPoint" />
          </mxGeometry>
        </mxCell>
        <mxCell id="E654WWtEkQ3MTWyRpt5Z-314" value="" style="endArrow=classic;html=1;rounded=0;exitX=0.5;exitY=1;exitDx=0;exitDy=0;" edge="1" parent="1" source="E654WWtEkQ3MTWyRpt5Z-309" target="E654WWtEkQ3MTWyRpt5Z-311">
          <mxGeometry width="50" height="50" relative="1" as="geometry">
            <mxPoint x="580" y="3070" as="sourcePoint" />
            <mxPoint x="616" y="3096" as="targetPoint" />
          </mxGeometry>
        </mxCell>
        <mxCell id="E654WWtEkQ3MTWyRpt5Z-315" value="5" style="ellipse;whiteSpace=wrap;html=1;aspect=fixed;fillColor=#d5e8d4;strokeColor=#82b366;" vertex="1" parent="1">
          <mxGeometry x="520" y="3150" width="40" height="40" as="geometry" />
        </mxCell>
        <mxCell id="E654WWtEkQ3MTWyRpt5Z-316" value="" style="endArrow=classic;html=1;rounded=0;exitX=0.5;exitY=1;exitDx=0;exitDy=0;entryX=0;entryY=0;entryDx=0;entryDy=0;" edge="1" parent="1" source="E654WWtEkQ3MTWyRpt5Z-309" target="E654WWtEkQ3MTWyRpt5Z-315">
          <mxGeometry width="50" height="50" relative="1" as="geometry">
            <mxPoint x="810" y="3250" as="sourcePoint" />
            <mxPoint x="860" y="3200" as="targetPoint" />
          </mxGeometry>
        </mxCell>
        <mxCell id="E654WWtEkQ3MTWyRpt5Z-317" value="13" style="ellipse;whiteSpace=wrap;html=1;aspect=fixed;fillColor=#d5e8d4;strokeColor=#82b366;" vertex="1" parent="1">
          <mxGeometry x="560" y="3150" width="40" height="40" as="geometry" />
        </mxCell>
        <mxCell id="E654WWtEkQ3MTWyRpt5Z-318" value="43" style="ellipse;whiteSpace=wrap;html=1;aspect=fixed;fillColor=#d5e8d4;strokeColor=#82b366;" vertex="1" parent="1">
          <mxGeometry x="630" y="3150" width="40" height="40" as="geometry" />
        </mxCell>
        <mxCell id="E654WWtEkQ3MTWyRpt5Z-319" value="" style="endArrow=classic;html=1;rounded=0;exitX=0.5;exitY=1;exitDx=0;exitDy=0;entryX=1;entryY=0;entryDx=0;entryDy=0;" edge="1" parent="1" source="E654WWtEkQ3MTWyRpt5Z-310" target="E654WWtEkQ3MTWyRpt5Z-317">
          <mxGeometry width="50" height="50" relative="1" as="geometry">
            <mxPoint x="810" y="3260" as="sourcePoint" />
            <mxPoint x="860" y="3210" as="targetPoint" />
          </mxGeometry>
        </mxCell>
        <mxCell id="E654WWtEkQ3MTWyRpt5Z-320" value="" style="endArrow=classic;html=1;rounded=0;entryX=0;entryY=0;entryDx=0;entryDy=0;" edge="1" parent="1" target="E654WWtEkQ3MTWyRpt5Z-318">
          <mxGeometry width="50" height="50" relative="1" as="geometry">
            <mxPoint x="610" y="3110" as="sourcePoint" />
            <mxPoint x="604" y="3166" as="targetPoint" />
          </mxGeometry>
        </mxCell>
        <mxCell id="E654WWtEkQ3MTWyRpt5Z-321" value="3" style="ellipse;whiteSpace=wrap;html=1;aspect=fixed;fillColor=#d5e8d4;strokeColor=#82b366;" vertex="1" parent="1">
          <mxGeometry x="400" y="3220" width="40" height="40" as="geometry" />
        </mxCell>
        <mxCell id="E654WWtEkQ3MTWyRpt5Z-322" value="" style="endArrow=classic;html=1;rounded=0;exitX=0.5;exitY=1;exitDx=0;exitDy=0;entryX=1;entryY=0;entryDx=0;entryDy=0;" edge="1" parent="1" source="E654WWtEkQ3MTWyRpt5Z-311" target="E654WWtEkQ3MTWyRpt5Z-321">
          <mxGeometry width="50" height="50" relative="1" as="geometry">
            <mxPoint x="810" y="3270" as="sourcePoint" />
            <mxPoint x="860" y="3220" as="targetPoint" />
          </mxGeometry>
        </mxCell>
        <mxCell id="E654WWtEkQ3MTWyRpt5Z-323" value="1" style="ellipse;whiteSpace=wrap;html=1;aspect=fixed;fillColor=#d5e8d4;strokeColor=#82b366;" vertex="1" parent="1">
          <mxGeometry x="480" y="3220" width="40" height="40" as="geometry" />
        </mxCell>
        <mxCell id="E654WWtEkQ3MTWyRpt5Z-324" value="" style="endArrow=classic;html=1;rounded=0;exitX=0.5;exitY=1;exitDx=0;exitDy=0;entryX=0;entryY=0;entryDx=0;entryDy=0;" edge="1" parent="1" source="E654WWtEkQ3MTWyRpt5Z-311" target="E654WWtEkQ3MTWyRpt5Z-323">
          <mxGeometry width="50" height="50" relative="1" as="geometry">
            <mxPoint x="810" y="3270" as="sourcePoint" />
            <mxPoint x="860" y="3220" as="targetPoint" />
          </mxGeometry>
        </mxCell>
        <mxCell id="E654WWtEkQ3MTWyRpt5Z-325" value="8" style="rounded=0;whiteSpace=wrap;html=1;fillColor=#ffcc99;strokeColor=#36393d;" vertex="1" parent="1">
          <mxGeometry x="535" y="2980" width="50" height="20" as="geometry" />
        </mxCell>
        <mxCell id="E654WWtEkQ3MTWyRpt5Z-326" value="4" style="ellipse;whiteSpace=wrap;html=1;aspect=fixed;fillColor=#d5e8d4;strokeColor=#82b366;" vertex="1" parent="1">
          <mxGeometry x="940" y="3010" width="40" height="40" as="geometry" />
        </mxCell>
        <mxCell id="E654WWtEkQ3MTWyRpt5Z-327" value="3" style="ellipse;whiteSpace=wrap;html=1;aspect=fixed;fillColor=#d5e8d4;strokeColor=#82b366;" vertex="1" parent="1">
          <mxGeometry x="880" y="3070" width="40" height="40" as="geometry" />
        </mxCell>
        <mxCell id="E654WWtEkQ3MTWyRpt5Z-328" value="12" style="ellipse;whiteSpace=wrap;html=1;aspect=fixed;fillColor=#d5e8d4;strokeColor=#82b366;" vertex="1" parent="1">
          <mxGeometry x="990" y="3070" width="40" height="40" as="geometry" />
        </mxCell>
        <mxCell id="E654WWtEkQ3MTWyRpt5Z-329" value="1" style="ellipse;whiteSpace=wrap;html=1;aspect=fixed;fillColor=#d5e8d4;strokeColor=#82b366;" vertex="1" parent="1">
          <mxGeometry x="840" y="3150" width="40" height="40" as="geometry" />
        </mxCell>
        <mxCell id="E654WWtEkQ3MTWyRpt5Z-330" value="" style="endArrow=classic;html=1;rounded=0;exitX=0.5;exitY=1;exitDx=0;exitDy=0;entryX=0;entryY=0;entryDx=0;entryDy=0;" edge="1" parent="1" source="E654WWtEkQ3MTWyRpt5Z-326" target="E654WWtEkQ3MTWyRpt5Z-328">
          <mxGeometry width="50" height="50" relative="1" as="geometry">
            <mxPoint x="1210" y="3260" as="sourcePoint" />
            <mxPoint x="1260" y="3210" as="targetPoint" />
          </mxGeometry>
        </mxCell>
        <mxCell id="E654WWtEkQ3MTWyRpt5Z-331" value="" style="endArrow=classic;html=1;rounded=0;exitX=0.5;exitY=1;exitDx=0;exitDy=0;entryX=1;entryY=0;entryDx=0;entryDy=0;" edge="1" parent="1" source="E654WWtEkQ3MTWyRpt5Z-326" target="E654WWtEkQ3MTWyRpt5Z-327">
          <mxGeometry width="50" height="50" relative="1" as="geometry">
            <mxPoint x="970" y="3060" as="sourcePoint" />
            <mxPoint x="1006" y="3086" as="targetPoint" />
          </mxGeometry>
        </mxCell>
        <mxCell id="E654WWtEkQ3MTWyRpt5Z-332" value="" style="endArrow=classic;html=1;rounded=0;exitX=0.5;exitY=1;exitDx=0;exitDy=0;" edge="1" parent="1" source="E654WWtEkQ3MTWyRpt5Z-327" target="E654WWtEkQ3MTWyRpt5Z-329">
          <mxGeometry width="50" height="50" relative="1" as="geometry">
            <mxPoint x="980" y="3070" as="sourcePoint" />
            <mxPoint x="1016" y="3096" as="targetPoint" />
          </mxGeometry>
        </mxCell>
        <mxCell id="E654WWtEkQ3MTWyRpt5Z-333" value="5" style="ellipse;whiteSpace=wrap;html=1;aspect=fixed;fillColor=#d5e8d4;strokeColor=#82b366;" vertex="1" parent="1">
          <mxGeometry x="920" y="3150" width="40" height="40" as="geometry" />
        </mxCell>
        <mxCell id="E654WWtEkQ3MTWyRpt5Z-334" value="" style="endArrow=classic;html=1;rounded=0;exitX=0.5;exitY=1;exitDx=0;exitDy=0;entryX=0;entryY=0;entryDx=0;entryDy=0;" edge="1" parent="1" source="E654WWtEkQ3MTWyRpt5Z-327" target="E654WWtEkQ3MTWyRpt5Z-333">
          <mxGeometry width="50" height="50" relative="1" as="geometry">
            <mxPoint x="1210" y="3250" as="sourcePoint" />
            <mxPoint x="1260" y="3200" as="targetPoint" />
          </mxGeometry>
        </mxCell>
        <mxCell id="E654WWtEkQ3MTWyRpt5Z-335" value="13" style="ellipse;whiteSpace=wrap;html=1;aspect=fixed;fillColor=#d5e8d4;strokeColor=#82b366;" vertex="1" parent="1">
          <mxGeometry x="960" y="3150" width="40" height="40" as="geometry" />
        </mxCell>
        <mxCell id="E654WWtEkQ3MTWyRpt5Z-336" value="43" style="ellipse;whiteSpace=wrap;html=1;aspect=fixed;fillColor=#d5e8d4;strokeColor=#82b366;" vertex="1" parent="1">
          <mxGeometry x="1030" y="3150" width="40" height="40" as="geometry" />
        </mxCell>
        <mxCell id="E654WWtEkQ3MTWyRpt5Z-337" value="" style="endArrow=classic;html=1;rounded=0;exitX=0.5;exitY=1;exitDx=0;exitDy=0;entryX=1;entryY=0;entryDx=0;entryDy=0;" edge="1" parent="1" source="E654WWtEkQ3MTWyRpt5Z-328" target="E654WWtEkQ3MTWyRpt5Z-335">
          <mxGeometry width="50" height="50" relative="1" as="geometry">
            <mxPoint x="1210" y="3260" as="sourcePoint" />
            <mxPoint x="1260" y="3210" as="targetPoint" />
          </mxGeometry>
        </mxCell>
        <mxCell id="E654WWtEkQ3MTWyRpt5Z-338" value="" style="endArrow=classic;html=1;rounded=0;entryX=0;entryY=0;entryDx=0;entryDy=0;" edge="1" parent="1" target="E654WWtEkQ3MTWyRpt5Z-336">
          <mxGeometry width="50" height="50" relative="1" as="geometry">
            <mxPoint x="1010" y="3110" as="sourcePoint" />
            <mxPoint x="1004" y="3166" as="targetPoint" />
          </mxGeometry>
        </mxCell>
        <mxCell id="E654WWtEkQ3MTWyRpt5Z-339" value="3" style="ellipse;whiteSpace=wrap;html=1;aspect=fixed;fillColor=#d5e8d4;strokeColor=#82b366;" vertex="1" parent="1">
          <mxGeometry x="800" y="3220" width="40" height="40" as="geometry" />
        </mxCell>
        <mxCell id="E654WWtEkQ3MTWyRpt5Z-340" value="" style="endArrow=classic;html=1;rounded=0;exitX=0.5;exitY=1;exitDx=0;exitDy=0;entryX=1;entryY=0;entryDx=0;entryDy=0;" edge="1" parent="1" source="E654WWtEkQ3MTWyRpt5Z-329" target="E654WWtEkQ3MTWyRpt5Z-339">
          <mxGeometry width="50" height="50" relative="1" as="geometry">
            <mxPoint x="1210" y="3270" as="sourcePoint" />
            <mxPoint x="1260" y="3220" as="targetPoint" />
          </mxGeometry>
        </mxCell>
        <mxCell id="E654WWtEkQ3MTWyRpt5Z-341" value="1" style="ellipse;whiteSpace=wrap;html=1;aspect=fixed;fillColor=#d5e8d4;strokeColor=#82b366;" vertex="1" parent="1">
          <mxGeometry x="880" y="3220" width="40" height="40" as="geometry" />
        </mxCell>
        <mxCell id="E654WWtEkQ3MTWyRpt5Z-342" value="" style="endArrow=classic;html=1;rounded=0;exitX=0.5;exitY=1;exitDx=0;exitDy=0;entryX=0;entryY=0;entryDx=0;entryDy=0;" edge="1" parent="1" source="E654WWtEkQ3MTWyRpt5Z-329" target="E654WWtEkQ3MTWyRpt5Z-341">
          <mxGeometry width="50" height="50" relative="1" as="geometry">
            <mxPoint x="1210" y="3270" as="sourcePoint" />
            <mxPoint x="1260" y="3220" as="targetPoint" />
          </mxGeometry>
        </mxCell>
        <mxCell id="E654WWtEkQ3MTWyRpt5Z-343" value="9" style="rounded=0;whiteSpace=wrap;html=1;fillColor=#ffcc99;strokeColor=#36393d;" vertex="1" parent="1">
          <mxGeometry x="935" y="2980" width="50" height="20" as="geometry" />
        </mxCell>
      </root>
    </mxGraphModel>
  </diagram>
</mxfile>
